{
.appVersion = "3428";
.formatVersion = 3;
customParameters = (
{
name = fsType;
value = (
);
},
{
name = "Use Typo Metrics";
value = 1;
}
);
date = "2025-05-01 05:45:11 +0000";
familyName = "Gveret Levin";
featurePrefixes = (
{
automatic = 1;
code = "languagesystem DFLT dflt;

languagesystem hebr dflt;
languagesystem hebr IWR;
";
name = Languagesystems;
}
);
features = (
{
automatic = 1;
code = "feature ss01;
feature calt;
feature ss02;
";
tag = aalt;
},
{
automatic = 1;
code = "lookupflag IgnoreMarks;
sub alef-hb shin-hb by alef_shin-hb;
sub alef-hb lamed-hb by aleflamed-hb;
";
tag = dlig;
},
{
automatic = 1;
code = "sub lamed-hb by lamed-hb.ss01;
sub nun-hb by nun-hb.ss01;
sub finalpe-hb by finalpe-hb.ss01;
sub finaltsadi-hb by finaltsadi-hb.ss01;
sub sheqel by sheqel.ss01;
";
labels = (
{
language = dflt;
value = "";
}
);
notes = "Name: ";
tag = ss01;
},
{
code = "sub [lamed-hb lameddagesh-hb aleflamed-hb] lamed-hb' by lamed-hb.ss01;
sub [lamed-hb lameddagesh-hb aleflamed-hb ayin-hb tsadi-hb tsadidagesh-hb] finalpe-hb' by finalpe-hb.ss01;
sub [lamed-hb lameddagesh-hb aleflamed-hb ayin-hb tsadi-hb tsadidagesh-hb] finaltsadi-hb' by finaltsadi-hb.ss01;
sub [nun-hb nundagesh-hb tav-hb tavdagesh-hb] nun-hb' by nun-hb.ss01;
sub [nun-hb.ss01] nun-hb' by nun-hb.ss02;
sub [nun-hb nun-hb.ss01]' [finalnun-hb finalkaf-hb finalkafdagesh-hb] by nun-hb.ss02;

sub vav-hb dagesh-hb by vavdagesh-hb;
sub yod-hb dagesh-hb by yoddagesh-hb;
";
tag = calt;
},
{
automatic = 1;
code = "sub nun-hb by nun-hb.ss02;
";
tag = ss02;
}
);
fontMaster = (
{
customParameters = (
{
name = winAscent;
value = 1221;
},
{
name = winDescent;
value = 418;
},
{
name = typoAscender;
value = 990;
},
{
name = typoDescender;
value = -310;
},
{
name = typoLineGap;
value = 0;
},
{
name = hheaAscender;
value = 990;
},
{
name = hheaDescender;
value = -310;
},
{
name = hheaLineGap;
value = 0;
},
{
name = underlinePosition;
value = -140;
},
{
name = underlineThickness;
value = 60;
},
{
name = TTFStems;
value = (

glyphs = (
{
color = 6;
glyphname = A;
kernLeft = A;
kernRight = A;
lastChange = "2025-10-29 14:39:49 +0000";
layers = (
{
layerId = "15880153-BF49-4651-A558-57743A88E547";
shapes = (
{
closed = 1;
nodes = (
(644,-45,o),
(660,-19,o),
(653,10,cs),
(613,182,o),
(579,349,o),
(526,574,cs),
(514,628,o),
(505,676,o),
(465,683,cs),
(447,686,o),
(426,684,o),
(407,662,cs),
(391,646,o),
(360,601,o),
(312,525,cs),
(209,369,o),
(106,221,o),
(30,83,cs),
(2,29,o),
(23,-1,o),
(49,-10,cs),
(100,-26,o),
(120,28,o),
(169,111,cs),
(256,253,o),
(344,385,o),
(428,519,c),
(451,404,o),
(479,279,o),
(513,152,cs),
(536,65,o),
(551,14,o),
(561,-8,cs),
(573,-34,o),
(592,-45,o),
(610,-45,cs)
);
},
{
closed = 1;
nodes = (
(247,176,o),
(456,188,o),
(603,219,cs),
(641,227,o),
(668,242,o),
(668,270,cs),
(666,309,o),
(630,313,o),
(595,311,cs),
(473,302,o),
(200,280,o),
(89,262,cs),
(55,256,o),
(29,241,o),
(27,206,cs),
(27,169,o),
(58,155,o),
(116,161,cs)
);
}
);
width = 723;
}
);
unicode = 65;
},
{
color = 6;
glyphname = B;
kernLeft = B;
kernRight = B;
lastChange = "2025-10-29 14:39:49 +0000";
layers = (
{
layerId = "15880153-BF49-4651-A558-57743A88E547";
shapes = (
{
closed = 1;
nodes = (
(421,-6,o),
(606,79,o),
(605,229,cs),
(605,311,o),
(513,395,o),
(353,401,c),
(330,359,l),
(516,389,o),
(596,483,o),
(596,566,cs),
(596,654,o),
(524,708,o),
(398,708,cs),
(334,708,o),
(268,701,o),
(202,689,cs),
(183,686,o),
(164,674,o),
(153,645,cs),
(145,625,o),
(135,577,o),
(119,495,cs),
(91,351,o),
(68,211,o),
(53,89,cs),
(47,29,o),
(78,8,o),
(105,10,cs),
(159,14,o),
(157,71,o),
(172,167,cs),
(197,330,o),
(222,481,o),
(259,637,c),
(190,581,l),
(242,599,o),
(315,615,o),
(381,615,cs),
(448,615,o),
(480,595,o),
(481,551,cs),
(481,484,o),
(394,419,o),
(184,408,c),
(169,318,l),
(212,318,o),
(262,320,o),
(315,320,cs),
(396,320,o),
(485,304,o),
(485,221,cs),
(485,152,o),
(353,89,o),
(171,89,cs),
(114,89,o),
(69,95,o),
(13,105,cs),
(-14,110,o),
(-39,82,o),
(-39,55,cs),
(-39,40,o),
(-31,25,o),
(-10,16,cs),
(17,5,o),
(96,-6,o),
(147,-6,cs)
);
}
);
width = 636;
}
);
unicode = 66;
},
{
color = 6;
glyphname = C;
kernLeft = G;
kernRight = C;
lastChange = "2025-10-29 14:39:49 +0000";
layers = (
{
background = {
shapes = (
{
closed = 1;
nodes = (
(529,253,o),
(600,230,o),
(576,174,c),
(540,93,o),
(369,0,o),
(255,0,c),
(-116,0,o),
(38,376,o),
(146,525,c),
(215,619,o),
(296,683,o),
(449,635,c),
(510,615,o),
(578,563,o),
(494,533,c),
(434,526,o),
(374,610,o),
(287,527,c),
(207,452,o),
(106,227,o),
(146,135,c),
(177,63,o),
(319,94,o),
(381,131,c),
(424,156,o),
(452,206,o),
(480,223,c)
);
}
);
};
layerId = "15880153-BF49-4651-A558-57743A88E547";
shapes = (
{
closed = 1;
nodes = (
(349,-14,o),
(451,26,o),
(529,111,cs),
(556,141,o),
(580,176,o),
(560,211,cs),
(542,241,o),
(505,232,o),
(479,207,cs),
(402,134,o),
(339,92,o),
(265,92,cs),
(185,92,o),
(146,163,o),
(154,252,cs),
(165,365,o),
(252,595,o),
(366,595,cs),
(400,595,o),
(433,582,o),
(463,560,cs),
(494,538,o),
(515,528,o),
(540,535,cs),
(557,540,o),
(567,558,o),
(561,584,cs),
(553,625,o),
(495,689,o),
(377,689,cs),
(159,689,o),
(54,432,o),
(42,226,cs),
(33,89,o),
(123,-14,o),
(247,-14,cs)
);
}
);
width = 594;
}
);
metricLeft = G;
unicode = 67;
},
{
color = 6;
glyphname = D;
kernLeft = E;
kernRight = O;
lastChange = "2025-10-29 14:39:49 +0000";
layers = (
{
background = {
shapes = (
{
closed = 1;
nodes = (
(186,114,l),
(262,63,o),
(435,106,o),
(487,175,c),
(612,342,o),
(494,616,o),
(242,577,c)
);
},
{
closed = 1;
nodes = (
(178,676,o),
(326,678,o),
(345,677,c),
(513,668,o),
(652,498,o),
(658,361,c),
(667,142,o),
(519,-4,o),
(262,-11,c),
(233,-11,o),
(181,4,o),
(165,0,c),
(150,-4,o),
(94,-72,o),
(57,-18,c),
(28,23,o),
(86,203,o),
(95,263,c),
(105,325,o),
(128,631,o),
(149,658,c),
(154,665,o),
(161,671,o),
(169,673,c)
);
}
);
};
layerId = "15880153-BF49-4651-A558-57743A88E547";
shapes = (
{
closed = 1;
nodes = (
(115,-38,o),
(134,-26,o),
(144,1,cs),
(152,23,o),
(164,75,o),
(180,164,cs),
(210,319,o),
(228,472,o),
(242,605,c),
(191,574,l),
(223,582,o),
(235,586,o),
(285,586,cs),
(415,586,o),
(538,441,o),
(538,340,cs),
(538,182,o),
(415,80,o),
(305,80,cs),
(222,80,o),
(172,115,o),
(150,165,c),
(95,52,l),
(143,5,o),
(215,-23,o),
(301,-23,cs),
(488,-23,o),
(648,143,o),
(648,343,cs),
(648,482,o),
(482,683,o),
(302,683,cs),
(265,683,o),
(227,680,o),
(191,674,cs),
(137,665,o),
(139,612,o),
(123,517,cs),
(95,343,o),
(78,180,o),
(51,12,cs),
(46,-17,o),
(64,-42,o),
(97,-40,cs)
);
}
);
width = 679;
}
);
metricLeft = E;
metricRight = O;
unicode = 68;
},
{
color = 6;
glyphname = E;
kernLeft = E;
kernRight = E;
lastChange = "2025-10-29 14:39:49 +0000";
layers = (
{
background = {
shapes = (
{
closed = 1;
nodes = (
(490,416,l),
(509,412,o),
(513,388,o),
(512,374,c),
(504,313,o),
(279,328,o),
(217,320,c),
(180,80,l),
(248,81,o),
(557,110,o),
(590,74,c),
(618,42,o),
(590,13,o),
(549,4,c),
(446,16,o),
(124,-50,o),
(57,17,c),
(52,23,o),
(46,29,o),
(45,37,c),
(143,657,l),
(160,671,l),
(207,690,o),
(229,658,o),
(267,656,c),
(338,652,o),
(466,680,o),
(538,676,c),
(624,673,o),
(633,604,o),
(578,591,c),
(529,580,o),
(253,570,o),
(241,560,c),
(236,416,l)
);
}
);
};
layerId = "15880153-BF49-4651-A558-57743A88E547";
shapes = (
{
closed = 1;
nodes = (
(252,-17,o),
(399,-9,o),
(506,-6,cs),
(564,-4,o),
(593,14,o),
(587,50,cs),
(581,85,o),
(552,96,o),
(518,97,cs),
(441,99,o),
(307,97,o),
(174,92,c),
(191,186,ls),
(217,335,o),
(234,482,o),
(246,608,cs),
(251,668,o),
(220,689,o),
(194,687,cs),
(140,681,o),
(143,624,o),
(128,529,cs),
(103,356,o),
(87,198,o),
(64,33,cs),
(60,4,o),
(78,-18,o),
(111,-18,cs)
);
},
{
closed = 1;
nodes = (
(247,308,o),
(355,315,o),
(437,318,cs),
(494,322,o),
(520,339,o),
(512,375,cs),
(503,409,o),
(475,419,o),
(440,419,cs),
(372,420,o),
(249,409,o),
(129,409,c),
(139,303,l)
);
},
{
closed = 1;
nodes = (
(305,558,o),
(448,571,o),
(551,585,cs),
(590,590,o),
(618,604,o),
(619,632,cs),
(621,671,o),
(585,677,o),
(550,677,cs),
(469,677,o),
(292,667,o),
(206,655,c),
(212,551,l)
);
}
);
width = 639;
}
);
unicode = 69;
},
{
color = 6;
glyphname = F;
kernLeft = E;
kernRight = F;
lastChange = "2025-10-29 14:39:49 +0000";
layers = (
{
layerId = "15880153-BF49-4651-A558-57743A88E547";
shapes = (
{
closed = 1;
nodes = (
(129,-17,o),
(148,-4,o),
(158,23,cs),
(165,46,o),
(176,98,o),
(191,186,cs),
(217,335,o),
(234,482,o),
(246,608,cs),
(251,668,o),
(220,689,o),
(194,687,cs),
(140,681,o),
(143,624,o),
(128,529,cs),
(103,356,o),
(87,198,o),
(64,33,cs),
(60,4,o),
(78,-21,o),
(111,-18,cs)
);
},
{
closed = 1;
nodes = (
(252,270,o),
(375,266,o),
(443,270,cs),
(478,272,o),
(505,283,o),
(512,318,cs),
(518,354,o),
(492,370,o),
(435,371,cs),
(352,370,o),
(244,371,o),
(136,370,c),
(132,264,l)
);
},
{
closed = 1;
nodes = (
(302,554,o),
(446,559,o),
(549,568,cs),
(588,571,o),
(617,583,o),
(620,611,cs),
(624,650,o),
(588,658,o),
(553,660,cs),
(472,664,o),
(295,663,o),
(208,656,c),
(209,552,l)
);
}
);
width = 555;
}
);
metricLeft = E;
unicode = 70;
},
{
color = 6;
glyphname = G;
kernLeft = G;
kernRight = G;
lastChange = "2025-10-29 14:39:49 +0000";
layers = (
{
background = {
shapes = (
{
closed = 1;
nodes = (
(381,619,o),
(324,599,o),
(266,518,c),
(214,445,o),
(120,195,o),
(179,123,c),
(276,5,o),
(456,197,o),
(446,278,c),
(378,259,o),
(260,306,o),
(341,349,c),
(361,359,o),
(591,403,o),
(617,401,c),
(658,398,o),
(702,367,o),
(685,336,c),
(665,295,o),
(587,314,o),
(574,298,c),
(565,286,o),
(574,258,o),
(568,240,c),
(519,102,o),
(373,-74,o),
(150,21,c),
(-12,91,o),
(36,269,o),
(68,380,c),
(111,528,o),
(222,759,o),
(483,664,c),
(534,646,o),
(677,551,o),
(580,526,c),
(519,510,o),
(517,547,o),
(494,559,c)
);
}
);
};
layerId = "15880153-BF49-4651-A558-57743A88E547";
shapes = (
{
closed = 1;
nodes = (
(427,-23,o),
(564,134,o),
(564,323,c),
(454,320,l),
(454,174,o),
(357,80,o),
(271,80,cs),
(187,80,o),
(145,156,o),
(154,252,cs),
(165,365,o),
(252,595,o),
(366,595,cs),
(416,595,o),
(467,578,o),
(507,545,cs),
(539,518,o),
(560,506,o),
(585,513,cs),
(602,518,o),
(612,536,o),
(606,562,cs),
(598,603,o),
(524,689,o),
(377,689,cs),
(159,689,o),
(54,432,o),
(42,226,cs),
(33,84,o),
(131,-23,o),
(267,-23,cs)
);
},
{
closed = 1;
nodes = (
(446,281,o),
(561,296,o),
(608,306,cs),
(646,315,o),
(676,323,o),
(678,351,cs),
(681,390,o),
(645,395,o),
(610,398,cs),
(582,401,o),
(419,387,o),
(381,382,cs),
(347,377,o),
(319,368,o),
(314,333,cs),
(309,296,o),
(339,278,o),
(397,279,cs)
);
}
);
width = 662;
}
);
unicode = 71;
},
{
color = 6;
glyphname = H;
kernLeft = H;
kernRight = H;
lastChange = "2025-10-29 14:39:49 +0000";
layers = (
{
background = {
shapes = (
{
closed = 1;
nodes = (
(616,418,l),
(641,467,o),
(654,661,o),
(714,676,c),
(830,701,o),
(718,461,o),
(728,422,c),
(798,397,l),
(862,307,o),
(722,335,o),
(704,307,c),
(684,257,o),
(629,-35,o),
(600,-54,c),
(561,-77,o),
(512,-63,o),
(509,-16,c),
(596,314,l),
(210,292,l),
(196,280,o),
(156,41,o),
(119,-6,c),
(88,-46,o),
(16,-23,o),
(25,42,c),
(33,113,o),
(102,227,o),
(105,303,c),
(106,323,o),
(88,334,o),
(90,358,c),
(92,383,o),
(118,382,o),
(127,405,c),
(144,452,o),
(177,677,o),
(215,689,c),
(352,732,o),
(226,451,o),
(240,396,c)
);
}
);
};
layerId = "15880153-BF49-4651-A558-57743A88E547";
shapes = (
{
closed = 1;
nodes = (
(589,-45,o),
(608,-34,o),
(620,-8,cs),
(630,14,o),
(645,65,o),
(668,152,cs),
(710,309,o),
(743,463,o),
(768,597,cs),
(778,657,o),
(749,680,o),
(722,680,cs),
(668,679,o),
(666,622,o),
(644,528,cs),
(602,349,o),
(568,182,o),
(528,10,cs),
(521,-19,o),
(537,-45,o),
(571,-45,cs)
);
},
{
closed = 1;
nodes = (
(148,-15,o),
(151,42,o),
(174,136,cs),
(218,309,o),
(253,471,o),
(295,637,cs),
(303,666,o),
(287,692,o),
(253,693,cs),
(235,693,o),
(216,682,o),
(204,656,cs),
(193,635,o),
(177,584,o),
(153,497,cs),
(109,346,o),
(76,198,o),
(49,69,cs),
(38,9,o),
(67,-14,o),
(94,-15,cs)
);
},
{
closed = 1;
nodes = (
(319,298,o),
(571,301,o),
(750,325,cs),
(789,330,o),
(817,344,o),
(818,372,cs),
(820,411,o),
(784,417,o),
(749,417,cs),
(603,417,o),
(274,406,o),
(141,393,cs),
(107,390,o),
(79,377,o),
(75,342,cs),
(72,305,o),
(102,289,o),
(160,291,cs)
);
}
);
width = 819;
}
);
unicode = 72;
},
{
color = 6;
glyphname = I;
kernLeft = I;
kernRight = I;
lastChange = "2025-10-29 14:39:49 +0000";
layers = (
{
layerId = "15880153-BF49-4651-A558-57743A88E547";
shapes = (
{
closed = 1;
nodes = (
(96,-14,o),
(115,-3,o),
(127,24,cs),
(136,46,o),
(150,97,o),
(172,184,cs),
(208,331,o),
(235,476,o),
(256,601,cs),
(265,661,o),
(236,684,o),
(209,683,cs),
(155,681,o),
(154,624,o),
(133,530,cs),
(96,360,o),
(69,203,o),
(34,40,cs),
(28,11,o),
(44,-15,o),
(78,-14,cs)
);
}
);
width = 279;
}
);
unicode = 73;
},
{
color = 6;
glyphname = J;
kernLeft = J;
kernRight = U;
lastChange = "2025-10-29 14:39:49 +0000";
layers = (
{
layerId = "15880153-BF49-4651-A558-57743A88E547";
shapes = (
{
closed = 1;
nodes = (
(341,-12,o),
(429,99,o),
(511,311,cs),
(553,420,o),
(569,518,o),
(574,621,cs),
(576,663,o),
(561,683,o),
(532,684,cs),
(504,685,o),
(476,664,o),
(473,633,cs),
(463,540,o),
(448,439,o),
(410,326,cs),
(354,160,o),
(276,94,o),
(199,94,cs),
(145,94,o),
(109,122,o),
(80,178,cs),
(65,208,o),
(47,216,o),
(23,209,cs),
(2,201,o),
(-11,178,o),
(-2,148,cs),
(17,66,o),
(74,-12,o),
(168,-12,cs)
);
}
);
width = 557;
}
);
metricRight = U;
unicode = 74;
},
{
color = 6;
glyphname = K;
kernLeft = I;
kernRight = K;
lastChange = "2025-10-29 14:39:49 +0000";
layers = (
{
background = {
shapes = (
{
closed = 1;
nodes = (
(251,411,o),
(245,425,o),
(251,431,c),
(341,511,o),
(424,600,o),
(509,682,c),
(576,709,o),
(613,685,o),
(588,622,c),
(367,393,l),
(402,295,o),
(512,161,o),
(534,65,c),
(550,-8,o),
(491,-34,o),
(434,19,c),
(294,316,l),
(287,320,o),
(194,237,o),
(187,223,c),
(161,170,o),
(161,43,o),
(126,2,c),
(103,-25,o),
(52,-29,o),
(34,2,c),
(2,59,o),
(167,574,o),
(167,674,c),
(328,754,o),
(234,486,o),
(225,418,c)
);
}
);
};
layerId = "15880153-BF49-4651-A558-57743A88E547";
shapes = (
{
closed = 1;
nodes = (
(314,340,o),
(456,477,o),
(606,605,cs),
(630,626,o),
(632,650,o),
(621,668,cs),
(603,694,o),
(566,704,o),
(532,676,cs),
(393,559,o),
(248,422,o),
(115,295,c),
(170,205,l)
);
},
{
closed = 1;
nodes = (
(96,-14,o),
(115,-3,o),
(127,24,cs),
(136,46,o),
(150,97,o),
(172,184,cs),
(208,331,o),
(235,476,o),
(256,601,cs),
(265,661,o),
(236,684,o),
(209,683,cs),
(155,681,o),
(154,624,o),
(133,530,cs),
(96,360,o),
(69,203,o),
(34,40,cs),
(28,11,o),
(44,-15,o),
(78,-14,cs)
);
},
{
closed = 1;
nodes = (
(560,0,o),
(579,30,o),
(558,66,cs),
(494,179,o),
(431,307,o),
(368,432,c),
(289,352,l),
(354,226,o),
(432,73,o),
(468,22,cs),
(495,-14,o),
(513,-19,o),
(535,-10,cs)
);
}
);
width = 620;
}
);
metricLeft = I;
unicode = 75;
},
{
color = 6;
glyphname = L;
kernLeft = E;
kernRight = L;
lastChange = "2025-10-29 14:39:49 +0000";
layers = (
{
layerId = "15880153-BF49-4651-A558-57743A88E547";
shapes = (
{
closed = 1;
nodes = (
(231,-17,o),
(355,1,o),
(446,4,cs),
(504,6,o),
(533,24,o),
(527,60,cs),
(521,95,o),
(492,106,o),
(458,107,cs),
(394,109,o),
(287,97,o),
(177,92,c),
(191,186,ls),
(213,335,o),
(234,482,o),
(246,608,cs),
(251,668,o),
(220,689,o),
(194,687,cs),
(140,681,o),
(143,624,o),
(128,529,cs),
(103,356,o),
(87,198,o),
(64,33,cs),
(60,4,o),
(78,-18,o),
(111,-18,cs)
);
}
);
width = 576;
}
);
metricLeft = E;
metricRight = E;
unicode = 76;
},
{
color = 6;
glyphname = M;
kernLeft = M;
kernRight = M;
lastChange = "2025-10-29 14:39:49 +0000";
layers = (
{
layerId = "15880153-BF49-4651-A558-57743A88E547";
shapes = (
{
closed = 1;
nodes = (
(749,-3,o),
(776,18,o),
(774,59,cs),
(765,245,o),
(781,469,o),
(759,647,cs),
(754,684,o),
(736,701,o),
(709,701,cs),
(687,701,o),
(666,687,o),
(648,658,cs),
(566,527,o),
(491,396,o),
(415,270,c),
(431,266,l),
(419,392,o),
(403,530,o),
(389,647,cs),
(384,684,o),
(366,701,o),
(339,701,cs),
(317,701,o),
(296,687,o),
(278,658,cs),
(156,465,o),
(64,258,o),
(-27,70,cs),
(-41,41,o),
(-37,17,o),
(-21,3,cs),
(3,-18,o),
(43,-18,o),
(62,22,cs),
(133,175,o),
(233,369,o),
(309,510,c),
(294,511,l),
(307,420,o),
(330,229,o),
(340,153,cs),
(343,133,o),
(352,104,o),
(375,95,cs),
(400,85,o),
(425,88,o),
(445,120,cs),
(521,244,o),
(612,398,o),
(679,510,c),
(664,511,l),
(668,394,o),
(672,128,o),
(677,53,cs),
(680,8,o),
(698,-3,o),
(722,-3,cs)
);
}
);
width = 830;
}
);
unicode = 77;
},
{
color = 6;
glyphname = N;
kernLeft = E;
kernRight = I;
lastChange = "2025-10-29 14:39:49 +0000";
layers = (
{
background = {
shapes = (
{
closed = 1;
nodes = (
(591,-20,l),
(549,-49,o),
(507,-24,o),
(481,3,c),
(414,71,o),
(340,250,o),
(279,336,c),
(262,361,o),
(251,389,o),
(239,414,c),
(219,415,o),
(217,391,o),
(215,381,c),
(189,275,o),
(193,136,o),
(153,35,c),
(140,1,o),
(125,-23,o),
(69,-11,c),
(23,-1,o),
(32,47,o),
(34,75,c),
(42,201,o),
(84,383,o),
(113,510,c),
(121,547,o),
(130,646,o),
(175,660,c),
(196,667,o),
(227,663,o),
(240,649,c),
(277,608,o),
(308,513,o),
(339,464,c),
(396,374,o),
(431,286,o),
(498,201,c),
(613,646,l),
(622,683,o),
(696,684,o),
(716,656,c)
);
}
);
};
layerId = "15880153-BF49-4651-A558-57743A88E547";
shapes = (
{
closed = 1;
nodes = (
(554,-14,o),
(573,-3,o),
(585,24,cs),
(594,46,o),
(608,97,o),
(630,184,cs),
(666,331,o),
(693,476,o),
(714,601,cs),
(723,661,o),
(694,684,o),
(667,683,cs),
(613,681,o),
(612,624,o),
(591,530,cs),
(562,398,o),
(540,277,o),
(515,152,c),
(454,261,o),
(394,372,o),
(325,489,cs),
(276,571,o),
(258,626,o),
(206,610,cs),
(181,604,o),
(160,572,o),
(187,518,cs),
(245,406,o),
(316,276,o),
(395,148,cs),
(444,71,o),
(472,28,o),
(487,9,cs),
(502,-7,o),
(514,-14,o),
(536,-14,cs)
);
},
{
closed = 1;
nodes = (
(154,-13,o),
(152,44,o),
(168,139,cs),
(196,311,o),
(215,469,o),
(241,633,cs),
(246,663,o),
(229,688,o),
(195,685,cs),
(177,684,o),
(158,672,o),
(148,645,cs),
(140,622,o),
(129,570,o),
(111,482,cs),
(83,334,o),
(64,188,o),
(49,62,cs),
(43,1,o),
(73,-20,o),
(100,-18,cs)
);
}
);
width = 737;
}
);
metricLeft = E;
metricRight = I;
unicode = 78;
},
{
color = 6;
glyphname = O;
kernLeft = O;
kernRight = O;
lastChange = "2025-10-29 14:39:49 +0000";
layers = (
{
background = {
shapes = (
{
closed = 1;
nodes = (
(367,572,o),
(278,474,o),
(262,455,c),
(189,366,o),
(86,199,o),
(199,109,c),
(371,-25,o),
(616,262,o),
(515,433,c),
(487,483,o),
(415,510,o),
(391,558,c)
);
},
{
closed = 1;
nodes = (
(553,692,o),
(491,617,o),
(506,589,c),
(514,574,o),
(569,542,o),
(586,522,c),
(697,404,o),
(673,241,o),
(579,121,c),
(374,-145,o),
(-45,-17,o),
(39,294,c),
(76,431,o),
(260,681,o),
(448,688,c)
);
}
);
};
layerId = "15880153-BF49-4651-A558-57743A88E547";
shapes = (
{
closed = 1;
nodes = (
(502,-23,o),
(662,143,o),
(662,343,cs),
(662,460,o),
(582,572,o),
(437,622,c),
(361,554,l),
(479,513,o),
(552,428,o),
(552,340,cs),
(552,182,o),
(429,80,o),
(319,80,cs),
(201,80,o),
(150,149,o),
(150,234,cs),
(150,344,o),
(250,457,o),
(404,565,cs),
(461,605,o),
(498,621,o),
(499,659,cs),
(500,680,o),
(485,697,o),
(458,699,cs),
(427,702,o),
(395,685,o),
(357,659,cs),
(166,529,o),
(40,358,o),
(40,216,cs),
(40,81,o),
(150,-23,o),
(315,-23,cs)
);
}
);
width = 693;
}
);
unicode = 79;
},
{
color = 6;
glyphname = P;
kernLeft = I;
kernRight = P;
lastChange = "2025-10-29 14:39:49 +0000";
layers = (
{
layerId = "15880153-BF49-4651-A558-57743A88E547";
shapes = (
{
closed = 1;
nodes = (
(439,242,o),
(631,382,o),
(631,506,cs),
(631,611,o),
(539,674,o),
(443,683,cs),
(359,691,o),
(288,676,o),
(204,637,c),
(184,529,l),
(240,554,o),
(311,586,o),
(385,582,cs),
(479,578,o),
(509,533,o),
(509,484,cs),
(509,420,o),
(378,325,o),
(180,316,c),
(162,210,l)
);
},
{
closed = 1;
nodes = (
(96,-14,o),
(115,-3,o),
(127,24,cs),
(136,46,o),
(150,97,o),
(172,184,cs),
(208,331,o),
(235,476,o),
(256,601,cs),
(265,661,o),
(236,684,o),
(209,683,cs),
(155,681,o),
(154,624,o),
(133,530,cs),
(96,360,o),
(69,203,o),
(34,40,cs),
(28,11,o),
(44,-15,o),
(78,-14,cs)
);
}
);
width = 602;
}
);
unicode = 80;
},
{
color = 6;
glyphname = Q;
kernLeft = O;
kernRight = O;
lastChange = "2025-10-29 14:39:49 +0000";
layers = (
{
layerId = "15880153-BF49-4651-A558-57743A88E547";
shapes = (
{
closed = 1;
nodes = (
(504,-23,o),
(664,143,o),
(664,343,cs),
(664,468,o),
(588,587,o),
(449,662,c),
(373,594,l),
(485,528,o),
(554,436,o),
(554,340,cs),
(554,182,o),
(431,80,o),
(321,80,cs),
(203,80,o),
(152,149,o),
(152,234,cs),
(152,344,o),
(234,466,o),
(376,565,cs),
(433,605,o),
(470,621,o),
(471,659,cs),
(472,680,o),
(457,697,o),
(430,699,cs),
(399,702,o),
(367,685,o),
(329,659,cs),
(150,537,o),
(42,358,o),
(42,216,cs),
(42,81,o),
(152,-23,o),
(317,-23,cs)
);
},
{
closed = 1;
nodes = (
(646,-84,o),
(626,-55,o),
(605,-26,cs),
(552,47,o),
(448,182,o),
(396,244,cs),
(374,270,o),
(344,281,o),
(314,262,cs),
(284,240,o),
(293,209,o),
(329,164,cs),
(389,89,o),
(463,-10,o),
(535,-86,cs),
(562,-114,o),
(592,-125,o),
(615,-108,cs)
);
}
);
width = 695;
}
);
metricLeft = O;
unicode = 81;
},
{
color = 6;
glyphname = R;
kernLeft = I;
kernRight = R;
lastChange = "2025-10-29 14:39:49 +0000";
layers = (
{
background = {
shapes = (
{
closed = 1;
nodes = (
(235,382,l),
(250,371,o),
(629,477,o),
(458,568,c),
(402,598,o),
(322,593,o),
(266,568,c)
);
},
{
closed = 1;
nodes = (
(562,-22,o),
(519,-11,o),
(493,7,c),
(436,45,o),
(291,277,o),
(256,283,c),
(207,268,l),
(179,218,o),
(170,41,o),
(130,7,c),
(108,-12,o),
(53,-15,o),
(26,2,c),
(13,21,l),
(160,658,l),
(193,689,o),
(240,662,o),
(278,664,c),
(313,667,o),
(353,682,o),
(388,684,c),
(477,683,o),
(582,635,o),
(617,578,c),
(697,446,o),
(522,370,o),
(387,311,c),
(385,291,o),
(584,106,o),
(602,56,c),
(609,38,o),
(611,14,o),
(592,0,c)
);
}
);
};
layerId = "15880153-BF49-4651-A558-57743A88E547";
shapes = (
{
closed = 1;
nodes = (
(445,290,o),
(634,420,o),
(634,536,cs),
(634,623,o),
(540,674,o),
(443,683,cs),
(359,691,o),
(288,676,o),
(204,637,c),
(184,529,l),
(240,554,o),
(311,586,o),
(385,582,cs),
(481,578,o),
(512,548,o),
(512,514,cs),
(512,458,o),
(384,374,o),
(190,366,c),
(172,260,l)
);
},
{
closed = 1;
nodes = (
(96,-14,o),
(115,-3,o),
(127,24,cs),
(136,46,o),
(150,97,o),
(172,184,cs),
(208,331,o),
(235,476,o),
(256,601,cs),
(265,661,o),
(236,684,o),
(209,683,cs),
(155,681,o),
(154,624,o),
(133,530,cs),
(96,360,o),
(69,203,o),
(34,40,cs),
(28,11,o),
(44,-15,o),
(78,-14,cs)
);
},
{
closed = 1;
nodes = (
(622,3,o),
(615,38,o),
(579,82,cs),
(516,153,o),
(436,252,o),
(354,347,c),
(251,302,l),
(344,190,o),
(451,65,o),
(510,4,cs),
(533,-21,o),
(561,-35,o),
(590,-17,cs)
);
}
);
width = 628;
}
);
metricLeft = I;
unicode = 82;
},
{
color = 6;
glyphname = S;
kernLeft = S;
kernRight = S;
lastChange = "2025-10-29 14:39:49 +0000";
layers = (
{
layerId = "15880153-BF49-4651-A558-57743A88E547";
shapes = (
{
closed = 1;
nodes = (
(459,-24,o),
(530,59,o),
(530,187,cs),
(530,254,o),
(486,319,o),
(367,390,cs),
(237,468,o),
(213,499,o),
(213,541,cs),
(213,579,o),
(258,610,o),
(319,608,cs),
(421,604,o),
(456,497,o),
(512,497,cs),
(535,497,o),
(548,511,o),
(548,537,cs),
(548,615,o),
(448,700,o),
(337,700,cs),
(190,700,o),
(102,616,o),
(102,535,cs),
(102,442,o),
(167,375,o),
(264,321,cs),
(403,244,o),
(428,214,o),
(428,173,cs),
(428,121,o),
(387,81,o),
(299,81,cs),
(230,81,o),
(188,109,o),
(156,151,cs),
(119,199,o),
(110,273,o),
(74,273,cs),
(57,273,o),
(32,258,o),
(31,217,cs),
(31,172,o),
(46,118,o),
(75,78,cs),
(125,8,o),
(196,-24,o),
(287,-24,cs)
);
}
);
width = 575;
}
);
unicode = 83;
},
{
color = 6;
glyphname = T;
kernLeft = T;
kernRight = T;
lastChange = "2025-10-29 14:39:49 +0000";
layers = (
{
background = {
shapes = (
{
closed = 1;
nodes = (
(350,35,l),
(332,-31,o),
(227,-17,o),
(212,46,c),
(312,570,l),
(246,581,o),
(139,544,o),
(87,580,c),
(52,605,o),
(61,641,o),
(101,654,c),
(147,669,o),
(551,687,o),
(609,679,c),
(638,675,o),
(648,662,o),
(657,643,c),
(646,561,o),
(512,605,o),
(437,577,c)
);
}
);
};
layerId = "15880153-BF49-4651-A558-57743A88E547";
shapes = (
{
closed = 1;
nodes = (
(299,-8,o),
(318,4,o),
(328,31,cs),
(336,53,o),
(348,105,o),
(364,194,cs),
(395,353,o),
(418,509,o),
(433,645,cs),
(439,705,o),
(408,726,o),
(382,724,cs),
(328,719,o),
(330,662,o),
(314,567,cs),
(285,386,o),
(263,217,o),
(235,42,cs),
(230,13,o),
(248,-12,o),
(281,-10,cs)
);
},
{
closed = 1;
nodes = (
(264,556,o),
(451,566,o),
(585,581,cs),
(624,585,o),
(652,602,o),
(653,632,cs),
(655,671,o),
(619,677,o),
(584,677,cs),
(474,677,o),
(226,663,o),
(126,653,cs),
(92,650,o),
(64,637,o),
(60,602,cs),
(57,565,o),
(87,549,o),
(145,551,cs)
);
}
);
width = 586;
}
);
unicode = 84;
},
{
color = 6;
glyphname = U;
kernLeft = U;
kernRight = U;
lastChange = "2025-10-29 14:39:49 +0000";
layers = (
{
background = {
shapes = (
{
closed = 1;
nodes = (
(277,88,o),
(309,94,o),
(331,105,c),
(402,141,o),
(512,375,o),
(535,437,c),
(554,489,o),
(568,622,o),
(594,656,c),
(629,703,o),
(723,703,o),
(734,651,c),
(741,618,o),
(715,531,o),
(704,493,c),
(674,385,o),
(565,138,o),
(445,54,c),
(367,0,o),
(227,-31,o),
(142,17,c),
(-23,112,o),
(107,515,o),
(147,661,c),
(174,684,o),
(239,696,o),
(264,672,c),
(295,642,o),
(212,336,o),
(213,265,c),
(213,206,o),
(224,142,o),
(251,87,c)
);
}
);
};
layerId = "15880153-BF49-4651-A558-57743A88E547";
shapes = (
{
closed = 1;
nodes = (
(446,-12,o),
(533,99,o),
(615,311,cs),
(657,420,o),
(673,518,o),
(678,621,cs),
(680,663,o),
(665,683,o),
(636,684,cs),
(608,685,o),
(583,664,o),
(577,633,cs),
(558,540,o),
(552,439,o),
(514,326,cs),
(458,160,o),
(373,96,o),
(292,96,cs),
(221,96,o),
(165,162,o),
(176,322,cs),
(183,427,o),
(216,524,o),
(248,632,cs),
(255,655,o),
(237,679,o),
(211,681,cs),
(186,685,o),
(165,671,o),
(154,643,cs),
(112,538,o),
(77,426,o),
(71,311,cs),
(59,102,o),
(123,-12,o),
(273,-12,cs)
);
}
);
width = 661;
}
);
unicode = 85;
},
{
color = 6;
glyphname = V;
kernLeft = V;
kernRight = V;
lastChange = "2025-10-29 14:39:49 +0000";
layers = (
{
layerId = "15880153-BF49-4651-A558-57743A88E547";
shapes = (
{
closed = 1;
nodes = (
(232,-18,o),
(253,-4,o),
(271,25,cs),
(397,224,o),
(513,424,o),
(644,616,cs),
(662,642,o),
(657,666,o),
(641,681,cs),
(617,701,o),
(579,701,o),
(554,664,cs),
(443,505,o),
(326,311,o),
(238,168,c),
(257,154,l),
(245,262,o),
(221,551,o),
(203,631,cs),
(192,675,o),
(177,686,o),
(153,686,cs),
(126,686,o),
(97,665,o),
(102,624,cs),
(128,437,o),
(138,216,o),
(160,36,cs),
(165,-1,o),
(183,-18,o),
(210,-18,cs)
);
}
);
width = 604;
}
);
unicode = 86;
},
{
color = 6;
glyphname = W;
kernLeft = V;
kernRight = V;
lastChange = "2025-10-29 14:39:49 +0000";
layers = (
{
layerId = "15880153-BF49-4651-A558-57743A88E547";
shapes = (
{
closed = 1;
nodes = (
(212,-18,o),
(233,-4,o),
(251,25,cs),
(352,186,o),
(435,354,o),
(524,513,c),
(508,517,l),
(517,358,o),
(522,183,o),
(540,36,cs),
(545,-1,o),
(563,-18,o),
(590,-18,cs),
(612,-18,o),
(633,-4,o),
(651,25,cs),
(774,220,o),
(870,427,o),
(984,615,cs),
(1001,642,o),
(996,666,o),
(980,680,cs),
(956,701,o),
(917,701,o),
(894,663,cs),
(801,510,o),
(699,314,o),
(620,173,c),
(635,172,l),
(625,289,o),
(609,554,o),
(599,630,cs),
(596,650,o),
(587,679,o),
(564,688,cs),
(539,698,o),
(514,695,o),
(494,663,cs),
(401,510,o),
(299,314,o),
(220,173,c),
(235,172,l),
(225,289,o),
(209,554,o),
(199,630,cs),
(193,675,o),
(177,686,o),
(153,686,cs),
(126,686,o),
(98,665,o),
(101,624,cs),
(116,437,o),
(118,216,o),
(140,36,cs),
(145,-1,o),
(163,-18,o),
(190,-18,cs)
);
}
);
width = 944;
}
);
metricLeft = V;
metricRight = V;
unicode = 87;
},
{
color = 6;
glyphname = X;
kernLeft = X;
kernRight = X;
lastChange = "2025-10-29 14:39:49 +0000";
layers = (
{
layerId = "15880153-BF49-4651-A558-57743A88E547";
shapes = (
{
closed = 1;
nodes = (
(482,-11,o),
(502,-1,o),
(509,22,cs),
(518,56,o),
(505,83,o),
(454,190,cs),
(330,447,o),
(294,535,o),
(240,649,cs),
(228,675,o),
(206,686,o),
(186,683,cs),
(153,679,o),
(131,651,o),
(151,600,cs),
(201,472,o),
(284,290,o),
(324,198,cs),
(349,143,o),
(380,84,o),
(408,35,cs),
(427,-1,o),
(444,-11,o),
(463,-11,cs)
);
},
{
closed = 1;
nodes = (
(7,-9,o),
(16,-6,o),
(33,7,cs),
(72,34,o),
(361,363,o),
(467,479,cs),
(496,511,o),
(579,604,o),
(583,646,cs),
(584,669,o),
(572,683,o),
(553,685,cs),
(534,688,o),
(515,682,o),
(485,651,cs),
(358,521,o),
(218,362,o),
(91,214,cs),
(66,184,o),
(10,124,o),
(-22,81,cs),
(-56,34,o),
(-45,-8,o),
(-3,-9,cs)
);
}
);
width = 558;
}
);
unicode = 88;
},
{
color = 6;
glyphname = Y;
kernLeft = V;
kernRight = V;
lastChange = "2025-10-29 14:39:49 +0000";
layers = (
{
layerId = "15880153-BF49-4651-A558-57743A88E547";
shapes = (
{
closed = 1;
nodes = (
(434,381,o),
(522,474,o),
(645,616,cs),
(665,639,o),
(658,666,o),
(642,681,cs),
(618,701,o),
(587,696,o),
(555,664,cs),
(447,553,o),
(359,456,o),
(269,358,c),
(288,344,l),
(269,409,o),
(233,543,o),
(204,631,cs),
(190,674,o),
(178,686,o),
(154,686,cs),
(127,686,o),
(95,664,o),
(103,624,cs),
(129,500,o),
(180,363,o),
(211,246,c),
(301,245,l)
);
},
{
closed = 1;
nodes = (
(259,-15,o),
(262,42,o),
(285,136,cs),
(300,197,o),
(315,256,o),
(329,315,c),
(215,314,l),
(194,228,o),
(176,145,o),
(160,69,cs),
(149,9,o),
(178,-14,o),
(205,-15,cs)
);
}
);
width = 607;
}
);
metricLeft = V;
metricRight = V;
unicode = 89;
},
{
color = 6;
glyphname = Z;
kernLeft = Z;
kernRight = Z;
lastChange = "2025-10-29 14:39:49 +0000";
layers = (
{
layerId = "15880153-BF49-4651-A558-57743A88E547";
shapes = (
{
closed = 1;
nodes = (
(152,-9,o),
(419,-2,o),
(492,14,cs),
(520,20,o),
(539,46,o),
(536,73,cs),
(533,102,o),
(513,119,o),
(471,115,cs),
(411,111,o),
(248,104,o),
(149,100,c),
(139,75,l),
(579,540,ls),
(618,573,o),
(637,599,o),
(637,640,cs),
(637,670,o),
(614,694,o),
(584,694,cs),
(561,694,o),
(550,686,o),
(540,678,c),
(421,675,o),
(264,671,o),
(187,664,cs),
(148,661,o),
(132,628,o),
(134,607,cs),
(137,583,o),
(158,565,o),
(195,566,cs),
(281,568,o),
(385,574,o),
(489,579,c),
(482,600,l),
(327,438,o),
(183,282,o),
(17,115,cs),
(-14,84,o),
(-32,63,o),
(-29,36,cs),
(-25,6,o),
(-8,-9,o),
(24,-9,cs)
);
}
);
width = 600;
}
);
unicode = 90;
},
{
color = 6;
glyphname = a;
kernLeft = a;
kernRight = a;
lastChange = "2025-10-29 14:39:49 +0000";
layers = (
{
layerId = "15880153-BF49-4651-A558-57743A88E547";
shapes = (
{
closed = 1;
nodes = (
(530,-11,o),
(586,14,o),
(594,46,cs),
(601,68,o),
(598,90,o),
(579,99,cs),
(560,108,o),
(541,97,o),
(528,97,cs),
(520,97,o),
(512,105,o),
(515,125,cs),
(547,326,o),
(605,403,o),
(605,475,cs),
(605,497,o),
(590,517,o),
(560,517,cs),
(534,517,o),
(514,506,o),
(482,455,cs),
(422,363,o),
(367,274,o),
(295,196,cs),
(223,116,o),
(192,97,o),
(158,97,cs),
(129,97,o),
(115,116,o),
(115,156,cs),
(115,264,o),
(208,421,o),
(297,421,cs),
(336,421,o),
(348,407,o),
(376,404,cs),
(401,400,o),
(420,415,o),
(420,440,cs),
(420,484,o),
(371,517,o),
(300,517,cs),
(137,517,o),
(7,305,o),
(7,131,cs),
(7,53,o),
(42,-10,o),
(136,-10,cs),
(275,-10,o),
(377,108,o),
(484,305,c),
(470,298,l),
(429,208,o),
(411,157,o),
(411,62,cs),
(411,19,o),
(436,-11,o),
(475,-11,cs)
);
}
);
width = 644;
}
);
unicode = 97;
},
{
color = 6;
glyphname = b;
kernLeft = b;
kernRight = b;
lastChange = "2025-10-29 14:39:49 +0000";
layers = (
{
layerId = "15880153-BF49-4651-A558-57743A88E547";
shapes = (
{
closed = 1;
nodes = (
(363,-19,o),
(557,221,o),
(557,396,cs),
(557,473,o),
(517,528,o),
(430,528,cs),
(373,528,o),
(295,500,o),
(161,415,c),
(144,300,l),
(295,391,o),
(354,420,o),
(412,420,cs),
(434,420,o),
(449,411,o),
(449,387,cs),
(449,361,o),
(440,338,o),
(425,307,cs),
(396,247,o),
(281,92,o),
(193,89,cs),
(164,88,o),
(148,109,o),
(148,150,cs),
(148,208,o),
(167,292,o),
(208,441,cs),
(233,531,o),
(287,733,o),
(283,777,cs),
(280,808,o),
(262,820,o),
(242,820,cs),
(222,820,o),
(199,810,o),
(184,758,cs),
(125,559,o),
(36,286,o),
(33,158,cs),
(31,34,o),
(99,-18,o),
(182,-18,cs)
);
}
);
width = 577;
}
);
unicode = 98;
},
{
color = 6;
glyphname = c;
kernLeft = c;
kernRight = c;
lastChange = "2025-10-29 14:39:49 +0000";
layers = (
{
layerId = "15880153-BF49-4651-A558-57743A88E547";
shapes = (
{
closed = 1;
nodes = (
(284,-8,o),
(401,50,o),
(401,122,cs),
(401,137,o),
(392,162,o),
(363,163,cs),
(333,163,o),
(294,123,o),
(277,115,cs),
(253,101,o),
(228,94,o),
(206,94,cs),
(134,94,o),
(123,160,o),
(122,215,cs),
(122,321,o),
(176,426,o),
(285,428,cs),
(339,429,o),
(364,396,o),
(391,396,cs),
(418,396,o),
(435,417,o),
(435,440,cs),
(436,494,o),
(340,526,o),
(260,526,cs),
(110,522,o),
(23,359,o),
(23,214,cs),
(23,96,o),
(79,-8,o),
(203,-8,cs)
);
}
);
width = 441;
}
);
unicode = 99;
},
{
color = 6;
glyphname = d;
kernLeft = a;
kernRight = d;
lastChange = "2025-10-29 14:39:49 +0000";
layers = (
{
background = {
shapes = (
{
closed = 1;
nodes = (
(418,93,o),
(555,156,o),
(521,45,c),
(500,-24,o),
(323,-10,o),
(316,78,c),
(243,11,o),
(160,-40,o),
(65,19,c),
(-93,118,o),
(52,416,o),
(202,466,c),
(234,476,o),
(325,499,o),
(340,456,c),
(366,380,o),
(300,400,o),
(252,385,c),
(200,369,o),
(168,329,o),
(141,284,c),
(35,105,o),
(146,9,o),
(269,187,c),
(376,342,o),
(408,547,o),
(510,704,c),
(569,715,o),
(593,691,o),
(582,632,c),
(561,522,o),
(456,364,o),
(425,242,c),
(413,193,o),
(408,150,o),
(412,99,c)
);
}
);
};
layerId = "15880153-BF49-4651-A558-57743A88E547";
shapes = (
{
closed = 1;
nodes = (
(508,-11,o),
(552,14,o),
(561,46,cs),
(568,68,o),
(564,90,o),
(546,99,cs),
(527,108,o),
(514,97,o),
(495,97,cs),
(445,97,o),
(447,197,o),
(493,328,cs),
(569,541,o),
(643,663,o),
(643,732,cs),
(643,751,o),
(627,770,o),
(599,770,cs),
(567,770,o),
(541,734,o),
(523,689,cs),
(421,432,o),
(360,286,o),
(287,196,cs),
(231,128,o),
(192,97,o),
(154,97,cs),
(132,97,o),
(117,118,o),
(117,156,cs),
(117,270,o),
(219,409,o),
(331,436,cs),
(373,446,o),
(393,463,o),
(390,491,cs),
(386,516,o),
(365,529,o),
(312,527,cs),
(134,519,o),
(9,311,o),
(9,131,cs),
(9,58,o),
(52,-10,o),
(134,-10,cs),
(236,-10,o),
(317,61,o),
(395,200,c),
(374,211,l),
(364,173,o),
(360,135,o),
(359,97,cs),
(359,18,o),
(401,-11,o),
(463,-11,cs)
);
}
);
width = 611;
}
);
metricLeft = a;
metricRight = a;
unicode = 100;
},
{
color = 6;
glyphname = e;
kernLeft = o;
kernRight = e;
lastChange = "2025-10-29 14:39:49 +0000";
layers = (
{
background = {
shapes = (
{
pos = (1,0);
ref = o;
}
);
};
layerId = "15880153-BF49-4651-A558-57743A88E547";
shapes = (
{
closed = 1;
nodes = (
(297,-12,o),
(397,28,o),
(469,113,cs),
(497,145,o),
(483,187,o),
(452,195,cs),
(426,201,o),
(404,189,o),
(389,175,cs),
(322,116,o),
(289,97,o),
(224,97,cs),
(155,97,o),
(121,126,o),
(122,183,cs),
(122,347,o),
(250,447,o),
(325,447,cs),
(353,446,o),
(366,427,o),
(366,407,cs),
(366,352,o),
(298,291,o),
(206,291,cs),
(167,291,o),
(139,299,o),
(121,310,c),
(114,215,l),
(139,198,o),
(161,192,o),
(204,192,cs),
(319,192,o),
(476,293,o),
(476,410,cs),
(476,505,o),
(426,551,o),
(338,551,cs),
(178,551,o),
(15,360,o),
(15,184,cs),
(15,57,o),
(103,-12,o),
(206,-12,cs)
);
}
);
width = 525;
}
);
metricLeft = o;
unicode = 101;
},
{
color = 6;
glyphname = f;
kernLeft = f;
kernRight = f;
lastChange = "2025-10-29 14:39:49 +0000";
layers = (
{
background = {
shapes = (
{
closed = 1;
nodes = (
(311,415,l),
(342,395,o),
(494,436,o),
(501,359,c),
(502,346,o),
(484,314,o),
(477,314,c),
(289,314,l),
(289,313,o),
(288,312,o),
(288,311,c),
(168,311,l),
(167,316,o),
(163,313,o),
(153,314,c),
(112,320,o),
(29,293,o),
(21,351,c),
(11,429,o),
(129,409,o),
(188,418,c)
);
}
);
};
layerId = "15880153-BF49-4651-A558-57743A88E547";
shapes = (
{
closed = 1;
nodes = (
(1,-263,o),
(19,-252,o),
(53,-226,cs),
(208,-110,o),
(243,128,o),
(292,336,cs),
(325,477,o),
(363,659,o),
(420,686,cs),
(456,703,o),
(496,643,o),
(528,613,cs),
(547,595,o),
(570,598,o),
(585,612,cs),
(644,665,o),
(524,787,o),
(433,793,cs),
(288,803,o),
(241,597,o),
(183,351,cs),
(126,110,o),
(104,30,o),
(66,-41,cs),
(34,-102,o),
(-52,-152,o),
(-65,-207,cs),
(-74,-243,o),
(-56,-263,o),
(-30,-263,cs)
);
},
{
closed = 1;
nodes = (
(191,306,o),
(326,311,o),
(411,314,cs),
(469,317,o),
(498,336,o),
(492,372,cs),
(485,407,o),
(456,417,o),
(421,417,cs),
(348,418,o),
(167,409,o),
(87,402,cs),
(53,399,o),
(17,390,o),
(23,351,cs),
(26,324,o),
(55,312,o),
(95,311,cs)
);
}
);
width = 499;
}
);
unicode = 102;
},
{
color = 6;
glyphname = g;
kernLeft = g;
kernRight = g;
lastChange = "2025-10-29 14:39:49 +0000";
layers = (
{
layerId = "15880153-BF49-4651-A558-57743A88E547";
shapes = (
{
closed = 1;
nodes = (
(323,-375,o),
(406,-57,o),
(493,182,cs),
(557,359,o),
(583,446,o),
(590,494,cs),
(596,544,o),
(576,566,o),
(546,566,cs),
(514,566,o),
(489,529,o),
(470,484,cs),
(409,332,o),
(353,255,o),
(308,199,cs),
(252,131,o),
(213,100,o),
(175,100,cs),
(147,100,o),
(128,121,o),
(128,160,cs),
(128,273,o),
(247,409,o),
(375,439,cs),
(417,449,o),
(437,467,o),
(434,494,cs),
(430,519,o),
(409,533,o),
(356,530,cs),
(171,522,o),
(16,322,o),
(16,130,cs),
(16,60,o),
(63,-6,o),
(155,-6,cs),
(257,-6,o),
(338,64,o),
(430,204,c),
(409,215,l),
(315,-13,o),
(218,-256,o),
(122,-256,cs),
(71,-256,o),
(54,-215,o),
(34,-125,cs),
(22,-76,o),
(-68,-72,o),
(-68,-155,cs),
(-68,-301,o),
(7,-375,o),
(94,-375,cs)
);
}
);
width = 579;
}
);
unicode = 103;
},
{
color = 6;
glyphname = h;
kernLeft = l;
kernRight = n;
lastChange = "2025-10-29 14:39:49 +0000";
layers = (
{
layerId = "15880153-BF49-4651-A558-57743A88E547";
shapes = (
{
closed = 1;
nodes = (
(96,-11,o),
(113,19,o),
(149,82,cs),
(186,148,o),
(241,234,o),
(301,295,cs),
(377,372,o),
(407,392,o),
(436,392,cs),
(449,392,o),
(457,382,o),
(454,362,cs),
(446,288,o),
(373,154,o),
(373,67,cs),
(373,14,o),
(408,-11,o),
(462,-11,cs),
(517,-11,o),
(570,15,o),
(579,47,cs),
(585,70,o),
(581,94,o),
(561,101,cs),
(540,109,o),
(516,97,o),
(506,97,cs),
(498,97,o),
(494,102,o),
(494,113,cs),
(494,175,o),
(567,318,o),
(567,417,cs),
(567,481,o),
(530,523,o),
(469,523,cs),
(383,523,o),
(266,420,o),
(150,258,c),
(168,262,l),
(206,423,o),
(244,575,o),
(280,733,cs),
(287,762,o),
(271,788,o),
(237,788,cs),
(219,788,o),
(200,777,o),
(188,751,cs),
(172,716,o),
(147,636,o),
(111,501,cs),
(70,349,o),
(39,200,o),
(15,71,cs),
(5,11,o),
(33,-13,o),
(59,-12,cs)
);
}
);
width = 623;
}
);
metricLeft = l;
metricRight = n;
unicode = 104;
},
{
color = 6;
glyphname = i;
kernLeft = i;
kernRight = i;
lastChange = "2025-10-29 14:39:49 +0000";
layers = (
{
layerId = "15880153-BF49-4651-A558-57743A88E547";
shapes = (
{
closed = 1;
nodes = (
(82,-12,o),
(99,16,o),
(114,69,cs),
(156,213,o),
(194,360,o),
(223,471,cs),
(232,505,o),
(218,529,o),
(192,535,cs),
(167,541,o),
(145,528,o),
(133,494,cs),
(109,426,o),
(0,97,o),
(2,34,cs),
(3,3,o),
(22,-11,o),
(40,-11,cs)
);
},
{
closed = 1;
nodes = (
(266,623,o),
(305,689,o),
(305,736,cs),
(305,750,o),
(302,763,o),
(294,771,cs),
(248,817,o),
(181,731,o),
(181,666,cs),
(181,635,o),
(204,623,o),
(223,623,cs)
);
}
);
width = 251;
}
);
unicode = 105;
},
{
color = 6;
glyphname = j;
kernLeft = j;
kernRight = j;
lastChange = "2025-10-29 14:39:49 +0000";
layers = (
{
background = {
shapes = (
{
closed = 1;
nodes = (
(260,779,o),
(291,743,o),
(289,716,c),
(285,682,o),
(250,571,o),
(198,588,c),
(172,606,l),
(141,641,o),
(198,763,o),
(233,772,c)
);
}
);
};
layerId = "15880153-BF49-4651-A558-57743A88E547";
shapes = (
{
closed = 1;
nodes = (
(-124,-418,o),
(-68,-400,o),
(-25,-364,cs),
(62,-290,o),
(128,-38,o),
(184,252,cs),
(198,324,o),
(212,406,o),
(212,461,cs),
(212,496,o),
(201,520,o),
(171,521,cs),
(149,522,o),
(128,512,o),
(111,439,cs),
(74,277,o),
(24,-167,o),
(-94,-278,cs),
(-131,-312,o),
(-213,-314,o),
(-213,-369,cs),
(-213,-401,o),
(-194,-418,o),
(-161,-418,cs)
);
},
{
closed = 1;
nodes = (
(231,561,o),
(289,654,o),
(282,718,cs),
(279,749,o),
(255,759,o),
(236,757,cs),
(193,752,o),
(161,682,o),
(166,636,cs),
(168,622,o),
(172,609,o),
(181,602,cs)
);
}
);
width = 269;
}
);
unicode = 106;
},
{
color = 6;
glyphname = k;
kernLeft = k;
kernRight = k;
lastChange = "2025-10-29 14:39:49 +0000";
layers = (
{
background = {
shapes = (
{
pos = (15,0);
ref = l;
}
);
};
layerId = "15880153-BF49-4651-A558-57743A88E547";
shapes = (
{
closed = 1;
nodes = (
(117,1,o),
(167,67,o),
(356,261,cs),
(446,354,o),
(515,427,o),
(584,500,cs),
(593,510,o),
(596,524,o),
(596,534,cs),
(596,559,o),
(579,577,o),
(556,577,cs),
(540,577,o),
(532,570,o),
(518,556,cs),
(409,451,o),
(282,323,o),
(157,192,c),
(175,181,l),
(231,345,o),
(287,496,o),
(345,649,cs),
(359,687,o),
(365,706,o),
(365,723,cs),
(365,749,o),
(348,765,o),
(321,765,cs),
(294,765,o),
(278,748,o),
(260,703,cs),
(178,492,o),
(93,282,o),
(14,70,cs),
(4,41,o),
(12,-6,o),
(57,-3,cs)
);
},
{
closed = 1;
nodes = (
(553,-47,o),
(575,-32,o),
(575,-3,cs),
(575,40,o),
(509,87,o),
(457,164,cs),
(428,208,o),
(407,257,o),
(382,307,c),
(305,233,l),
(341,141,o),
(414,26,o),
(479,-23,cs),
(500,-38,o),
(517,-46,o),
(535,-46,cs)
);
}
);
width = 592;
}
);
unicode = 107;
},
{
color = 6;
glyphname = l;
kernLeft = l;
kernRight = l;
lastChange = "2025-10-29 14:39:49 +0000";
layers = (
{
layerId = "15880153-BF49-4651-A558-57743A88E547";
shapes = (
{
closed = 1;
nodes = (
(115,-11,o),
(117,46,o),
(139,140,cs),
(187,346,o),
(234,535,o),
(280,733,cs),
(287,762,o),
(271,788,o),
(237,788,cs),
(219,788,o),
(200,777,o),
(188,751,cs),
(172,716,o),
(147,636,o),
(111,501,cs),
(70,349,o),
(39,200,o),
(15,71,cs),
(5,11,o),
(34,-12,o),
(61,-12,cs)
);
}
);
width = 252;
}
);
unicode = 108;
},
{
color = 6;
glyphname = m;
kernLeft = n;
kernRight = n;
lastChange = "2025-10-29 14:39:49 +0000";
layers = (
{
layerId = "15880153-BF49-4651-A558-57743A88E547";
shapes = (
{
closed = 1;
nodes = (
(839,-11,o),
(892,15,o),
(901,47,cs),
(907,70,o),
(903,94,o),
(883,101,cs),
(862,109,o),
(838,97,o),
(828,97,cs),
(820,97,o),
(816,102,o),
(816,113,cs),
(816,175,o),
(889,318,o),
(889,417,cs),
(889,481,o),
(852,523,o),
(791,523,cs),
(708,523,o),
(590,411,o),
(489,233,c),
(512,218,l),
(545,321,o),
(558,370,o),
(558,417,cs),
(558,481,o),
(522,523,o),
(461,523,cs),
(380,523,o),
(273,421,o),
(164,261,c),
(180,325,o),
(206,410,o),
(228,479,cs),
(238,508,o),
(227,535,o),
(196,541,cs),
(170,547,o),
(148,537,o),
(135,503,cs),
(95,396,o),
(41,217,o),
(5,80,cs),
(-6,36,o),
(2,8,o),
(26,-2,cs),
(52,-12,o),
(82,-4,o),
(109,33,cs),
(152,94,o),
(243,217,o),
(311,295,cs),
(382,377,o),
(403,392,o),
(428,392,cs),
(441,392,o),
(450,380,o),
(447,360,cs),
(438,279,o),
(368,133,o),
(368,37,cs),
(368,6,o),
(381,-8,o),
(404,-8,cs),
(436,-8,o),
(451,9,o),
(492,78,cs),
(539,157,o),
(591,238,o),
(641,295,cs),
(712,377,o),
(733,392,o),
(758,392,cs),
(771,392,o),
(780,378,o),
(777,358,cs),
(769,284,o),
(695,154,o),
(695,67,cs),
(695,14,o),
(730,-11,o),
(784,-11,cs)
);
}
);
width = 945;
}
);
metricLeft = n;
metricRight = n;
unicode = 109;
},
{
color = 6;
glyphname = n;
kernLeft = n;
kernRight = n;
lastChange = "2025-10-29 14:39:49 +0000";
layers = (
{
layerId = "15880153-BF49-4651-A558-57743A88E547";
shapes = (
{
closed = 1;
nodes = (
(529,-11,o),
(582,15,o),
(591,47,cs),
(597,70,o),
(593,94,o),
(573,101,cs),
(552,109,o),
(528,97,o),
(518,97,cs),
(510,97,o),
(506,102,o),
(506,113,cs),
(506,175,o),
(579,318,o),
(579,417,cs),
(579,481,o),
(542,523,o),
(481,523,cs),
(395,523,o),
(280,421,o),
(164,261,c),
(180,325,o),
(206,410,o),
(228,479,cs),
(238,508,o),
(227,535,o),
(196,541,cs),
(170,547,o),
(148,537,o),
(135,503,cs),
(95,396,o),
(41,217,o),
(5,80,cs),
(-6,36,o),
(2,8,o),
(26,-2,cs),
(52,-12,o),
(82,-4,o),
(109,33,cs),
(152,95,o),
(240,221,o),
(313,295,cs),
(389,372,o),
(419,392,o),
(448,392,cs),
(461,392,o),
(469,382,o),
(466,362,cs),
(458,288,o),
(385,154,o),
(385,67,cs),
(385,14,o),
(420,-11,o),
(474,-11,cs)
);
}
);
width = 635;
}
);
unicode = 110;
},
{
color = 6;
glyphname = o;
kernLeft = o;
kernRight = o;
lastChange = "2025-10-29 14:39:49 +0000";
layers = (
{
layerId = "15880153-BF49-4651-A558-57743A88E547";
shapes = (
{
closed = 1;
nodes = (
(378,-16,o),
(497,104,o),
(497,248,cs),
(497,350,o),
(429,448,o),
(306,492,c),
(232,426,l),
(328,401,o),
(387,324,o),
(387,245,cs),
(387,149,o),
(311,87,o),
(243,87,cs),
(158,87,o),
(122,136,o),
(122,196,cs),
(122,276,o),
(171,361,o),
(254,433,cs),
(307,479,o),
(343,498,o),
(341,535,cs),
(340,556,o),
(323,571,o),
(296,571,cs),
(265,571,o),
(234,553,o),
(199,523,cs),
(82,425,o),
(13,290,o),
(13,178,cs),
(13,69,o),
(103,-16,o),
(239,-16,cs)
);
}
);
width = 539;
}
);
unicode = 111;
},
{
color = 6;
glyphname = p;
kernLeft = p;
kernRight = p;
lastChange = "2025-10-29 14:39:49 +0000";
layers = (
{
layerId = "15880153-BF49-4651-A558-57743A88E547";
shapes = (
{
closed = 1;
nodes = (
(315,-1,o),
(547,230,o),
(518,432,cs),
(510,481,o),
(481,519,o),
(429,529,cs),
(342,546,o),
(245,502,o),
(171,412,c),
(151,274,l),
(210,342,o),
(285,431,o),
(362,427,cs),
(405,425,o),
(419,398,o),
(419,369,cs),
(419,267,o),
(247,112,o),
(107,101,c),
(89,-15,l)
);
},
{
closed = 1;
nodes = (
(49,-353,o),
(98,-57,o),
(113,9,cs),
(129,78,o),
(209,464,o),
(209,462,cs),
(219,509,o),
(213,532,o),
(187,542,cs),
(167,550,o),
(132,543,o),
(118,487,cs),
(53,234,o),
(0,-41,o),
(-68,-306,cs),
(-80,-354,o),
(-49,-400,o),
(2,-375,cs)
);
}
);
width = 538;
}
);
unicode = 112;
},
{
color = 6;
glyphname = q;
kernLeft = o;
kernRight = q;
lastChange = "2025-10-29 14:39:49 +0000";
layers = (
{
background = {
shapes = (
{
pos = (-4,0);
ref = o;
}
);
};
layerId = "15880153-BF49-4651-A558-57743A88E547";
shapes = (
{
closed = 1;
nodes = (
(259,-414,o),
(283,-401,o),
(295,-362,cs),
(376,-93,o),
(463,185,o),
(551,463,cs),
(571,526,o),
(545,553,o),
(515,553,cs),
(475,553,o),
(446,506,o),
(431,475,c),
(386,506,o),
(338,520,o),
(292,520,cs),
(131,520,o),
(12,322,o),
(12,166,cs),
(12,72,o),
(55,-1,o),
(131,-1,cs),
(191,-1,o),
(282,44,o),
(370,159,c),
(348,161,l),
(291,-4,o),
(241,-164,o),
(195,-333,cs),
(179,-390,o),
(213,-414,o),
(239,-414,cs)
);
},
{
closed = 1;
nodes = (
(126,111,o),
(112,135,o),
(112,182,cs),
(113,268,o),
(189,422,o),
(298,422,cs),
(354,422,o),
(399,387,o),
(428,341,c),
(404,398,l),
(361,288,o),
(239,111,o),
(151,111,cs)
);
}
);
width = 543;
}
);
metricLeft = o;
unicode = 113;
},
{
color = 6;
glyphname = r;
kernLeft = n;
kernRight = r;
lastChange = "2025-10-29 14:39:49 +0000";
layers = (
{
background = {
shapes = (
{
closed = 1;
nodes = (
(216,442,o),
(175,382,o),
(181,347,c),
(214,389,o),
(419,534,o),
(433,428,c),
(442,367,o),
(378,374,o),
(342,354,c),
(271,316,o),
(212,220,o),
(167,152,c),
(142,113,o),
(91,-23,o),
(36,-8,c),
(15,2,o),
(-5,15,o),
(-3,40,c),
(46,163,o),
(62,332,o),
(113,449,c),
(130,487,o),
(152,490,o),
(188,470,c)
);
}
);
};
layerId = "15880153-BF49-4651-A558-57743A88E547";
shapes = (
{
closed = 1;
nodes = (
(52,-13,o),
(82,-5,o),
(109,33,cs),
(153,95,o),
(233,232,o),
(282,288,cs),
(338,352,o),
(388,392,o),
(443,414,cs),
(476,427,o),
(505,446,o),
(505,475,cs),
(505,501,o),
(486,522,o),
(448,522,cs),
(366,522,o),
(278,444,o),
(179,320,c),
(191,366,o),
(211,429,o),
(228,478,cs),
(238,508,o),
(227,534,o),
(196,541,cs),
(170,546,o),
(148,536,o),
(135,502,cs),
(95,396,o),
(41,216,o),
(5,80,cs),
(-6,36,o),
(2,7,o),
(26,-3,cs)
);
}
);
width = 466;
}
);
metricLeft = n;
unicode = 114;
},
{
color = 6;
glyphname = s;
kernLeft = s;
kernRight = s;
lastChange = "2025-10-29 14:39:49 +0000";
layers = (
{
layerId = "15880153-BF49-4651-A558-57743A88E547";
shapes = (
{
closed = 1;
nodes = (
(351,-44,o),
(433,36,o),
(433,149,cs),
(433,194,o),
(419,234,o),
(370,273,cs),
(251,367,o),
(214,393,o),
(214,431,cs),
(214,453,o),
(232,470,o),
(256,469,cs),
(323,466,o),
(346,417,o),
(383,417,cs),
(406,417,o),
(419,431,o),
(419,457,cs),
(419,506,o),
(338,560,o),
(248,560,cs),
(161,560,o),
(105,489,o),
(105,425,cs),
(105,354,o),
(169,301,o),
(268,222,cs),
(316,184,o),
(331,164,o),
(331,135,cs),
(331,93,o),
(300,59,o),
(250,59,cs),
(210,59,o),
(176,72,o),
(145,105,cs),
(102,151,o),
(89,207,o),
(55,207,cs),
(38,207,o),
(13,194,o),
(12,157,cs),
(12,125,o),
(33,90,o),
(56,58,cs),
(104,-9,o),
(162,-44,o),
(241,-44,cs)
);
}
);
width = 492;
}
);
unicode = 115;
},
{
color = 6;
glyphname = t;
kernLeft = t;
kernRight = t;
lastChange = "2025-10-29 14:39:49 +0000";
layers = (
{
layerId = "15880153-BF49-4651-A558-57743A88E547";
shapes = (
{
closed = 1;
nodes = (
(323,-15,o),
(506,104,o),
(506,173,cs),
(506,186,o),
(499,203,o),
(483,213,cs),
(464,224,o),
(444,220,o),
(414,197,cs),
(365,160,o),
(287,98,o),
(224,98,cs),
(204,98,o),
(191,108,o),
(191,136,cs),
(191,215,o),
(260,382,o),
(317,521,cs),
(334,564,o),
(350,607,o),
(350,637,cs),
(350,663,o),
(337,679,o),
(315,682,cs),
(284,687,o),
(266,673,o),
(248,637,cs),
(184,516,o),
(83,259,o),
(83,129,cs),
(83,52,o),
(110,-9,o),
(199,-12,cs)
);
},
{
closed = 1;
nodes = (
(173,338,o),
(308,345,o),
(404,358,cs),
(443,363,o),
(471,377,o),
(472,405,cs),
(474,444,o),
(438,450,o),
(403,450,cs),
(323,450,o),
(142,443,o),
(69,436,cs),
(35,433,o),
(7,420,o),
(3,385,cs),
(0,348,o),
(30,332,o),
(88,334,cs)
);
}
);
width = 548;
}
);
unicode = 116;
},
{
color = 6;
glyphname = u;
kernLeft = y;
kernRight = a;
lastChange = "2025-10-29 14:39:49 +0000";
layers = (
{
background = {
shapes = (
{
pos = (-56,0);
ref = a;
}
);
};
layerId = "15880153-BF49-4651-A558-57743A88E547";
shapes = (
{
closed = 1;
nodes = (
(474,-11,o),
(530,14,o),
(538,46,cs),
(545,68,o),
(542,90,o),
(523,99,cs),
(504,108,o),
(485,97,o),
(472,97,cs),
(464,97,o),
(456,105,o),
(459,125,cs),
(491,326,o),
(549,403,o),
(549,475,cs),
(549,497,o),
(534,517,o),
(504,517,cs),
(478,517,o),
(458,506,o),
(426,455,cs),
(365,362,o),
(318,287,o),
(264,210,cs),
(196,113,o),
(170,97,o),
(142,97,cs),
(117,97,o),
(98,124,o),
(110,177,cs),
(131,272,o),
(163,361,o),
(191,456,cs),
(197,478,o),
(185,502,o),
(162,507,cs),
(138,513,o),
(114,501,o),
(102,474,cs),
(58,372,o),
(27,266,o),
(8,154,cs),
(-11,43,o),
(33,-10,o),
(120,-10,cs),
(243,-10,o),
(333,108,o),
(428,305,c),
(414,298,l),
(373,208,o),
(355,137,o),
(355,62,cs),
(355,19,o),
(380,-11,o),
(419,-11,cs)
);
}
);
width = 588;
}
);
metricLeft = y;
metricRight = a;
unicode = 117;
},
{
color = 6;
glyphname = v;
kernLeft = v;
kernRight = v;
lastChange = "2025-10-29 14:39:49 +0000";
layers = (
{
layerId = "15880153-BF49-4651-A558-57743A88E547";
shapes = (
{
closed = 1;
nodes = (
(168,-18,o),
(189,-4,o),
(207,25,cs),
(303,176,o),
(400,323,o),
(500,469,cs),
(518,495,o),
(513,519,o),
(497,534,cs),
(473,554,o),
(435,554,o),
(410,517,cs),
(330,402,o),
(238,266,o),
(172,164,c),
(191,150,l),
(179,226,o),
(152,429,o),
(139,486,cs),
(128,530,o),
(113,541,o),
(89,541,cs),
(62,541,o),
(33,520,o),
(38,479,cs),
(58,337,o),
(79,172,o),
(96,36,cs),
(101,-1,o),
(119,-18,o),
(146,-18,cs)
);
}
);
width = 489;
}
);
unicode = 118;
},
{
color = 6;
glyphname = w;
kernLeft = v;
kernRight = v;
lastChange = "2025-10-29 14:39:49 +0000";
layers = (
{
layerId = "15880153-BF49-4651-A558-57743A88E547";
shapes = (
{
closed = 1;
nodes = (
(154,-23,o),
(188,-7,o),
(212,35,cs),
(390,365,l),
(366,357,l),
(377,242,o),
(389,135,o),
(400,42,cs),
(407,-3,o),
(425,-23,o),
(452,-23,cs),
(474,-23,o),
(509,-7,o),
(533,35,cs),
(600,157,o),
(683,313,o),
(770,468,cs),
(785,495,o),
(779,519,o),
(761,532,cs),
(736,550,o),
(698,547,o),
(676,507,cs),
(609,393,o),
(534,257,o),
(478,152,c),
(496,152,l),
(485,233,o),
(466,413,o),
(456,481,cs),
(451,519,o),
(438,533,o),
(419,539,cs),
(400,544,o),
(375,539,o),
(357,507,cs),
(290,393,o),
(215,257,o),
(159,152,c),
(177,152,l),
(166,233,o),
(147,415,o),
(137,481,cs),
(131,526,o),
(111,536,o),
(87,536,cs),
(60,536,o),
(33,515,o),
(36,474,cs),
(51,310,o),
(66,167,o),
(81,42,cs),
(88,-3,o),
(106,-23,o),
(133,-23,cs)
);
}
);
width = 757;
}
);
metricLeft = v;
metricRight = v;
unicode = 119;
},
{
color = 6;
glyphname = x;
kernLeft = x;
kernRight = x;
lastChange = "2025-10-29 14:39:49 +0000";
layers = (
{
background = {
shapes = (
{
closed = 1;
nodes = (
(304,286,l),
(304,285,o),
(303,284,o),
(303,283,c),
(303,250,o),
(418,101,o),
(429,58,cs),
(430,53,o),
(431,46,o),
(431,40,cs),
(431,24,o),
(427,6,o),
(418,-3,cs),
(408,-13,o),
(399,-17,o),
(389,-17,cs),
(326,-17,o),
(265,167,o),
(234,196,c),
(233,196,o),
(232,196,o),
(231,195,c)
);
},
{
closed = 1;
nodes = (
(175,301,l),
(165,345,o),
(89,434,o),
(89,484,cs),
(89,497,o),
(94,508,o),
(107,514,cs),
(116,518,o),
(124,520,o),
(131,520,cs),
(184,520,o),
(206,421,o),
(244,389,c)
);
},
{
closed = 1;
nodes = (
(231,195,l),
(205,180,o),
(104,12,o),
(73,-6,cs),
(61,-13,o),
(49,-16,o),
(39,-16,cs),
(16,-16,o),
(-2,0,o),
(-3,31,cs),
(-6,81,o),
(151,237,o),
(176,294,c),
(176,296,o),
(176,298,o),
(175,301,c),
(244,389,l),
(244,388,o),
(245,388,o),
(245,388,c),
(370,524,l),
(379,525,o),
(387,526,o),
(395,526,cs),
(429,526,o),
(442,514,o),
(442,497,cs),
(442,445,o),
(325,335,o),
(304,286,c)
);
}
);
};
layerId = "15880153-BF49-4651-A558-57743A88E547";
shapes = (
{
closed = 1;
nodes = (
(401,-11,o),
(421,-1,o),
(426,22,cs),
(433,56,o),
(420,83,o),
(359,190,cs),
(251,379,ls),
(247,387,o),
(210,463,o),
(193,489,cs),
(177,514,o),
(157,526,o),
(137,523,cs),
(104,519,o),
(86,492,o),
(108,440,cs),
(140,363,o),
(201,253,o),
(229,198,cs),
(258,143,o),
(293,84,o),
(324,35,cs),
(346,-1,o),
(363,-11,o),
(382,-11,cs)
);
},
{
closed = 1;
nodes = (
(40,-16,o),
(49,-12,o),
(66,1,cs),
(85,14,o),
(156,106,o),
(162,113,cs),
(301,286,ls),
(333,327,o),
(439,438,o),
(441,487,cs),
(442,510,o),
(429,523,o),
(410,525,cs),
(391,527,o),
(372,520,o),
(343,488,cs),
(290,430,o),
(230,360,o),
(177,294,cs),
(139,244,o),
(56,144,o),
(8,73,cs),
(-24,25,o),
(-12,-16,o),
(30,-16,cs)
);
}
);
width = 486;
}
);
unicode = 120;
},
{
color = 6;
glyphname = y;
kernLeft = y;
kernRight = g;
lastChange = "2025-10-29 14:39:49 +0000";
layers = (
{
background = {
shapes = (
{
closed = 1;
nodes = (
(194,64,o),
(435,450,o),
(448,489,c),
(527,528,o),
(539,479,o),
(528,410,c),
(504,256,o),
(371,-144,o),
(267,-254,c),
(106,-425,o),
(-78,-236,o),
(13,-52,c),
(154,3,o),
(52,-229,o),
(142,-215,c),
(218,-204,o),
(318,41,o),
(331,112,c),
(273,50,o),
(130,-59,o),
(61,49,c),
(11,130,o),
(94,375,o),
(138,459,c),
(149,480,o),
(160,514,o),
(188,516,c),
(213,518,o),
(232,502,o),
(235,477,c),
(245,416,o),
(118,150,o),
(150,112,c)
);
}
);
};
layerId = "15880153-BF49-4651-A558-57743A88E547";
shapes = (
{
closed = 1;
nodes = (
(288,-365,o),
(371,-47,o),
(458,192,cs),
(513,345,o),
(534,421,o),
(540,463,cs),
(546,513,o),
(526,535,o),
(496,535,cs),
(464,535,o),
(439,498,o),
(420,453,cs),
(367,322,o),
(321,251,o),
(282,202,cs),
(230,138,o),
(192,110,o),
(160,110,cs),
(134,110,o),
(116,132,o),
(126,177,cs),
(147,272,o),
(179,361,o),
(207,456,cs),
(213,478,o),
(201,502,o),
(178,507,cs),
(154,513,o),
(130,501,o),
(118,474,cs),
(74,372,o),
(43,266,o),
(24,154,cs),
(7,52,o),
(50,4,o),
(140,4,cs),
(234,4,o),
(310,74,o),
(395,214,c),
(374,225,l),
(280,-3,o),
(183,-246,o),
(87,-246,cs),
(47,-246,o),
(36,-204,o),
(20,-119,cs),
(10,-66,o),
(-83,-62,o),
(-83,-145,cs),
(-83,-291,o),
(-17,-365,o),
(59,-365,cs)
);
}
);
width = 538;
}
);
metricRight = g;
unicode = 121;
},
{
color = 6;
glyphname = z;
kernLeft = z;
kernRight = z;
lastChange = "2025-10-29 14:39:49 +0000";
layers = (
{
layerId = "15880153-BF49-4651-A558-57743A88E547";
shapes = (
{
closed = 1;
nodes = (
(167,-9,o),
(415,19,o),
(485,34,cs),
(513,40,o),
(532,66,o),
(529,93,cs),
(526,122,o),
(506,139,o),
(464,135,cs),
(409,131,o),
(262,110,o),
(172,100,c),
(162,75,l),
(522,390,ls),
(561,423,o),
(580,449,o),
(580,490,cs),
(580,520,o),
(557,544,o),
(527,544,cs),
(504,544,o),
(493,536,o),
(483,528,c),
(379,528,o),
(242,518,o),
(174,508,cs),
(139,503,o),
(125,476,o),
(127,457,cs),
(130,433,o),
(151,412,o),
(188,416,cs),
(261,423,o),
(346,428,o),
(432,429,c),
(425,450,l),
(297,337,o),
(168,225,o),
(40,112,cs),
(8,84,o),
(-9,62,o),
(-6,36,cs),
(-2,6,o),
(15,-9,o),
(47,-9,cs)
);
}
);
width = 599;
}
);
unicode = 122;
},
{
color = 6;
glyphname = "alef-hb";
kernLeft = "vav-hb";
kernRight = "alef-hb";
lastChange = "2025-10-29 14:39:49 +0000";
layers = (
{
anchors = (
{
name = bottom;
pos = (210,0);
},
{
name = center;
pos = (404,187);
},
{
name = top;
pos = (457,462);
},
{
name = topleft;
pos = (50,550);
}
);
layerId = "15880153-BF49-4651-A558-57743A88E547";
shapes = (
{
closed = 1;
nodes = (
(0,-78,o),
(41,-77,o),
(57,-4,cs),
(73,70,o),
(248,478,o),
(270,525,cs),
(292,572,o),
(277,612,o),
(256,619,cs),
(222,630,o),
(189,613,o),
(162,575,cs),
(130,529,o),
(-26,119,o),
(-42,46,cs),
(-58,-27,o),
(-49,-66,o),
(-25,-72,cs)
);
},
{
closed = 1;
nodes = (
(387,-24,o),
(423,3,o),
(423,36,cs),
(423,66,o),
(296,65,o),
(296,160,cs),
(296,255,o),
(441,315,o),
(502,336,cs),
(556,355,o),
(571,398,o),
(550,428,cs),
(531,456,o),
(494,453,o),
(461,444,cs),
(428,435,o),
(193,339,o),
(180,164,cs),
(171,41,o),
(292,-14,o),
(339,-19,cs)
);
}
);
width = 537;
}
);
unicode = 1488;
},
{
color = 6;
glyphname = "bet-hb";
kernLeft = "bet-hb";
kernRight = "bet-hb";
lastChange = "2025-10-29 14:39:49 +0000";
layers = (
{
anchors = (
{
name = bottom;
pos = (312,33);
},
{
name = bottomleft;
pos = (-59,0);
},
{
name = center;
pos = (331,245);
},
{
name = top;
pos = (381,480);
},
{
name = topleft;
pos = (75,462);
}
);
layerId = "15880153-BF49-4651-A558-57743A88E547";
shapes = (
{
closed = 1;
nodes = (
(20,-108,o),
(57,-111,o),
(77,-71,cs),
(97,-31,o),
(194,107,o),
(194,107,c),
(149,114,l),
(149,114,o),
(200,33,o),
(300,27,cs),
(424,19,o),
(611,143,o),
(617,266,cs),
(623,390,o),
(491,474,o),
(381,480,cs),
(261,487,o),
(116,443,o),
(78,420,cs),
(41,398,o),
(23,370,o),
(44,340,cs),
(62,315,o),
(94,317,o),
(133,321,cs),
(200,328,o),
(276,368,o),
(365,368,cs),
(425,368,o),
(491,334,o),
(497,274,cs),
(504,203,o),
(378,124,o),
(312,126,cs),
(239,128,o),
(227,217,o),
(170,211,cs),
(111,205,o),
(24,46,o),
(-8,-4,cs),
(-39,-53,o),
(-24,-91,o),
(-4,-99,cs)
);
}
);
width = 642;
}
);
unicode = 1489;
},
{
color = 6;
glyphname = "gimel-hb";
kernLeft = "gimel-hb";
kernRight = "gimel-hb";
lastChange = "2025-10-29 14:39:49 +0000";
layers = (
{
anchors = (
{
name = bottom;
pos = (158,-113);
},
{
name = bottomleft;
pos = (-59,0);
},
{
name = center;
pos = (311,150);
},
{
name = top;
pos = (404,514);
},
{
name = topleft;
pos = (49,521);
}
);
layerId = "15880153-BF49-4651-A558-57743A88E547";
shapes = (
{
closed = 1;
nodes = (
(203,-148,o),
(191,-106,o),
(163,-86,cs),
(109,-47,o),
(65,-2,o),
(65,67,cs),
(65,168,o),
(244,299,o),
(448,328,c),
(401,399,l),
(401,399,o),
(319,411,o),
(279,511,cs),
(254,574,o),
(209,607,o),
(170,582,cs),
(134,559,o),
(140,521,o),
(151,485,cs),
(183,379,o),
(318,288,o),
(404,288,cs),
(490,288,o),
(526,337,o),
(526,369,cs),
(526,401,o),
(483,427,o),
(412,427,cs),
(340,427,o),
(-23,327,o),
(-47,85,cs),
(-56,-5,o),
(-6,-88,o),
(72,-148,cs),
(107,-175,o),
(152,-189,o),
(173,-172,cs)
);
}
);
width = 513;
}
);
unicode = 1490;
},
{
color = 6;
glyphname = "dalet-hb";
kernLeft = "dalet-hb";
kernRight = "dalet-hb";
lastChange = "2025-10-29 14:39:49 +0000";
layers = (
{
anchors = (
{
name = bottom;
pos = (235,-22);
},
{
name = bottomleft;
pos = (-59,0);
},
{
name = center;
pos = (232,427);
},
{
name = top;
pos = (369,605);
},
{
name = topleft;
pos = (17,548);
}
);
layerId = "15880153-BF49-4651-A558-57743A88E547";
shapes = (
{
closed = 1;
nodes = (
(354,43,o),
(381,50,o),
(392,154,cs),
(405,284,o),
(346,290,o),
(326,290,c),
(323,280,l),
(346,280,o),
(543,338,o),
(558,481,cs),
(569,586,o),
(481,637,o),
(389,647,cs),
(298,656,o),
(147,625,o),
(100,587,cs),
(83,573,o),
(60,536,o),
(82,507,cs),
(105,480,o),
(184,491,o),
(226,509,cs),
(267,526,o),
(342,544,o),
(404,538,cs),
(465,531,o),
(468,486,o),
(439,455,cs),
(409,422,o),
(308,359,o),
(229,335,cs),
(229,335,o),
(29,351,o),
(40,269,cs),
(53,186,o),
(149,235,o),
(212,228,cs),
(274,221,o),
(290,199,o),
(286,161,cs),
(282,121,o),
(269,95,o),
(240,40,cs),
(211,-14,o),
(293,-41,o),
(325,3,cs)
);
}
);
width = 519;
}
);
unicode = 1491;
},
{
color = 6;
glyphname = "he-hb";
kernLeft = "he-hb";
kernRight = "he-hb";
lastChange = "2025-10-29 14:39:49 +0000";
layers = (
{
anchors = (
{
name = bottom;
pos = (211,0);
},
{
name = bottomleft;
pos = (-57,0);
},
{
name = center;
pos = (399,338);
},
{
name = top;
pos = (407,550);
},
{
name = topleft;
pos = (23,533);
}
);
layerId = "15880153-BF49-4651-A558-57743A88E547";
shapes = (
{
closed = 1;
nodes = (
(502,65,o),
(705,248,o),
(633,429,cs),
(564,603,o),
(279,630,o),
(89,512,cs),
(47,486,o),
(32,454,o),
(48,429,cs),
(68,398,o),
(105,404,o),
(141,420,cs),
(346,511,o),
(532,477,o),
(540,370,cs),
(548,260,o),
(408,150,o),
(352,99,cs),
(321,71,o),
(295,39,o),
(308,10,cs),
(324,-27,o),
(370,-15,o),
(403,5,cs)
);
},
{
closed = 1;
nodes = (
(54,-26,o),
(85,-4,o),
(109,15,cs),
(163,57,o),
(214,147,o),
(233,214,cs),
(248,267,o),
(235,295,o),
(209,307,c),
(182,321,o),
(134,307,o),
(126,272,cs),
(107,190,o),
(80,137,o),
(31,95,cs),
(-22,50,o),
(0,4,o),
(29,-12,cs)
);
}
);
width = 659;
}
);
unicode = 1492;
},
{
color = 6;
glyphname = "vav-hb";
kernLeft = "vav-hb";
kernRight = "vav-hb";
lastChange = "2025-10-29 14:39:49 +0000";
layers = (
{
anchors = (
{
name = bottom;
pos = (-1,-6);
},
{
name = bottomleft;
pos = (-59,0);
},
{
name = center;
pos = (19,368);
},
{
name = top;
pos = (216,621);
},
{
name = topleft;
pos = (214,574);
}
);
layerId = "15880153-BF49-4651-A558-57743A88E547";
shapes = (
{
closed = 1;
nodes = (
(5,-24,o),
(29,-22,o),
(59,25,cs),
(89,72,o),
(216,358,o),
(257,493,cs),
(278,563,o),
(272,610,o),
(232,621,cs),
(176,636,o),
(151,590,o),
(127,507,cs),
(70,310,o),
(-14,110,o),
(-23,80,cs),
(-37,33,o),
(-42,-6,o),
(-21,-14,cs)
);
}
);
width = 233;
}
);
unicode = 1493;
},
{
color = 6;
glyphname = "zayin-hb";
kernLeft = "zayin-hb";
kernRight = "zayin-hb";
lastChange = "2025-10-29 14:39:49 +0000";
layers = (
{
anchors = (
{
name = bottom;
pos = (192,-37);
},
{
name = bottomleft;
pos = (-59,0);
},
{
name = center;
pos = (212,198);
},
{
name = top;
pos = (350,658);
},
{
name = topleft;
pos = (47,528);
}
);
layerId = "15880153-BF49-4651-A558-57743A88E547";
shapes = (
{
closed = 1;
nodes = (
(248,-37,o),
(513,100,o),
(513,297,cs),
(513,528,o),
(234,451,o),
(180,418,c),
(212,403,l),
(212,403,o),
(373,560,o),
(403,589,cs),
(443,628,o),
(447,682,o),
(413,704,cs),
(380,726,o),
(338,718,o),
(306,677,cs),
(274,636,o),
(78,403,o),
(58,383,cs),
(21,346,o),
(54,271,o),
(115,282,cs),
(153,289,o),
(317,385,o),
(381,341,cs),
(445,297,o),
(366,183,o),
(274,122,cs),
(199,72,o),
(78,8,o),
(-12,-1,cs),
(-31,-3,o),
(-83,7,o),
(-90,-30,cs),
(-100,-83,o),
(0,-127,o),
(119,-84,cs)
);
}
);
width = 541;
}
);
unicode = 1494;
},
{
color = 6;
glyphname = "het-hb";
kernLeft = "het-hb";
kernRight = "het-hb";
lastChange = "2025-10-29 14:39:49 +0000";
layers = (
{
anchors = (
{
name = bottom;
pos = (190,23);
},
{
name = bottomleft;
pos = (-59,0);
},
{
name = center;
pos = (329,275);
},
{
name = top;
pos = (408,550);
},
{
name = topleft;
pos = (47,507);
}
);
layerId = "15880153-BF49-4651-A558-57743A88E547";
shapes = (
{
closed = 1;
nodes = (
(438,-65,o),
(599,192,o),
(641,305,cs),
(683,419,o),
(612,517,o),
(520,542,cs),
(429,567,o),
(187,498,o),
(141,477,cs),
(95,456,o),
(31,409,o),
(47,367,cs),
(59,335,o),
(96,327,o),
(128,341,cs),
(164,357,o),
(362,450,o),
(477,430,cs),
(592,410,o),
(466,227,o),
(427,176,cs),
(381,115,o),
(271,23,o),
(345,-16,cs)
);
},
{
closed = 1;
nodes = (
(28,-2,o),
(54,22,o),
(87,68,cs),
(129,126,o),
(308,482,o),
(337,547,cs),
(361,600,o),
(361,636,o),
(326,652,cs),
(292,668,o),
(253,635,o),
(224,569,cs),
(193,499,o),
(17,154,o),
(-10,106,cs),
(-38,56,o),
(-29,22,o),
(-5,12,cs)
);
}
);
width = 658;
}
);
unicode = 1495;
},
{
color = 6;
glyphname = "tet-hb";
kernLeft = "tet-hb";
kernRight = "tet-hb";
lastChange = "2025-10-29 14:39:49 +0000";
layers = (
{
anchors = (
{
name = bottom;
pos = (255,5);
},
{
name = bottomleft;
pos = (-59,0);
},
{
name = center;
pos = (282,275);
},
{
name = top;
pos = (361,550);
},
{
name = topleft;
pos = (72,550);
}
);
layerId = "15880153-BF49-4651-A558-57743A88E547";
shapes = (
{
closed = 1;
nodes = (
(414,-21,o),
(507,167,o),
(519,241,cs),
(528,297,o),
(507,344,o),
(462,344,cs),
(439,344,o),
(406,327,o),
(396,279,cs),
(377,189,o),
(330,96,o),
(246,96,cs),
(196,96,o),
(154,138,o),
(154,186,cs),
(154,505,o),
(450,633,o),
(637,659,cs),
(680,665,o),
(718,682,o),
(713,723,cs),
(706,772,o),
(645,772,o),
(567,761,cs),
(336,729,o),
(31,517,o),
(31,193,cs),
(31,62,o),
(132,-21,o),
(244,-21,cs)
);
}
);
width = 563;
}
);
unicode = 1496;
},
{
color = 6;
glyphname = "yod-hb";
kernLeft = "yod-hb";
kernRight = "yod-hb";
lastChange = "2025-10-29 14:39:49 +0000";
layers = (
{
anchors = (
{
name = bottom;
pos = (31,0);
},
{
name = bottomleft;
pos = (-49,0);
},
{
name = center;
pos = (11,404);
},
{
name = top;
pos = (189,550);
},
{
name = topleft;
pos = (109,550);
}
);
layerId = "15880153-BF49-4651-A558-57743A88E547";
shapes = (
{
closed = 1;
nodes = (
(141,199,o),
(196,394,o),
(215,447,cs),
(233,498,o),
(235,541,o),
(188,557,cs),
(155,568,o),
(120,540,o),
(106,491,cs),
(78,392,o),
(-2,253,o),
(62,229,cs)
);
}
);
width = 207;
}
);
unicode = 1497;
},
{
color = 6;
glyphname = "finalkaf-hb";
kernLeft = "finalkaf-hb";
kernRight = "finalkaf-hb";
lastChange = "2025-10-29 14:39:49 +0000";
layers = (
{
anchors = (
{
name = bottom;
pos = (90,169);
},
{
name = bottomleft;
pos = (-8,0);
},
{
name = center;
pos = (179,290);
},
{
name = top;
pos = (345,550);
},
{
name = topleft;
pos = (45,550);
}
);
layerId = "15880153-BF49-4651-A558-57743A88E547";
shapes = (
{
closed = 1;
nodes = (
(5,-378,o),
(37,-379,o),
(75,-336,cs),
(176,-221,o),
(319,17,o),
(382,118,cs),
(479,273,o),
(513,565,o),
(259,598,cs),
(138,610,o),
(66,586,o),
(77,520,cs),
(83,483,o),
(118,474,o),
(164,481,cs),
(275,499,o),
(339,443,o),
(339,360,cs),
(339,258,o),
(267,145,o),
(221,70,cs),
(194,26,o),
(79,-169,o),
(0,-280,cs),
(-40,-336,o),
(-14,-363,o),
(-5,-370,cs)
);
}
);
width = 481;
}
);
unicode = 1498;
},
{
color = 6;
glyphname = "kaf-hb";
kernLeft = "kaf-hb";
kernRight = "kaf-hb";
lastChange = "2025-10-29 14:39:49 +0000";
layers = (
{
anchors = (
{
name = bottom;
pos = (219,0);
},
{
name = bottomleft;
pos = (-59,0);
},
{
name = center;
pos = (220,275);
},
{
name = top;
pos = (307,570);
},
{
name = topleft;
pos = (46,550);
}
);
layerId = "15880153-BF49-4651-A558-57743A88E547";
shapes = (
{
closed = 1;
nodes = (
(219,-50,o),
(475,-30,o),
(556,255,cs),
(616,467,o),
(401,629,o),
(167,570,cs),
(123,559,o),
(92,538,o),
(95,502,cs),
(99,454,o),
(148,458,o),
(265,460,cs),
(381,462,o),
(479,400,o),
(442,268,cs),
(402,127,o),
(242,51,o),
(107,104,cs),
(61,122,o),
(-3,149,o),
(-16,109,cs),
(-28,73,o),
(9,17,o),
(87,-8,cs)
);
}
);
width = 596;
}
);
unicode = 1499;
},
{
color = 6;
glyphname = "lamed-hb";
kernLeft = "lamed-hb";
kernRight = "lamed-hb";
lastChange = "2025-10-29 14:39:49 +0000";
layers = (
{
anchors = (
{
name = bottom;
pos = (18,0);
},
{
name = bottomleft;
pos = (-59,0);
},
{
name = center;
pos = (34,331);
},
{
name = top;
pos = (212,550);
},
{
name = topleft;
pos = (37,550);
}
);
layerId = "15880153-BF49-4651-A558-57743A88E547";
shapes = (
{
closed = 1;
nodes = (
(75,-17,o),
(157,-3,o),
(200,208,cs),
(231,359,o),
(315,811,o),
(526,805,cs),
(591,803,o),
(650,720,o),
(696,760,cs),
(712,774,o),
(707,816,o),
(662,853,cs),
(623,885,o),
(559,904,o),
(509,902,cs),
(373,897,o),
(257,804,o),
(189,595,cs),
(121,386,o),
(89,241,o),
(76,122,c),
(138,238,l),
(138,238,o),
(-26,247,o),
(-43,98,cs),
(-50,37,o),
(-27,-8,o),
(27,-13,cs)
);
}
);
width = 265;
}
);
unicode = 1500;
},
{
color = 6;
glyphname = "lamed-hb.ss01";
kernLeft = "lamed-hb";
kernRight = "lamed-hb";
lastChange = "2025-10-29 14:39:49 +0000";
layers = (
{
anchors = (
{
name = bottom;
pos = (37,-13);
},
{
name = bottomleft;
pos = (-59,0);
},
{
name = center;
pos = (34,331);
},
{
name = top;
pos = (212,550);
},
{
name = topleft;
pos = (37,550);
}
);
layerId = "15880153-BF49-4651-A558-57743A88E547";
shapes = (
{
closed = 1;
nodes = (
(75,-17,o),
(157,-3,o),
(200,208,cs),
(231,359,o),
(354,958,o),
(474,958,cs),
(510,958,o),
(529,888,o),
(571,888,cs),
(618,888,o),
(627,922,o),
(621,944,cs),
(609,988,o),
(540,1058,o),
(470,1058,cs),
(334,1058,o),
(257,864,o),
(189,625,cs),
(129,413,o),
(89,241,o),
(76,122,c),
(138,238,l),
(138,238,o),
(-26,247,o),
(-43,98,cs),
(-50,37,o),
(-27,-8,o),
(27,-13,cs)
);
}
);
width = 265;
}
);
metricLeft = "lamed-hb";
},
{
color = 6;
glyphname = "finalmem-hb";
kernLeft = "finalmem-hb";
kernRight = "finalmem-hb";
lastChange = "2025-10-29 14:39:49 +0000";
layers = (
{
anchors = (
{
name = bottom;
pos = (205,0);
},
{
name = bottomleft;
pos = (-59,0);
},
{
name = center;
pos = (284,275);
},
{
name = top;
pos = (363,550);
},
{
name = topleft;
pos = (99,550);
}
);
layerId = "15880153-BF49-4651-A558-57743A88E547";
shapes = (
{
closed = 1;
nodes = (
(50,-14,o),
(142,211,o),
(165,284,c),
(113,311,l),
(103,302,l),
(102,300,l),
(102,299,o),
(190,80,o),
(344,80,cs),
(456,80,o),
(540,175,o),
(540,299,cs),
(540,435,o),
(443,521,o),
(371,530,cs),
(272,542,o),
(176,480,o),
(149,453,cs),
(123,427,o),
(114,387,o),
(131,360,cs),
(143,341,o),
(182,336,o),
(199,352,c),
(206,360,o),
(277,430,o),
(348,425,cs),
(379,423,o),
(434,382,o),
(433,315,cs),
(432,243,o),
(393,186,o),
(348,191,cs),
(269,200,o),
(214,296,o),
(186,345,cs),
(161,389,o),
(142,404,o),
(114,404,cs),
(87,404,o),
(72,390,o),
(62,355,cs),
(21,213,o),
(-54,27,o),
(-54,-10,cs),
(-54,-52,o),
(-8,-69,o),
(24,-39,cs)
);
}
);
width = 568;
}
);
unicode = 1501;
},
{
color = 6;
glyphname = "mem-hb";
kernLeft = "mem-hb";
kernRight = "mem-hb";
lastChange = "2025-10-29 14:39:49 +0000";
layers = (
{
anchors = (
{
name = bottom;
pos = (112,0);
},
{
name = bottomleft;
pos = (-62,0);
},
{
name = center;
pos = (271,448);
},
{
name = top;
pos = (301,550);
},
{
name = topleft;
pos = (35,457);
}
);
layerId = "15880153-BF49-4651-A558-57743A88E547";
shapes = (
{
closed = 1;
nodes = (
(244,-17,o),
(280,7,o),
(300,64,cs),
(355,220,o),
(440,374,o),
(492,500,cs),
(516,558,o),
(520,601,o),
(479,622,cs),
(444,640,o),
(415,617,o),
(391,573,cs),
(367,529,o),
(203,166,o),
(203,124,cs),
(203,81,o),
(229,107,o),
(212,242,cs),
(195,376,o),
(225,442,o),
(164,458,cs),
(130,467,o),
(114,438,o),
(83,363,cs),
(57,299,o),
(23,210,o),
(-15,136,cs),
(-53,62,o),
(-69,21,o),
(-30,1,cs),
(-1,-14,o),
(24,6,o),
(47,36,cs),
(90,93,o),
(129,190,o),
(136,217,cs),
(147,258,o),
(110,248,o),
(133,135,cs),
(150,53,o),
(179,9,o),
(212,-4,cs)
);
}
);
width = 453;
}
);
unicode = 1502;
},
{
color = 6;
glyphname = "finalnun-hb";
kernLeft = "finalnun-hb";
kernRight = "finalnun-hb";
lastChange = "2025-10-29 14:39:49 +0000";
layers = (
{
anchors = (
{
name = bottom;
pos = (31,0);
},
{
name = bottomleft;
pos = (-59,0);
},
{
name = center;
pos = (110,275);
},
{
name = top;
pos = (189,550);
},
{
name = topleft;
pos = (99,550);
}
);
layerId = "15880153-BF49-4651-A558-57743A88E547";
shapes = (
{
closed = 1;
nodes = (
(-122,-366,o),
(-103,-341,o),
(-69,-287,cs),
(-35,-232,o),
(134,151,o),
(243,480,cs),
(267,551,o),
(275,619,o),
(231,632,cs),
(166,652,o),
(125,524,o),
(114,482,cs),
(57,269,o),
(-105,-152,o),
(-141,-206,cs),
(-181,-266,o),
(-183,-342,o),
(-153,-354,cs)
);
}
);
width = 220;
}
);
unicode = 1503;
},
{
color = 6;
glyphname = "nun-hb";
kernLeft = "nun-hb";
kernRight = "nun-hb";
lastChange = "2025-10-29 14:39:49 +0000";
layers = (
{
anchors = (
{
name = bottom;
pos = (57,-149);
},
{
name = bottomleft;
pos = (-59,0);
},
{
name = center;
pos = (-13,275);
},
{
name = top;
pos = (197,550);
},
{
name = topleft;
pos = (30,550);
}
);
layerId = "15880153-BF49-4651-A558-57743A88E547";
shapes = (
{
closed = 1;
nodes = (
(36,-348,o),
(170,207,o),
(204,370,cs),
(220,448,o),
(261,538,o),
(202,558,cs),
(142,579,o),
(108,522,o),
(97,455,cs),
(-13,-197,o),
(-252,-213,o),
(-380,-204,cs),
(-418,-201,o),
(-475,-197,o),
(-479,-232,cs),
(-484,-278,o),
(-437,-312,o),
(-345,-319,cs)
);
}
);
width = 236;
}
);
unicode = 1504;
},
{
color = 6;
glyphname = "nun-hb.ss01";
kernLeft = "nun-hb.ss01";
kernRight = "nun-hb.ss01";
lastChange = "2025-10-29 14:39:49 +0000";
layers = (
{
anchors = (
{
name = bottom;
pos = (-194,-149);
},
{
name = bottomleft;
pos = (-69,0);
},
{
name = center;
pos = (19,358);
},
{
name = top;
pos = (197,550);
},
{
name = topleft;
pos = (30,550);
}
);
layerId = "15880153-BF49-4651-A558-57743A88E547";
shapes = (
{
closed = 1;
nodes = (
(6,-201,o),
(106,-10,o),
(160,182,cs),
(179,250,o),
(282,580,o),
(200,597,cs),
(119,614,o),
(105,484,o),
(80,363,cs),
(-18,-105,o),
(-147,-66,o),
(-247,-47,cs),
(-285,-40,o),
(-341,-30,o),
(-349,-64,cs),
(-359,-109,o),
(-316,-149,o),
(-215,-165,cs)
);
}
);
width = 236;
}
);
},
{
color = 6;
glyphname = "nun-hb.ss02";
kernLeft = "nun-hb.ss02";
kernRight = "nun-hb.ss02";
lastChange = "2025-10-29 14:39:49 +0000";
layers = (
{
anchors = (
{
name = bottom;
pos = (58,-5);
},
{
name = bottomleft;
pos = (41,0);
},
{
name = center;
pos = (87,364);
},
{
name = top;
pos = (261,550);
},
{
name = topleft;
pos = (96,540);
}
);
layerId = "15880153-BF49-4651-A558-57743A88E547";
shapes = (
{
closed = 1;
nodes = (
(-32,135,o),
(-33,126,o),
(-33,117,cs),
(-33,29,o),
(9,-15,o),
(68,-15,cs),
(121,-15,o),
(179,19,o),
(213,91,cs),
(250,170,o),
(288,292,o),
(303,372,cs),
(318,450,o),
(344,559,o),
(276,573,cs),
(223,584,o),
(204,525,o),
(195,457,cs),
(182,364,o),
(146,203,o),
(126,160,cs),
(106,118,o),
(89,96,o),
(78,96,cs),
(70,96,o),
(66,106,o),
(66,126,cs),
(66,132,o),
(66,139,o),
(67,147,cs),
(71,185,o),
(76,262,o),
(41,267,cs),
(-4,273,o),
(-22,226,o),
(-31,145,cs)
);
}
);
width = 327;
}
);
},
{
color = 6;
glyphname = "samekh-hb";
kernLeft = "samekh-hb";
kernRight = "samekh-hb";
lastChange = "2025-10-29 14:39:49 +0000";
layers = (
{
anchors = (
{
name = bottom;
pos = (204,0);
},
{
name = bottomleft;
pos = (-59,0);
},
{
name = center;
pos = (283,275);
},
{
name = top;
pos = (362,550);
},
{
name = topleft;
pos = (99,496);
}
);
layerId = "15880153-BF49-4651-A558-57743A88E547";
shapes = (
{
closed = 1;
nodes = (
(342,-38,o),
(511,100,o),
(538,348,cs),
(553,487,o),
(462,553,o),
(381,562,cs),
(329,568,o),
(254,562,o),
(208,539,cs),
(176,523,o),
(159,503,o),
(167,467,cs),
(173,440,o),
(202,425,o),
(242,436,cs),
(280,446,o),
(335,466,o),
(364,463,cs),
(396,460,o),
(436,426,o),
(429,362,cs),
(420,281,o),
(353,69,o),
(213,85,cs),
(161,91,o),
(128,160,o),
(137,253,cs),
(146,349,o),
(253,386,o),
(257,421,cs),
(260,450,o),
(249,460,o),
(228,462,cs),
(207,464,o),
(45,435,o),
(24,231,cs),
(5,49,o),
(124,-14,o),
(216,-24,cs)
);
}
);
width = 566;
}
);
unicode = 1505;
},
{
color = 6;
glyphname = "ayin-hb";
kernLeft = "ayin-hb";
kernRight = "ayin-hb";
lastChange = "2025-10-29 14:39:49 +0000";
layers = (
{
anchors = (
{
name = bottom;
pos = (146,-67);
},
{
name = bottomleft;
pos = (-59,0);
},
{
name = center;
pos = (259,275);
},
{
name = top;
pos = (427,550);
},
{
name = topleft;
pos = (18,508);
}
);
layerId = "15880153-BF49-4651-A558-57743A88E547";
shapes = (
{
closed = 1;
nodes = (
(538,16,o),
(331,591,o),
(298,682,cs),
(264,774,o),
(218,756,o),
(191,747,cs),
(117,720,o),
(191,601,o),
(230,497,cs),
(361,145,o),
(240,21,o),
(200,6,cs),
(160,-8,o),
(129,10,o),
(114,58,cs),
(52,254,o),
(264,423,o),
(494,451,cs),
(544,457,o),
(597,466,o),
(579,512,cs),
(568,540,o),
(537,555,o),
(486,553,cs),
(204,542,o),
(-88,287,o),
(12,19,cs),
(54,-94,o),
(168,-118,o),
(249,-89,cs)
);
}
);
width = 518;
}
);
unicode = 1506;
},
{
color = 6;
glyphname = "finalpe-hb";
kernLeft = "finalpe-hb";
kernRight = "finalpe-hb";
lastChange = "2025-10-29 14:39:49 +0000";
layers = (
{
anchors = (
{
name = bottom;
pos = (206,0);
},
{
name = bottomleft;
pos = (71,0);
},
{
name = center;
pos = (190,316);
},
{
name = top;
pos = (364,550);
},
{
name = topleft;
pos = (164,550);
}
);
layerId = "15880153-BF49-4651-A558-57743A88E547";
shapes = (
{
closed = 1;
nodes = (
(250,-17,o),
(341,-3,o),
(375,208,cs),
(416,459,o),
(506,887,o),
(694,887,cs),
(805,887,o),
(743,788,o),
(543,751,cs),
(347,715,o),
(119,625,o),
(63,472,cs),
(48,431,o),
(65,385,o),
(95,377,cs),
(138,366,o),
(163,420,o),
(187,453,cs),
(243,530,o),
(342,602,o),
(555,648,cs),
(746,689,o),
(861,740,o),
(861,874,cs),
(861,953,o),
(816,1002,o),
(709,1002,cs),
(567,1002,o),
(445,912,o),
(374,695,cs),
(306,486,o),
(264,241,o),
(251,122,c),
(313,238,l),
(313,238,o),
(149,247,o),
(132,98,cs),
(125,37,o),
(148,-8,o),
(202,-13,cs)
);
}
);
width = 439;
}
);
unicode = 1507;
},
{
color = 6;
glyphname = "finalpe-hb.ss01";
kernLeft = "finalpe-hb.ss01";
kernRight = "finalpe-hb";
lastChange = "2025-10-29 14:39:49 +0000";
layers = (
{
anchors = (
{
name = bottom;
pos = (228,0);
},
{
name = bottomleft;
pos = (73,0);
},
{
name = center;
pos = (192,316);
},
{
name = top;
pos = (366,550);
},
{
name = topleft;
pos = (166,550);
}
);
layerId = "15880153-BF49-4651-A558-57743A88E547";
shapes = (
{
closed = 1;
nodes = (
(262,-17,o),
(331,-3,o),
(387,208,cs),
(471,525,o),
(557,821,o),
(623,974,cs),
(651,1039,o),
(689,1068,o),
(739,1068,cs),
(850,1068,o),
(808,969,o),
(638,932,cs),
(443,889,o),
(194,836,o),
(100,600,cs),
(85,562,o),
(100,516,o),
(130,508,cs),
(173,497,o),
(201,548,o),
(222,583,cs),
(318,741,o),
(420,775,o),
(630,829,cs),
(789,870,o),
(906,919,o),
(906,1049,cs),
(906,1131,o),
(846,1181,o),
(752,1181,cs),
(621,1181,o),
(519,1092,o),
(449,876,cs),
(381,667,o),
(276,241,o),
(263,122,c),
(325,238,l),
(325,238,o),
(161,247,o),
(144,98,cs),
(137,37,o),
(160,-8,o),
(214,-13,cs)
);
}
);
width = 433;
}
);
metricLeft = "finalpe-hb";
metricRight = "finalpe-hb";
},
{
color = 6;
glyphname = "pe-hb";
kernLeft = "pe-hb";
kernRight = "pe-hb";
lastChange = "2025-10-29 14:39:49 +0000";
layers = (
{
anchors = (
{
name = bottom;
pos = (200,-26);
},
{
name = bottomleft;
pos = (-59,0);
},
{
name = center;
pos = (380,445);
},
{
name = top;
pos = (376,650);
},
{
name = topleft;
pos = (12,512);
}
);
layerId = "15880153-BF49-4651-A558-57743A88E547";
shapes = (
{
closed = 1;
nodes = (
(375,-67,o),
(587,120,o),
(606,348,cs),
(618,496,o),
(539,652,o),
(370,650,cs),
(272,649,o),
(188,629,o),
(124,583,cs),
(67,542,o),
(51,496,o),
(74,472,cs),
(94,451,o),
(130,457,o),
(165,481,cs),
(231,525,o),
(319,552,o),
(387,539,cs),
(446,528,o),
(492,481,o),
(492,384,cs),
(492,159,o),
(277,46,o),
(183,46,cs),
(126,46,o),
(94,73,o),
(94,116,cs),
(94,228,o),
(207,295,o),
(231,271,cs),
(259,243,o),
(151,152,o),
(183,125,cs),
(235,81,o),
(339,187,o),
(349,233,cs),
(371,332,o),
(280,394,o),
(189,378,cs),
(99,362,o),
(-13,250,o),
(-13,126,cs),
(-13,-21,o),
(83,-67,o),
(183,-67,cs)
);
}
);
width = 624;
}
);
unicode = 1508;
},
{
color = 6;
glyphname = "finaltsadi-hb";
kernLeft = "finaltsadi-hb";
kernRight = "finaltsadi-hb";
lastChange = "2025-10-29 14:39:49 +0000";
layers = (
{
anchors = (
{
name = bottom;
pos = (54,0);
},
{
name = bottomleft;
pos = (-59,0);
},
{
name = center;
pos = (133,275);
},
{
name = top;
pos = (307,629);
},
{
name = topleft;
pos = (99,550);
}
);
layerId = "15880153-BF49-4651-A558-57743A88E547";
shapes = (
{
closed = 1;
nodes = (
(75,-17,o),
(159,-3,o),
(200,208,cs),
(228,350,o),
(268,621,o),
(355,783,cs),
(397,863,o),
(457,924,o),
(529,924,cs),
(559,924,o),
(578,904,o),
(578,875,cs),
(578,841,o),
(514,798,o),
(388,761,cs),
(192,703,o),
(104,771,o),
(104,950,cs),
(104,993,o),
(95,1020,o),
(64,1020,cs),
(20,1020,o),
(7,962,o),
(2,920,cs),
(-10,819,o),
(18,572,o),
(370,648,cs),
(550,687,o),
(686,783,o),
(685,891,cs),
(684,983,o),
(632,1032,o),
(533,1032,cs),
(392,1032,o),
(270,942,o),
(199,725,cs),
(131,516,o),
(89,241,o),
(76,122,c),
(138,238,l),
(138,238,o),
(-26,247,o),
(-43,98,cs),
(-50,37,o),
(-27,-8,o),
(27,-13,cs)
);
}
);
width = 265;
}
);
unicode = 1509;
},
{
color = 6;
glyphname = "finaltsadi-hb.ss01";
kernLeft = "finaltsadi-hb";
kernRight = "finaltsadi-hb";
lastChange = "2025-10-29 14:39:49 +0000";
layers = (
{
anchors = (
{
name = bottom;
pos = (47,0);
},
{
name = bottomleft;
pos = (-56,0);
},
{
name = center;
pos = (136,275);
},
{
name = top;
pos = (310,629);
},
{
name = topleft;
pos = (102,550);
}
);
layerId = "15880153-BF49-4651-A558-57743A88E547";
shapes = (
{
closed = 1;
nodes = (
(78,-17,o),
(162,-3,o),
(203,208,cs),
(234,369,o),
(311,794,o),
(438,990,cs),
(478,1051,o),
(538,1102,o),
(582,1102,cs),
(693,1102,o),
(647,1002,o),
(451,946,cs),
(255,890,o),
(157,966,o),
(157,1135,cs),
(157,1178,o),
(148,1205,o),
(117,1205,cs),
(73,1205,o),
(60,1147,o),
(55,1105,cs),
(43,1004,o),
(81,757,o),
(433,833,cs),
(613,872,o),
(737,959,o),
(748,1076,cs),
(757,1172,o),
(710,1222,o),
(582,1217,cs),
(446,1212,o),
(330,1119,o),
(262,910,cs),
(194,701,o),
(92,241,o),
(79,122,c),
(141,238,l),
(141,238,o),
(-23,247,o),
(-40,98,cs),
(-47,37,o),
(-24,-8,o),
(30,-13,cs)
);
}
);
width = 273;
}
);
metricLeft = "finaltsadi-hb";
metricRight = "finaltsadi-hb";
},
{
color = 6;
glyphname = "tsadi-hb";
kernLeft = "tsadi-hb";
kernRight = "tsadi-hb";
lastChange = "2025-10-29 14:39:49 +0000";
layers = (
{
anchors = (
{
name = bottom;
pos = (164,-24);
},
{
name = bottomleft;
pos = (-59,0);
},
{
name = center;
pos = (178,181);
},
{
name = top;
pos = (373,623);
},
{
name = topleft;
pos = (-15,537);
}
);
layerId = "15880153-BF49-4651-A558-57743A88E547";
shapes = (
{
closed = 1;
nodes = (
(313,-24,o),
(455,36,o),
(487,198,cs),
(496,251,o),
(459,356,o),
(373,365,c),
(369,347,l),
(401,347,o),
(512,414,o),
(534,525,cs),
(554,631,o),
(456,709,o),
(341,703,cs),
(226,697,o),
(73,669,o),
(73,591,cs),
(73,559,o),
(102,538,o),
(183,564,cs),
(265,589,o),
(431,597,o),
(436,535,cs),
(440,473,o),
(277,395,o),
(238,393,cs),
(198,391,o),
(164,378,o),
(158,343,cs),
(151,309,o),
(168,287,o),
(246,291,cs),
(322,295,o),
(385,262,o),
(374,203,cs),
(363,146,o),
(283,82,o),
(134,76,cs),
(55,72,o),
(14,117,o),
(-27,82,cs),
(-68,47,o),
(-40,-4,o),
(10,-25,cs),
(29,-33,o),
(71,-47,o),
(164,-38,cs)
);
}
);
width = 536;
}
);
unicode = 1510;
},
{
color = 6;
glyphname = "qof-hb";
kernLeft = "qof-hb";
kernRight = "qof-hb";
lastChange = "2025-10-29 14:39:49 +0000";
layers = (
{
anchors = (
{
name = bottom;
pos = (302,50);
},
{
name = bottomleft;
pos = (-59,0);
},
{
name = center;
pos = (315,362);
},
{
name = top;
pos = (347,550);
},
{
name = topleft;
pos = (33,533);
}
);
layerId = "15880153-BF49-4651-A558-57743A88E547";
shapes = (
{
closed = 1;
nodes = (
(-52,-259,o),
(-17,-244,o),
(19,-189,cs),
(48,-145,o),
(181,198,o),
(203,255,cs),
(225,311,o),
(207,342,o),
(181,354,cs),
(146,370,o),
(116,349,o),
(99,305,cs),
(53,187,o),
(-28,-43,o),
(-80,-147,cs),
(-94,-175,o),
(-108,-222,o),
(-82,-239,cs)
);
},
{
closed = 1;
nodes = (
(302,50,o),
(356,70,o),
(429,145,cs),
(531,249,o),
(558,430,o),
(482,528,cs),
(452,567,o),
(387,615,o),
(254,597,cs),
(131,580,o),
(54,532,o),
(88,480,cs),
(121,429,o),
(152,465,o),
(217,476,cs),
(263,484,o),
(349,505,o),
(383,468,cs),
(447,400,o),
(413,262,o),
(304,177,cs),
(264,146,o),
(244,103,o),
(280,70,cs)
);
}
);
width = 536;
}
);
unicode = 1511;
},
{
color = 6;
glyphname = "resh-hb";
kernLeft = "resh-hb";
kernRight = "resh-hb";
lastChange = "2025-10-29 14:39:49 +0000";
layers = (
{
anchors = (
{
name = bottom;
pos = (277,-11);
},
{
name = bottomleft;
pos = (-50,0);
},
{
name = center;
pos = (253,295);
},
{
name = top;
pos = (362,550);
},
{
name = topleft;
pos = (69,513);
}
);
layerId = "15880153-BF49-4651-A558-57743A88E547";
shapes = (
{
closed = 1;
nodes = (
(271,-45,o),
(364,-28,o),
(451,111,cs),
(548,266,o),
(576,559,o),
(322,592,cs),
(207,607,o),
(69,547,o),
(89,481,cs),
(100,445,o),
(142,433,o),
(210,461,cs),
(292,495,o),
(402,482,o),
(402,354,cs),
(402,252,o),
(342,107,o),
(271,56,cs),
(231,27,o),
(225,-11,o),
(252,-31,cs)
);
}
);
width = 556;
}
);
unicode = 1512;
},
{
color = 6;
glyphname = "shin-hb";
kernLeft = "shin-hb";
kernRight = "shin-hb";
lastChange = "2025-10-29 14:39:49 +0000";
layers = (
{
anchors = (
{
name = bottom;
pos = (262,0);
},
{
name = center;
pos = (335,462);
},
{
name = sindot;
pos = (162,498);
},
{
name = top;
pos = (307,550);
},
{
name = topleft;
pos = (24,487);
},
{
name = topright;
pos = (616,531);
}
);
layerId = "15880153-BF49-4651-A558-57743A88E547";
shapes = (
{
closed = 1;
nodes = (
(337,-40,o),
(455,37,o),
(511,174,cs),
(532,225,o),
(531,262,o),
(497,276,cs),
(459,292,o),
(430,260,o),
(409,215,cs),
(373,138,o),
(287,53,o),
(194,89,cs),
(125,116,o),
(113,304,o),
(210,423,cs),
(307,541,o),
(473,619,o),
(496,588,cs),
(515,562,o),
(457,454,o),
(283,340,cs),
(169,265,o),
(24,211,o),
(0,178,cs),
(-26,143,o),
(-15,104,o),
(29,111,cs),
(89,121,o),
(564,320,o),
(596,531,cs),
(611,629,o),
(576,697,o),
(496,697,cs),
(372,697,o),
(107,596,o),
(30,268,cs),
(-3,128,o),
(70,1,o),
(221,-22,cs)
);
}
);
width = 573;
}
);
unicode = 1513;
},
{
color = 6;
glyphname = "tav-hb";
kernLeft = "tav-hb";
kernRight = "tav-hb";
lastChange = "2025-10-29 14:39:49 +0000";
layers = (
{
anchors = (
{
name = bottom;
pos = (237,37);
},
{
name = bottomleft;
pos = (-69,0);
},
{
name = center;
pos = (213,190);
},
{
name = top;
pos = (292,550);
},
{
name = topleft;
pos = (29,525);
}
);
layerId = "15880153-BF49-4651-A558-57743A88E547";
shapes = (
{
closed = 1;
nodes = (
(-262,-297,o),
(-133,-282,o),
(-17,-198,cs),
(113,-104,o),
(203,278,o),
(201,434,c),
(187,432,l),
(248,442,o),
(279,301,o),
(274,169,cs),
(272,116,o),
(288,79,o),
(334,79,cs),
(389,79,o),
(406,260,o),
(357,389,cs),
(308,518,o),
(242,552,o),
(177,545,cs),
(115,538,o),
(99,468,o),
(89,375,cs),
(75,235,o),
(31,29,o),
(-55,-79,cs),
(-133,-177,o),
(-210,-183,o),
(-341,-194,cs),
(-376,-197,o),
(-398,-211,o),
(-401,-242,cs),
(-404,-271,o),
(-385,-286,o),
(-351,-289,cs)
);
}
);
width = 439;
}
);
unicode = 1514;
},
{
color = 6;
glyphname = "alef_shin-hb";
kernLeft = "shin-hb";
kernRight = "alef-hb";
lastChange = "2025-10-29 14:39:49 +0000";
layers = (
{
anchors = (
{
name = bottom_1;
pos = (653,0);
},
{
name = bottom_2;
pos = (274,0);
},
{
name = caret_1;
pos = (554.5,0);
},
{
name = center_1;
pos = (992,175);
},
{
name = center_2;
pos = (338,456);
},
{
name = sindot_2;
pos = (230,572);
},
{
name = top_1;
pos = (983,467);
},
{
name = top_2;
pos = (496,687);
},
{
name = topleft_1;
pos = (687,590);
},
{
name = topleft_2;
pos = (120,509);
},
{
name = topright_2_;
pos = (546,531);
}
);
layerId = "15880153-BF49-4651-A558-57743A88E547";
shapes = (
{
closed = 1;
nodes = (
(959,-24,o),
(995,3,o),
(995,36,cs),
(995,66,o),
(868,65,o),
(868,160,cs),
(868,255,o),
(1013,315,o),
(1074,336,cs),
(1128,355,o),
(1143,398,o),
(1122,428,cs),
(1103,456,o),
(1066,453,o),
(1033,444,cs),
(1000,435,o),
(765,339,o),
(752,164,cs),
(743,41,o),
(864,-14,o),
(911,-19,cs)
);
},
{
closed = 1;
nodes = (
(794,630,o),
(761,613,o),
(734,575,cs),
(702,529,o),
(625,325,o),
(546,217,cs),
(448,82,o),
(287,53,o),
(194,89,cs),
(125,116,o),
(113,304,o),
(210,423,cs),
(307,541,o),
(473,619,o),
(496,588,cs),
(515,562,o),
(457,454,o),
(283,340,cs),
(169,265,o),
(24,211,o),
(0,178,cs),
(-26,143,o),
(-15,104,o),
(29,111,cs),
(89,121,o),
(564,320,o),
(596,531,cs),
(611,629,o),
(576,687,o),
(496,687,cs),
(372,687,o),
(115,586,o),
(38,258,cs),
(5,118,o),
(70,1,o),
(221,-22,cs),
(372,-46,o),
(545,26,o),
(627,150,cs),
(687,240,o),
(822,482,o),
(842,525,cs),
(864,572,o),
(849,612,o),
(828,619,cs)
);
}
);
width = 1109;
}
);
metricLeft = "shin-hb";
metricRight = "alef-hb";
},
{
color = 3;
glyphname = "aleflamed-hb";
kernLeft = "lamed-hb";
kernRight = "alef-hb";
lastChange = "2025-10-29 14:39:49 +0000";
layers = (
{
layerId = "15880153-BF49-4651-A558-57743A88E547";
shapes = (
{
closed = 1;
nodes = (
(454,-24,o),
(490,3,o),
(490,36,cs),
(490,81,o),
(363,65,o),
(363,160,cs),
(363,265,o),
(499,330,o),
(560,351,cs),
(614,370,o),
(638,408,o),
(617,438,cs),
(598,466,o),
(561,463,o),
(528,454,cs),
(495,445,o),
(260,349,o),
(247,164,cs),
(238,41,o),
(359,-14,o),
(406,-19,cs)
);
},
{
ref = "lamed-hb";
}
);
width = 597;
}
);
metricLeft = "lamed-hb";
metricRight = "alef-hb";
unicode = 64335;
},
{
color = 6;
glyphname = zero;
kernLeft = zero;
kernRight = zero;
lastChange = "2025-10-29 14:39:49 +0000";
layers = (
{
layerId = "15880153-BF49-4651-A558-57743A88E547";
shapes = (
{
closed = 1;
nodes = (
(402,-10,o),
(527,177,o),
(542,341,cs),
(557,503,o),
(497,609,o),
(346,609,cs),
(293,609,o),
(241,588,o),
(199,537,c),
(186,547,o),
(164,543,o),
(137,513,cs),
(85,456,o),
(41,363,o),
(32,261,cs),
(18,111,o),
(71,-10,o),
(220,-10,cs)
);
},
{
closed = 1;
nodes = (
(170,109,o),
(138,171,o),
(142,227,cs),
(147,287,o),
(165,344,o),
(178,350,c),
(197,345,o),
(213,353,o),
(222,375,cs),
(259,461,o),
(267,494,o),
(338,494,cs),
(422,494,o),
(433,414,o),
(428,352,cs),
(418,244,o),
(331,109,o),
(222,109,cs)
);
}
);
width = 556;
}
);
unicode = 48;
},
{
color = 6;
glyphname = one;
kernLeft = one;
kernRight = one;
lastChange = "2025-10-29 14:39:49 +0000";
layers = (
{
layerId = "15880153-BF49-4651-A558-57743A88E547";
shapes = (
{
closed = 1;
nodes = (
(101,-5,o),
(104,47,o),
(114,80,cs),
(127,128,o),
(145,173,o),
(163,217,cs),
(197,303,o),
(237,386,o),
(285,462,cs),
(314,507,o),
(336,558,o),
(285,599,cs),
(241,634,o),
(200,599,o),
(168,543,cs),
(143,498,o),
(119,450,o),
(99,402,cs),
(74,342,o),
(51,280,o),
(30,218,cs),
(10,163,o),
(-1,105,o),
(-12,46,cs),
(-14,37,o),
(-14,28,o),
(-11,19,cs),
(-2,-7,o),
(37,-19,o),
(60,-14,cs)
);
}
);
width = 271;
}
);
unicode = 49;
},
{
color = 6;
glyphname = two;
kernLeft = two;
kernRight = two;
lastChange = "2025-10-29 14:39:49 +0000";
layers = (
{
layerId = "15880153-BF49-4651-A558-57743A88E547";
shapes = (
{
closed = 1;
nodes = (
(134,-25,o),
(334,-32,o),
(351,46,cs),
(354,60,o),
(351,73,o),
(341,83,cs),
(333,91,o),
(323,93,o),
(313,94,cs),
(273,98,o),
(175,88,o),
(135,85,cs),
(119,84,o),
(92,87,o),
(90,109,cs),
(88,132,o),
(110,148,o),
(126,161,cs),
(173,199,o),
(295,266,o),
(345,313,cs),
(380,346,o),
(434,396,o),
(440,478,cs),
(444,536,o),
(420,597,o),
(333,626,cs),
(254,652,o),
(146,561,o),
(105,533,cs),
(83,518,o),
(78,480,o),
(89,456,cs),
(98,437,o),
(120,423,o),
(146,428,cs),
(170,433,o),
(234,482,o),
(266,502,cs),
(266,502,o),
(374,564,o),
(286,427,cs),
(219,322,o),
(16,265,o),
(-14,145,cs),
(-33,69,o),
(6,6,o),
(80,-12,cs)
);
}
);
width = 430;
}
);
unicode = 50;
},
{
color = 6;
glyphname = three;
kernLeft = three;
kernRight = three;
lastChange = "2025-10-29 14:39:49 +0000";
layers = (
{
layerId = "15880153-BF49-4651-A558-57743A88E547";
shapes = (
{
closed = 1;
nodes = (
(109,-34,o),
(244,-32,o),
(326,39,cs),
(413,113,o),
(394,284,o),
(304,344,c),
(385,378,o),
(450,420,o),
(449,493,cs),
(448,575,o),
(379,613,o),
(305,627,cs),
(236,639,o),
(125,611,o),
(137,551,cs),
(142,529,o),
(173,488,o),
(214,507,cs),
(334,562,o),
(394,489,o),
(278,435,cs),
(248,421,o),
(187,401,o),
(176,365,cs),
(164,328,o),
(196,297,o),
(227,287,cs),
(282,268,o),
(281,202,o),
(273,169,cs),
(243,40,o),
(103,72,o),
(60,149,cs),
(48,170,o),
(13,192,o),
(-19,160,cs),
(-65,116,o),
(-1,55,o),
(33,27,cs)
);
}
);
width = 439;
}
);
unicode = 51;
},
{
color = 6;
glyphname = four;
kernLeft = four;
kernRight = four;
lastChange = "2025-10-29 14:39:49 +0000";
layers = (
{
layerId = "15880153-BF49-4651-A558-57743A88E547";
shapes = (
{
closed = 1;
nodes = (
(248,-12,o),
(293,-45,o),
(354,117,cs),
(485,468,ls),
(499,505,o),
(516,576,o),
(442,594,cs),
(442,594,o),
(391,596,o),
(368,522,cs),
(342,442,o),
(307,329,o),
(289,283,c),
(337,306,l),
(322,311,o),
(301,307,o),
(249,338,cs),
(202,366,o),
(161,390,o),
(194,500,cs),
(202,527,o),
(214,569,o),
(189,605,cs),
(180,618,o),
(140,643,o),
(112,597,cs),
(-1,411,o),
(74,268,o),
(297,183,c),
(267,220,l),
(267,220,o),
(157,13,o),
(248,-12,cs)
);
}
);
width = 470;
}
);
unicode = 52;
},
{
color = 6;
glyphname = five;
kernLeft = five;
kernRight = five;
lastChange = "2025-10-29 14:39:49 +0000";
layers = (
{
layerId = "15880153-BF49-4651-A558-57743A88E547";
shapes = (
{
closed = 1;
nodes = (
(393,25,o),
(436,126,o),
(417,214,cs),
(396,311,o),
(304,408,o),
(235,440,cs),
(200,457,o),
(212,477,o),
(239,485,cs),
(271,494,o),
(444,472,o),
(459,481,cs),
(472,489,o),
(517,564,o),
(436,585,cs),
(373,601,o),
(274,604,o),
(210,594,cs),
(138,583,o),
(80,544,o),
(82,465,cs),
(82,439,o),
(92,415,o),
(111,398,cs),
(167,349,o),
(231,312,o),
(276,258,cs),
(299,229,o),
(313,174,o),
(299,141,cs),
(270,70,o),
(150,80,o),
(77,128,cs),
(39,152,o),
(12,154,o),
(-8,127,cs),
(-23,106,o),
(-6,73,o),
(27,43,cs),
(90,-18,o),
(211,-48,o),
(302,-11,cs)
);
}
);
width = 466;
}
);
unicode = 53;
},
{
color = 6;
glyphname = six;
kernLeft = six;
kernRight = six;
lastChange = "2025-10-29 14:39:49 +0000";
layers = (
{
layerId = "15880153-BF49-4651-A558-57743A88E547";
shapes = (
{
closed = 1;
nodes = (
(510,81,o),
(499,185,o),
(431,246,cs),
(369,301,o),
(288,300,o),
(225,272,cs),
(138,233,o),
(96,158,o),
(96,158,c),
(139,100,l),
(239,202,o),
(296,199,o),
(353,174,cs),
(378,163,o),
(388,124,o),
(369,106,cs),
(328,67,o),
(276,71,o),
(230,90,cs),
(138,128,o),
(113,278,o),
(185,355,cs),
(253,427,o),
(374,462,o),
(469,454,cs),
(520,450,o),
(565,423,o),
(583,433,cs),
(610,448,o),
(610,495,o),
(565,526,cs),
(485,581,o),
(260,575,o),
(133,465,cs),
(25,371,o),
(-1,185,o),
(74,79,cs),
(164,-48,o),
(364,-42,o),
(435,18,cs)
);
}
);
width = 559;
}
);
unicode = 54;
},
{
color = 6;
glyphname = seven;
kernLeft = seven;
kernRight = seven;
lastChange = "2025-10-29 14:39:49 +0000";
layers = (
{
layerId = "15880153-BF49-4651-A558-57743A88E547";
shapes = (
{
closed = 1;
nodes = (
(195,35,o),
(243,89,o),
(269,119,cs),
(310,167,o),
(455,323,o),
(435,474,cs),
(415,624,o),
(189,543,o),
(189,543,cs),
(139,524,o),
(77,481,o),
(89,444,cs),
(93,432,o),
(112,426,o),
(128,424,cs),
(159,420,o),
(195,431,o),
(227,444,cs),
(310,478,o),
(332,436,o),
(306,355,cs),
(278,267,o),
(188,176,o),
(102,110,cs),
(63,80,o),
(19,46,o),
(39,12,cs),
(55,-16,o),
(108,-8,o),
(142,9,cs)
);
},
{
closed = 1;
nodes = (
(252,257,o),
(241,259,o),
(359,253,cs),
(414,250,o),
(491,250,o),
(485,303,cs),
(476,383,o),
(247,380,o),
(100,339,cs),
(32,320,o),
(20,291,o),
(23,273,cs),
(30,233,o),
(51,224,o),
(106,233,cs)
);
}
);
width = 485;
}
);
unicode = 55;
},
{
color = 6;
glyphname = eight;
kernLeft = eight;
kernRight = eight;
lastChange = "2025-10-29 14:39:49 +0000";
layers = (
{
layerId = "15880153-BF49-4651-A558-57743A88E547";
shapes = (
{
closed = 1;
nodes = (
(226,624,o),
(139,583,o),
(122,470,cs),
(116,431,o),
(128,376,o),
(153,350,c),
(95,337,o),
(15,293,o),
(-10,198,cs),
(-46,63,o),
(18,-13,o),
(102,-18,cs),
(172,-22,o),
(305,-21,o),
(338,107,cs),
(360,191,o),
(328,260,o),
(300,304,c),
(373,326,o),
(442,363,o),
(454,434,cs),
(470,531,o),
(424,604,o),
(337,613,cs)
);
},
{
closed = 1;
nodes = (
(235,514,o),
(276,531,o),
(312,524,cs),
(343,518,o),
(353,473,o),
(342,440,cs),
(330,405,o),
(308,390,o),
(248,376,c),
(236,399,o),
(223,431,o),
(228,466,cs)
);
},
{
closed = 1;
nodes = (
(111,236,o),
(153,258,o),
(208,268,c),
(217,245,o),
(257,195,o),
(243,140,cs),
(230,90,o),
(188,76,o),
(141,79,cs),
(104,81,o),
(67,118,o),
(89,177,cs)
);
}
);
width = 426;
}
);
unicode = 56;
},
{
color = 6;
glyphname = "maqaf-hb";
kernLeft = topHB;
kernRight = topHB;
lastChange = "2025-10-29 14:39:49 +0000";
layers = (
{
layerId = "15880153-BF49-4651-A558-57743A88E547";
shapes = (
{
closed = 1;
nodes = (
(366,440,o),
(386,458,o),
(386,485,cs),
(386,509,o),
(363,527,o),
(347,527,cs),
(313,527,o),
(201,537,o),
(130,531,cs),
(74,526,o),
(66,442,o),
(130,432,cs),
(209,420,o),
(307,436,o),
(337,438,cs)
);
}
);
width = 357;
}
);
unicode = 1470;
},
{
color = 6;
glyphname = "nunhafukha-hb";
kernLeft = topHB;
kernRight = topHB;
lastChange = "2025-10-29 14:39:49 +0000";
layers = (
{
layerId = "15880153-BF49-4651-A558-57743A88E547";
shapes = (
{
closed = 1;
nodes = (
(158,453,o),
(190,453,cs),
(207,453,o),
(228,468,o),
(245,504,cs),
(323,671,o),
(441,772,o),
(580,820,cs),
(722,867,o),
(892,860,o),
(1023,797,cs),
(1035,791,o),
(1045,789,o),
(1053,789,cs),
(1072,789,o),
(1082,801,o),
(1082,815,cs),
(1082,829,o),
(1073,846,o),
(1052,860,cs),
(918,948,o),
(714,964,o),
(554,912,cs),
(441,875,o),
(334,808,o),
(254,664,c),
(277,656,l),
(279,669,o),
(279,681,o),
(279,692,cs),
(279,877,o),
(77,936,o),
(-93,936,cs),
(-220,936,o),
(-330,903,o),
(-325,866,cs),
(-322,844,o),
(-307,839,o),
(-277,839,cs),
(-171,839,o),
(-94,852,o),
(42,828,cs),
(189,803,o),
(194,649,o),
(162,519,cs),
(156,495,o)
);
}
);
width = 270;
},
{
associatedMasterId = "15880153-BF49-4651-A558-57743A88E547";
layerId = "4BFAC969-2418-4B4D-BD6F-60BCF05E0797";
name = Bold;
shapes = (
{
closed = 1;
nodes = (
(221,446,o),
(243,480,o),
(259,512,cs),
(424,843,o),
(835,867,o),
(1022,777,cs),
(1068,755,o),
(1098,774,o),
(1111,800,cs),
(1123,826,o),
(1118,860,o),
(1080,878,cs),
(862,983,o),
(478,972,o),
(253,700,c),
(302,701,l),
(269,885,o),
(50,983,o),
(-274,931,cs),
(-314,924,o),
(-330,890,o),
(-325,860,cs),
(-320,831,o),
(-295,807,o),
(-258,813,cs),
(110,872,o),
(275,753,o),
(155,528,cs),
(134,490,o),
(147,461,o),
(181,454,cs)
);
}
);
width = 270;
}
);
unicode = 1478;
},
{
color = 6;
glyphname = "geresh-hb";
kernLeft = topHB;
kernRight = topHB;
lastChange = "2025-10-29 14:39:49 +0000";
layers = (
{
layerId = "15880153-BF49-4651-A558-57743A88E547";
shapes = (
{
closed = 1;
nodes = (
(152,437,o),
(240,578,o),
(272,685,cs),
(282,718,o),
(272,748,o),
(234,758,cs),
(210,764,o),
(177,738,o),
(170,702,cs),
(166,680,o),
(118,538,o),
(106,502,cs),
(94,465,o),
(106,452,o),
(121,447,cs)
);
}
);
width = 195;
}
);
metricLeft = quotesingle;
metricRight = quotesingle;
unicode = 1523;
},
{
color = 6;
glyphname = hyphen;
kernLeft = middle;
kernRight = middle;
lastChange = "2025-10-29 14:39:49 +0000";
layers = (
{
layerId = "15880153-BF49-4651-A558-57743A88E547";
shapes = (
{
closed = 1;
nodes = (
(326,237,o),
(346,268,o),
(346,285,cs),
(346,309,o),
(323,327,o),
(307,327,cs),
(273,327,o),
(81,335,o),
(60,331,cs),
(39,327,o),
(18,309,o),
(18,289,cs),
(18,258,o),
(31,242,o),
(60,238,cs),
(89,234,o),
(268,237,o),
(298,237,cs)
);
}
);
width = 357;
}
);
unicode = 45;
},
{
color = 6;
glyphname = endash;
kernLeft = middle;
kernRight = middle;
lastChange = "2025-10-29 14:39:49 +0000";
layers = (
{
layerId = "15880153-BF49-4651-A558-57743A88E547";
shapes = (
{
closed = 1;
nodes = (
(519,237,o),
(537,261,o),
(537,288,cs),
(537,312,o),
(520,327,o),
(498,327,cs),
(236,327,o),
(63,330,o),
(51,329,cs),
(19,326,o),
(9,306,o),
(9,287,cs),
(9,257,o),
(27,244,o),
(51,243,cs),
(166,238,o),
(248,237,o),
(489,237,cs)
);
}
);
width = 540;
}
);
unicode = 8211;
},
{
color = 6;
glyphname = emdash;
kernLeft = middle;
kernRight = middle;
lastChange = "2025-10-29 14:39:49 +0000";
layers = (
{
layerId = "15880153-BF49-4651-A558-57743A88E547";
shapes = (
{
closed = 1;
nodes = (
(76,238,o),
(595,247,o),
(625,247,cs),
(653,247,o),
(675,278,o),
(673,295,cs),
(671,313,o),
(648,331,o),
(632,331,cs),
(598,331,o),
(68,335,o),
(47,331,cs),
(26,327,o),
(5,309,o),
(5,289,cs),
(5,262,o),
(18,246,o),
(47,242,cs)
);
}
);
width = 669;
}
);
unicode = 8212;
},
{
color = 6;
glyphname = u2E17;
kernLeft = equal;
kernRight = equal;
lastChange = "2025-10-29 14:39:49 +0000";
layers = (
{
layerId = "15880153-BF49-4651-A558-57743A88E547";
shapes = (
{
closed = 1;
nodes = (
(77,322,o),
(91,304,o),
(143,302,cs),
(205,302,o),
(447,349,o),
(572,389,cs),
(627,407,o),
(658,435,o),
(647,464,cs),
(631,506,o),
(586,496,o),
(506,477,cs),
(321,433,o),
(176,403,o),
(147,395,cs),
(102,383,o),
(68,369,o),
(73,347,cs)
);
},
{
closed = 1;
nodes = (
(574,250,o),
(560,268,o),
(508,270,cs),
(446,270,o),
(234,230,o),
(112,189,cs),
(33,163,o),
(-7,144,o),
(3,115,cs),
(19,73,o),
(65,76,o),
(145,95,cs),
(330,139,o),
(475,169,o),
(503,177,cs),
(548,189,o),
(582,203,o),
(578,225,cs)
);
}
);
width = 632;
}
);
unicode = 11799;
},
{
color = 6;
glyphname = underscore;
kernLeft = bottom;
kernRight = bottom;
lastChange = "2025-10-29 14:39:49 +0000";
layers = (
{
layerId = "15880153-BF49-4651-A558-57743A88E547";
shapes = (
{
closed = 1;
nodes = (
(349,-3,o),
(369,28,o),
(369,45,cs),
(369,69,o),
(346,87,o),
(330,87,cs),
(296,87,o),
(-16,95,o),
(-37,91,cs),
(-58,87,o),
(-79,69,o),
(-79,49,cs),
(-79,18,o),
(-66,2,o),
(-37,-2,cs),
(-8,-6,o),
(291,-3,o),
(321,-3,cs)
);
}
);
width = 430;
}
);
unicode = 95;
},
{
color = 6;
glyphname = parenright;
kernLeft = parenright;
kernRight = parenright;
lastChange = "2025-10-29 14:39:49 +0000";
layers = (
{
layerId = "15880153-BF49-4651-A558-57743A88E547";
shapes = (
{
closed = 1;
nodes = (
(150,-9,o),
(235,142,o),
(265,311,cs),
(295,488,o),
(251,575,o),
(198,679,cs),
(190,696,o),
(167,727,o),
(136,720,cs),
(115,715,o),
(98,680,o),
(113,638,cs),
(139,567,o),
(179,437,o),
(144,288,cs),
(96,94,o),
(-25,-47,o),
(-50,-60,cs),
(-77,-74,o),
(-93,-96,o),
(-86,-114,c),
(-74,-141,o),
(-44,-150,o),
(3,-116,cs)
);
}
);
width = 310;
}
);
unicode = 41;
},
{
color = 6;
glyphname = braceleft;
kernLeft = braceleft;
kernRight = braceleft;
lastChange = "2025-10-29 14:39:49 +0000";
layers = (
{
layerId = "15880153-BF49-4651-A558-57743A88E547";
shapes = (
{
closed = 1;
nodes = (
(187,-128,o),
(235,-140,o),
(241,-88,cs),
(246,-45,o),
(208,-33,o),
(176,-33,cs),
(126,-33,o),
(112,10,o),
(130,70,cs),
(148,130,o),
(171,186,o),
(177,226,cs),
(183,265,o),
(138,288,o),
(99,287,c),
(93,270,l),
(118,270,o),
(198,291,o),
(211,331,cs),
(224,371,o),
(259,486,o),
(271,528,cs),
(284,574,o),
(330,623,o),
(376,623,cs),
(422,623,o),
(462,615,o),
(469,671,cs),
(474,714,o),
(431,713,o),
(388,709,cs),
(302,701,o),
(227,644,o),
(197,563,cs),
(187,537,o),
(142,395,o),
(130,363,cs),
(117,331,o),
(57,318,o),
(46,318,cs),
(27,318,o),
(5,302,o),
(-2,279,cs),
(-10,256,o),
(11,239,o),
(21,239,cs),
(31,239,o),
(87,219,o),
(79,195,cs),
(67,159,o),
(60,131,o),
(42,74,cs),
(-10,-91,o),
(104,-128,o),
(138,-128,cs)
);
}
);
width = 340;
}
);
unicode = 123;
},
{
color = 6;
glyphname = bracketleft;
kernLeft = bracketleft;
kernRight = bracketleft;
lastChange = "2025-10-29 14:39:49 +0000";
layers = (
{
layerId = "15880153-BF49-4651-A558-57743A88E547";
shapes = (
{
closed = 1;
nodes = (
(141,-128,o),
(191,-133,o),
(196,-88,cs),
(201,-41,o),
(169,-23,o),
(130,-23,cs),
(80,-23,o),
(76,10,o),
(92,70,cs),
(108,130,o),
(206,486,o),
(217,528,cs),
(228,574,o),
(260,614,o),
(306,614,cs),
(353,614,o),
(397,602,o),
(407,666,cs),
(413,706,o),
(366,713,o),
(315,709,cs),
(230,702,o),
(160,640,o),
(129,563,cs),
(99,485,o),
(12,147,o),
(-8,74,cs),
(-55,-91,o),
(61,-128,o),
(95,-128,cs)
);
}
);
width = 299;
}
);
unicode = 91;
},
{
color = 6;
glyphname = u201B;
kernLeft = topHB;
kernRight = topHB;
lastChange = "2025-10-29 14:39:49 +0000";
layers = (
{
layerId = "15880153-BF49-4651-A558-57743A88E547";
shapes = (
{
closed = 1;
nodes = (
(190,482,o),
(204,501,o),
(214,531,cs),
(224,563,o),
(225,595,o),
(240,625,cs),
(259,664,o),
(309,680,o),
(329,723,cs),
(343,754,o),
(330,791,o),
(299,803,cs),
(263,817,o),
(225,793,o),
(208,752,cs),
(164,646,o),
(134,505,o),
(163,493,cs)
);
}
);
width = 240;
}
);
unicode = 8219;
},
{
color = 6;
glyphname = u201F;
kernLeft = topHB;
kernRight = topHB;
lastChange = "2025-10-29 14:39:49 +0000";
layers = (
{
layerId = "15880153-BF49-4651-A558-57743A88E547";
shapes = (
{
closed = 1;
nodes = (
(187,469,o),
(201,488,o),
(211,518,cs),
(221,550,o),
(222,582,o),
(237,612,cs),
(256,651,o),
(306,667,o),
(326,710,cs),
(340,741,o),
(327,778,o),
(296,790,cs),
(260,804,o),
(222,780,o),
(205,739,cs),
(161,633,o),
(131,492,o),
(160,480,cs)
);
},
{
closed = 1;
nodes = (
(358,463,o),
(374,485,o),
(386,519,cs),
(399,556,o),
(401,596,o),
(415,624,cs),
(433,660,o),
(481,663,o),
(496,700,cs),
(510,734,o),
(501,772,o),
(468,784,cs),
(432,798,o),
(393,775,o),
(377,733,cs),
(335,617,o),
(303,486,o),
(332,474,cs)
);
}
);
width = 414;
}
);
metricLeft = U201B;
metricRight = U201B;
unicode = 8223;
},
{
color = 6;
glyphname = quotedbl;
kernLeft = top;
kernRight = top;
lastChange = "2025-10-29 14:39:49 +0000";
layers = (
{
layerId = "15880153-BF49-4651-A558-57743A88E547";
shapes = (
{
closed = 1;
nodes = (
(176,442,o),
(199,475,o),
(219,518,cs),
(246,575,o),
(267,650,o),
(274,685,cs),
(281,718,o),
(263,758,o),
(223,758,cs),
(198,758,o),
(169,738,o),
(161,692,cs),
(158,673,o),
(143,606,o),
(137,546,cs),
(130,491,o),
(131,442,o),
(154,442,cs)
);
},
{
closed = 1;
nodes = (
(338,442,o),
(359,463,o),
(378,496,cs),
(413,551,o),
(443,637,o),
(453,685,cs),
(460,718,o),
(442,758,o),
(402,758,cs),
(377,758,o),
(355,736,o),
(340,692,cs),
(330,662,o),
(304,575,o),
(298,512,cs),
(294,472,o),
(299,442,o),
(322,442,cs)
);
}
);
width = 377;
}
);
metricLeft = quotesingle;
metricRight = quotesingle;
unicode = 34;
},
{
color = 6;
glyphname = quotesingle;
kernLeft = top;
kernRight = top;
lastChange = "2025-10-29 14:39:49 +0000";
layers = (
{
layerId = "15880153-BF49-4651-A558-57743A88E547";
shapes = (
{
closed = 1;
nodes = (
(165,442,o),
(185,466,o),
(204,496,cs),
(234,544,o),
(261,619,o),
(274,685,cs),
(281,718,o),
(263,758,o),
(223,758,cs),
(198,758,o),
(169,738,o),
(161,692,cs),
(157,668,o),
(133,548,o),
(127,511,cs),
(119,464,o),
(129,442,o),
(145,442,cs)
);
}
);
width = 199;
}
);
unicode = 39;
},
{
color = 6;
glyphname = period;
kernLeft = bottom;
kernRight = bottom;
lastChange = "2025-10-29 14:39:49 +0000";
layers = (
{
layerId = "15880153-BF49-4651-A558-57743A88E547";
shapes = (
{
closed = 1;
nodes = (
(55,-7,o),
(105,26,o),
(105,67,cs),
(105,107,o),
(82,140,o),
(32,140,cs),
(-9,140,o),
(-42,107,o),
(-42,67,cs),
(-42,26,o),
(-30,-7,o),
(15,-7,cs)
);
}
);
width = 180;
}
);
unicode = 46;
},
{
color = 6;
glyphname = comma;
kernLeft = bottom;
kernRight = bottom;
lastChange = "2025-10-29 14:39:49 +0000";
layers = (
{
layerId = "15880153-BF49-4651-A558-57743A88E547";
shapes = (
{
closed = 1;
nodes = (
(-28,-145,o),
(59,-14,o),
(88,93,cs),
(97,126,o),
(85,156,o),
(44,166,cs),
(19,172,o),
(-13,146,o),
(-20,110,cs),
(-24,88,o),
(-68,-44,o),
(-79,-80,cs),
(-90,-117,o),
(-77,-130,o),
(-61,-135,cs)
);
}
);
width = 170;
}
);
unicode = 44;
},
{
color = 3;
glyphname = exclam;
kernLeft = bottom;
kernRight = bottom;
lastChange = "2025-10-29 14:39:49 +0000";
layers = (
{
layerId = "15880153-BF49-4651-A558-57743A88E547";
shapes = (
{
closed = 1;
nodes = (
(81,205,o),
(115,211,o),
(130,247,cs),
(176,358,o),
(214,431,o),
(288,542,cs),
(316,584,o),
(304,622,o),
(277,638,cs),
(244,657,o),
(211,643,o),
(188,600,cs),
(141,512,o),
(58,349,o),
(42,289,cs),
(33,256,o),
(36,226,o),
(59,215,cs)
);
},
{
pos = (-1,0);
ref = period;
}
);
width = 230;
}
);
unicode = 33;
},
{
color = 3;
glyphname = question;
kernLeft = question;
kernRight = question;
lastChange = "2025-10-29 14:39:49 +0000";
layers = (
{
layerId = "15880153-BF49-4651-A558-57743A88E547";
shapes = (
{
closed = 1;
nodes = (
(222,190,o),
(265,198,o),
(271,235,cs),
(291,359,o),
(496,337,o),
(496,500,cs),
(496,572,o),
(406,659,o),
(283,662,cs),
(175,665,o),
(92,573,o),
(74,507,cs),
(61,459,o),
(84,441,o),
(104,430,cs),
(124,419,o),
(158,436,o),
(167,460,cs),
(182,501,o),
(210,559,o),
(279,560,cs),
(338,561,o),
(401,531,o),
(395,491,cs),
(386,430,o),
(185,389,o),
(166,264,cs),
(159,218,o),
(182,199,o),
(208,193,cs)
);
},
{
pos = (161,0);
ref = period;
}
);
width = 460;
}
);
unicode = 63;
},
{
color = 6;
glyphname = bullet;
kernLeft = middle;
kernRight = middle;
lastChange = "2025-10-29 14:39:49 +0000";
layers = (
{
layerId = "15880153-BF49-4651-A558-57743A88E547";
shapes = (
{
closed = 1;
nodes = (
(257,127,o),
(342,187,o),
(342,273,cs),
(342,357,o),
(294,426,o),
(189,426,cs),
(103,426,o),
(34,357,o),
(34,273,cs),
(34,187,o),
(79,127,o),
(174,127,cs)
);
}
);
width = 371;
}
);
unicode = 8226;
},
{
color = 6;
glyphname = asterisk;
kernLeft = top;
kernRight = top;
lastChange = "2025-10-29 14:39:49 +0000";
layers = (
{
layerId = "15880153-BF49-4651-A558-57743A88E547";
shapes = (
{
closed = 1;
nodes = (
(322,371,o),
(333,394,o),
(328,406,cs),
(318,431,o),
(240,558,o),
(193,640,cs),
(185,655,o),
(170,667,o),
(158,660,cs),
(137,649,o),
(135,624,o),
(143,605,cs),
(200,471,o),
(257,416,o),
(273,386,cs),
(281,369,o),
(300,360,o),
(311,366,cs)
);
},
{
closed = 1;
nodes = (
(204,472,o),
(299,470,o),
(341,481,cs),
(364,487,o),
(382,498,o),
(380,515,cs),
(378,533,o),
(363,549,o),
(336,548,cs),
(308,547,o),
(230,542,o),
(137,550,cs),
(102,553,o),
(82,532,o),
(82,511,cs),
(82,485,o),
(103,469,o),
(136,470,cs)
);
},
{
closed = 1;
nodes = (
(190,361,o),
(207,374,o),
(219,393,cs),
(242,430,o),
(297,531,o),
(317,596,cs),
(327,628,o),
(320,651,o),
(294,659,cs),
(274,665,o),
(248,654,o),
(240,620,cs),
(219,530,o),
(168,445,o),
(157,419,cs),
(147,395,o),
(158,375,o),
(174,368,cs)
);
}
);
width = 335;
}
);
unicode = 42;
},
{
color = 6;
glyphname = numbersign;
lastChange = "2025-10-29 14:39:49 +0000";
layers = (
{
layerId = "15880153-BF49-4651-A558-57743A88E547";
shapes = (
{
closed = 1;
nodes = (
(246,-12,o),
(292,0,o),
(304,37,cs),
(355,194,o),
(487,506,o),
(493,520,cs),
(506,550,o),
(484,569,o),
(466,569,cs),
(450,569,o),
(421,570,o),
(399,524,cs),
(388,501,o),
(242,112,o),
(216,34,cs),
(210,16,o),
(214,1,o),
(231,-6,cs)
);
},
{
closed = 1;
nodes = (
(85,-10,o),
(112,9,o),
(127,41,cs),
(134,56,o),
(272,426,o),
(293,496,cs),
(306,540,o),
(301,560,o),
(282,563,cs),
(260,566,o),
(225,543,o),
(215,517,cs),
(205,490,o),
(33,60,o),
(30,51,cs),
(17,11,o),
(32,-12,o),
(63,-11,cs)
);
},
{
closed = 1;
nodes = (
(201,164,o),
(435,165,o),
(451,165,cs),
(466,165,o),
(503,186,o),
(507,209,cs),
(510,226,o),
(494,250,o),
(471,254,cs),
(446,258,o),
(133,250,o),
(55,244,cs),
(28,242,o),
(1,222,o),
(1,195,cs),
(1,176,o),
(12,157,o),
(40,158,cs)
);
},
{
closed = 1;
nodes = (
(116,306,o),
(407,320,o),
(491,322,cs),
(528,323,o),
(551,347,o),
(554,366,cs),
(558,389,o),
(532,406,o),
(504,406,cs),
(477,406,o),
(147,401,o),
(104,401,cs),
(72,401,o),
(52,377,o),
(48,360,cs),
(44,342,o),
(45,315,o),
(68,312,cs)
);
}
);
width = 550;
}
);
unicode = 35;
},
{
color = 6;
glyphname = slash;
kernLeft = slash;
kernRight = slash;
lastChange = "2025-10-29 14:39:49 +0000";
layers = (
{
layerId = "15880153-BF49-4651-A558-57743A88E547";
shapes = (
{
closed = 1;
nodes = (
(-71,-126,o),
(-40,-127,o),
(-24,-108,cs),
(56,-13,o),
(351,403,o),
(481,589,cs),
(495,609,o),
(498,636,o),
(482,646,cs),
(448,667,o),
(417,656,o),
(399,634,cs),
(269,475,o),
(33,132,o),
(-93,-41,cs),
(-109,-63,o),
(-104,-100,o),
(-90,-111,cs)
);
}
);
width = 378;
}
);
metricRight = "=|";
unicode = 47;
},
{
color = 6;
glyphname = backslash;
kernLeft = backslash;
kernRight = backslash;
lastChange = "2025-10-29 14:39:49 +0000";
layers = (
{
layerId = "15880153-BF49-4651-A558-57743A88E547";
shapes = (
{
closed = 1;
nodes = (
(313,-139,o),
(335,-104,o),
(331,-85,cs),
(301,58,o),
(185,494,o),
(134,641,cs),
(125,667,o),
(103,689,o),
(82,682,cs),
(46,670,o),
(35,630,o),
(44,597,cs),
(106,368,o),
(174,138,o),
(236,-102,cs),
(244,-133,o),
(274,-151,o),
(294,-145,cs)
);
}
);
width = 370;
}
);
unicode = 92;
},
{
color = 6;
glyphname = cent;
lastChange = "2025-10-29 14:39:49 +0000";
layers = (
{
layerId = "15880153-BF49-4651-A558-57743A88E547";
shapes = (
{
closed = 1;
nodes = (
(290,6,o),
(355,32,o),
(406,91,cs),
(430,121,o),
(452,156,o),
(436,191,cs),
(421,221,o),
(389,212,o),
(365,187,cs),
(321,140,o),
(286,112,o),
(246,112,cs),
(176,112,o),
(145,174,o),
(154,252,cs),
(163,326,o),
(223,475,o),
(295,475,cs),
(329,475,o),
(362,462,o),
(392,437,cs),
(418,415,o),
(437,405,o),
(459,412,cs),
(473,417,o),
(483,435,o),
(479,461,cs),
(473,503,o),
(419,569,o),
(307,569,cs),
(151,569,o),
(60,379,o),
(46,226,cs),
(34,100,o),
(118,6,o),
(226,6,cs)
);
},
{
closed = 1;
nodes = (
(157,-79,o),
(174,-73,o),
(181,-51,cs),
(410,602,ls),
(416,618,o),
(411,647,o),
(393,655,cs),
(375,663,o),
(349,641,o),
(343,618,cs),
(314,505,o),
(191,186,o),
(113,-24,cs),
(103,-51,o),
(110,-65,o),
(136,-73,cs)
);
}
);
width = 514;
}
);
unicode = 162;
},
{
color = 6;
glyphname = dollar;
lastChange = "2025-10-29 14:39:49 +0000";
layers = (
{
layerId = "15880153-BF49-4651-A558-57743A88E547";
shapes = (
{
closed = 1;
nodes = (
(238,-43,o),
(392,-27,o),
(436,107,cs),
(478,232,o),
(327,315,o),
(273,354,cs),
(242,376,o),
(170,407,o),
(189,463,cs),
(201,500,o),
(245,500,o),
(282,492,cs),
(309,487,o),
(345,454,o),
(352,424,cs),
(363,379,o),
(400,359,o),
(432,376,cs),
(467,394,o),
(459,434,o),
(445,463,cs),
(427,500,o),
(392,558,o),
(326,573,cs),
(209,600,o),
(120,569,o),
(90,500,cs),
(44,395,o),
(143,313,o),
(219,274,cs),
(294,234,o),
(355,189,o),
(331,127,cs),
(313,78,o),
(237,55,o),
(175,78,cs),
(126,97,o),
(91,142,o),
(112,203,cs),
(118,222,o),
(121,254,o),
(90,268,cs),
(58,282,o),
(34,266,o),
(9,217,cs),
(-26,147,o),
(21,24,o),
(129,-9,cs)
);
},
{
closed = 1;
nodes = (
(121,-79,o),
(138,-73,o),
(145,-51,cs),
(374,602,ls),
(380,618,o),
(375,647,o),
(357,655,cs),
(339,663,o),
(313,641,o),
(307,618,cs),
(278,505,o),
(155,186,o),
(77,-24,cs),
(67,-51,o),
(74,-65,o),
(100,-73,cs)
);
}
);
width = 500;
}
);
unicode = 36;
},
{
color = 6;
glyphname = euro;
kernRight = parenright;
lastChange = "2025-10-29 14:39:49 +0000";
layers = (
{
associatedMasterId = "15880153-BF49-4651-A558-57743A88E547";
layerId = "9EAC427F-676B-42B9-AB08-10C69BFC3819";
shapes = (
{
closed = 1;
nodes = (
(456,556,l),
(426,572,o),
(380,582,o),
(335,582,cs),
(168,582,o),
(87,454,o),
(87,285,cs),
(87,117,o),
(163,-5,o),
(326,-5,cs),
(382,-5,o),
(431,8,o),
(467,34,c),
(442,83,l),
(411,60,o),
(376,49,o),
(333,49,cs),
(208,49,o),
(147,147,o),
(147,285,cs),
(147,410,o),
(204,528,o),
(333,528,cs),
(374,528,o),
(408,520,o),
(435,503,c)
);
},
{
closed = 1;
nodes = (
(45,252,l),
(27,204,l),
(324,204,l),
(341,252,l)
);
},
{
closed = 1;
nodes = (
(364,325,l),
(380,373,l),
(46,373,l),
(28,325,l)
);
}
);
width = 520;
},
{
layerId = "15880153-BF49-4651-A558-57743A88E547";
shapes = (
{
closed = 1;
nodes = (
(484,20,o),
(515,41,o),
(512,77,cs),
(508,125,o),
(459,111,o),
(372,109,cs),
(256,106,o),
(169,159,o),
(206,311,cs),
(241,454,o),
(387,549,o),
(521,494,cs),
(567,475,o),
(621,470,o),
(634,510,cs),
(646,546,o),
(618,572,o),
(540,597,cs),
(408,639,o),
(178,610,o),
(101,324,cs),
(42,102,o),
(206,-50,o),
(440,9,cs)
);
},
{
closed = 1;
nodes = (
(56,196,o),
(327,205,o),
(357,205,cs),
(385,205,o),
(405,231,o),
(407,248,cs),
(408,272,o),
(386,290,o),
(370,290,cs),
(336,290,o),
(55,297,o),
(34,293,cs),
(12,289,o),
(-10,271,o),
(-11,251,cs),
(-13,220,o),
(-2,204,o),
(27,200,cs)
);
},
{
closed = 1;
nodes = (
(104,326,o),
(386,331,o),
(412,332,cs),
(439,333,o),
(454,356,o),
(452,375,cs),
(450,397,o),
(427,413,o),
(412,413,cs),
(381,413,o),
(90,418,o),
(71,415,cs),
(52,412,o),
(35,395,o),
(34,377,cs),
(32,348,o),
(50,334,o),
(77,330,cs)
);
}
);
width = 578;
},
{
associatedMasterId = "15880153-BF49-4651-A558-57743A88E547";
layerId = "E5899A72-38E4-4D55-831F-7A011BA846D7";
shapes = (
{
closed = 1;
nodes = (
(441,558,l),
(416,572,o),
(370,582,o),
(325,582,cs),
(158,582,o),
(77,454,o),
(77,285,cs),
(77,117,o),
(153,-5,o),
(316,-5,cs),
(372,-5,o),
(421,8,o),
(457,34,c),
(388,173,l),
(372,160,o),
(355,153,o),
(333,153,cs),
(271,153,o),
(241,210,o),
(241,288,cs),
(241,360,o),
(269,427,o),
(333,427,cs),
(354,427,o),
(371,422,o),
(387,411,c)
);
},
{
closed = 1;
nodes = (
(41,277,l),
(12,197,l),
(309,197,l),
(339,277,l)
);
},
{
closed = 1;
nodes = (
(345,295,l),
(374,375,l),
(37,375,l),
(8,295,l)
);
}
);
width = 480;
}
);
note = Euro;
unicode = 8364;
},
{
color = 6;
glyphname = sheqel;
lastChange = "2025-10-29 14:39:49 +0000";
layers = (
{
layerId = "15880153-BF49-4651-A558-57743A88E547";
shapes = (
{
closed = 1;
nodes = (
(571,16,o),
(634,58,o),
(654,132,cs),
(669,188,o),
(706,299,o),
(715,329,cs),
(733,388,o),
(710,417,o),
(695,421,cs),
(673,427,o),
(636,404,o),
(625,363,cs),
(620,344,o),
(574,190,o),
(556,148,cs),
(542,116,o),
(517,96,o),
(498,91,cs),
(462,81,o),
(419,73,o),
(369,91,cs),
(335,103,o),
(306,145,o),
(319,185,cs),
(323,197,o),
(330,216,o),
(339,241,cs),
(351,273,o),
(338,296,o),
(319,302,cs),
(298,309,o),
(265,291,o),
(256,267,cs),
(238,220,o),
(232,197,o),
(227,173,cs),
(215,116,o),
(261,31,o),
(331,8,cs),
(384,-9,o),
(431,-14,o),
(506,2,cs)
);
},
{
closed = 1;
nodes = (
(15,-9,o),
(37,9,o),
(64,47,cs),
(98,95,o),
(244,385,o),
(269,438,cs),
(289,481,o),
(289,512,o),
(260,525,cs),
(232,538,o),
(201,511,o),
(177,457,cs),
(151,399,o),
(6,118,o),
(-16,79,cs),
(-39,38,o),
(-32,10,o),
(-12,2,cs)
);
},
{
closed = 1;
nodes = (
(446,128,o),
(478,144,o),
(491,171,cs),
(499,188,o),
(515,226,o),
(520,239,cs),
(556,332,o),
(496,413,o),
(420,434,cs),
(345,455,o),
(146,398,o),
(108,381,cs),
(70,364,o),
(18,325,o),
(31,290,cs),
(41,264,o),
(71,257,o),
(98,269,cs),
(127,282,o),
(290,359,o),
(385,342,cs),
(441,332,o),
(418,253,o),
(403,224,cs),
(384,188,o),
(390,159,o),
(417,144,cs)
);
}
);
width = 741;
},
{
associatedMasterId = "15880153-BF49-4651-A558-57743A88E547";
layerId = "53D8CED4-7490-41E1-AE18-6880BB113318";
name = "new Layer";
shapes = (
{
closed = 1;
nodes = (
(652,475,ls),
(652,562,o),
(627,600,o),
(546,600,cs),
(67,600,l),
(67,0,l),
(227,0,l),
(227,475,l),
(450,475,ls),
(481,475,o),
(492,458,o),
(492,425,cs),
(492,180,l),
(652,180,l)
);
},
{
closed = 1;
nodes = (
(686,0,ls),
(798,0,o),
(860,63,o),
(860,188,cs),
(860,600,l),
(700,600,l),
(700,203,ls),
(700,146,o),
(683,125,o),
(636,125,cs),
(441,125,l),
(441,420,l),
(281,420,l),
(281,0,l)
);
}
);
width = 920;
},
{
associatedMasterId = "15880153-BF49-4651-A558-57743A88E547";
layerId = "8AC24B29-55F9-4874-9405-22E9B184E4B3";
name = "new Layer";
shapes = (
{
closed = 1;
nodes = (
(496,535,ls),
(496,580,o),
(473,600,o),
(419,600,cs),
(79,600,l),
(79,0,l),
(91,0,l),
(91,590,l),
(419,590,ls),
(464,590,o),
(484,573,o),
(484,535,cs),
(484,194,l),
(496,194,l)
);
},
{
closed = 1;
nodes = (
(599,0,ls),
(669,0,o),
(694,37,o),
(694,108,cs),
(694,600,l),
(682,600,l),
(682,108,ls),
(682,43,o),
(661,10,o),
(599,10,cs),
(295,10,l),
(295,417,l),
(283,417,l),
(283,0,l)
);
}
);
width = 773;
},
{
associatedMasterId = "15880153-BF49-4651-A558-57743A88E547";
layerId = "CE52D7F9-3492-461B-8CFC-011AE10DF672";
name = "new Layer";
shapes = (
{
closed = 1;
nodes = (
(619,488,ls),
(619,566,o),
(594,600,o),
(519,600,cs),
(70,600,l),
(70,0,l),
(198,0,l),
(198,499,l),
(443,499,ls),
(477,499,o),
(490,482,o),
(490,448,cs),
(490,183,l),
(619,183,l)
);
},
{
closed = 1;
nodes = (
(667,0,ls),
(771,0,o),
(825,57,o),
(825,171,cs),
(825,600,l),
(696,600,l),
(696,183,ls),
(696,124,o),
(678,101,o),
(628,101,cs),
(410,101,l),
(410,419,l),
(281,419,l),
(281,0,l)
);
}
);
width = 889;
}
);
note = newsheqelsign;
unicode = 8362;
},
{
color = 6;
glyphname = sheqel.ss01;
kernLeft = newsheqelsign;
kernRight = newsheqelsign;
lastChange = "2025-10-29 14:39:49 +0000";
layers = (
{
associatedMasterId = "15880153-BF49-4651-A558-57743A88E547";
layerId = "9EAC427F-676B-42B9-AB08-10C69BFC3819";
shapes = (
{
closed = 1;
nodes = (
(740,577,l),
(740,243,ls),
(740,85,o),
(682,60,o),
(530,60,cs),
(406,60,l),
(376,362,l),
(306,362,l),
(343,0,l),
(530,0,ls),
(729,0,o),
(810,45,o),
(810,243,cs),
(810,577,l)
);
},
{
closed = 1;
nodes = (
(584,526,o),
(552,577,o),
(381,577,cs),
(99,577,l),
(99,0,l),
(169,0,l),
(169,517,l),
(381,517,ls),
(501,517,o),
(514,482,o),
(516,332,cs),
(516,208,l),
(586,208,l),
(586,332,ls)
);
}
);
width = 921;
},
{
layerId = "15880153-BF49-4651-A558-57743A88E547";
shapes = (
{
closed = 1;
nodes = (
(699,-6,o),
(774,45,o),
(799,134,cs),
(818,202,o),
(863,338,o),
(874,374,cs),
(896,446,o),
(868,481,o),
(849,486,cs),
(822,493,o),
(777,465,o),
(764,415,cs),
(758,392,o),
(702,205,o),
(680,154,cs),
(663,115,o),
(633,91,o),
(610,85,cs),
(566,73,o),
(514,62,o),
(453,84,cs),
(412,99,o),
(376,150,o),
(392,199,cs),
(397,214,o),
(406,237,o),
(417,267,cs),
(431,306,o),
(415,334,o),
(392,341,cs),
(367,349,o),
(328,328,o),
(316,298,cs),
(294,242,o),
(286,213,o),
(280,184,cs),
(266,115,o),
(322,12,o),
(407,-16,cs),
(471,-37,o),
(528,-45,o),
(620,-24,cs)
);
},
{
closed = 1;
nodes = (
(23,-37,o),
(48,-14,o),
(82,31,cs),
(124,89,o),
(303,441,o),
(332,506,cs),
(356,559,o),
(356,596,o),
(321,612,cs),
(287,628,o),
(248,595,o),
(219,529,cs),
(188,459,o),
(11,119,o),
(-15,70,cs),
(-43,20,o),
(-34,-14,o),
(-10,-24,cs)
);
},
{
closed = 1;
nodes = (
(546,130,o),
(586,149,o),
(601,182,cs),
(611,203,o),
(630,249,o),
(636,265,cs),
(678,379,o),
(607,477,o),
(515,502,cs),
(424,527,o),
(182,458,o),
(136,437,cs),
(90,416,o),
(27,369,o),
(42,327,cs),
(54,295,o),
(91,286,o),
(123,301,cs),
(159,317,o),
(357,410,o),
(472,390,cs),
(540,378,o),
(513,282,o),
(494,246,cs),
(471,203,o),
(478,167,o),
(511,149,cs)
);
}
);
width = 887;
},
{
associatedMasterId = "15880153-BF49-4651-A558-57743A88E547";
layerId = "E5899A72-38E4-4D55-831F-7A011BA846D7";
shapes = (
{
closed = 1;
nodes = (
(650,577,l),
(650,229,ls),
(650,168,o),
(633,146,o),
(589,146,cs),
(442,146,l),
(415,376,l),
(255,376,l),
(288,0,l),
(561,0,ls),
(738,0,o),
(819,45,o),
(819,243,cs),
(819,577,l)
);
},
{
closed = 1;
nodes = (
(620,523,o),
(577,577,o),
(437,577,cs),
(62,577,l),
(62,0,l),
(231,0,l),
(231,431,l),
(393,431,ls),
(441,431,o),
(460,408,o),
(460,346,cs),
(460,194,l),
(620,194,l),
(620,375,ls)
);
}
);
width = 894;
}
);
metricLeft = sheqel;
metricRight = sheqel;
note = newsheqelsign;
},
{
color = 6;
glyphname = sterling;
lastChange = "2025-10-29 14:39:49 +0000";
layers = (
{
layerId = "15880153-BF49-4651-A558-57743A88E547";
shapes = (
{
closed = 1;
nodes = (
(152,-17,o),
(313,-5,o),
(389,-3,cs),
(447,-1,o),
(476,14,o),
(470,50,cs),
(464,85,o),
(435,96,o),
(401,97,cs),
(357,98,o),
(279,95,o),
(163,85,c),
(194,138,o),
(209,184,o),
(221,236,cs),
(233,291,o),
(242,355,o),
(256,406,cs),
(274,471,o),
(303,486,o),
(348,486,cs),
(376,486,o),
(402,473,o),
(428,444,cs),
(451,418,o),
(471,409,o),
(492,416,cs),
(506,421,o),
(516,439,o),
(512,465,cs),
(506,507,o),
(459,573,o),
(360,573,cs),
(281,573,o),
(180,548,o),
(151,399,cs),
(134,313,o),
(119,227,o),
(96,171,cs),
(77,126,o),
(21,81,o),
(8,33,cs),
(0,4,o),
(15,-18,o),
(52,-18,cs)
);
},
{
closed = 1;
nodes = (
(38,250,o),
(50,237,o),
(72,238,cs),
(384,248,ls),
(401,249,o),
(426,262,o),
(428,282,cs),
(429,301,o),
(400,319,o),
(376,316,cs),
(328,311,o),
(165,310,o),
(75,311,cs),
(46,311,o),
(36,300,o),
(36,273,cs)
);
}
);
width = 592;
}
);
unicode = 163;
},
{
color = 6;
glyphname = yen;
lastChange = "2025-10-29 14:39:49 +0000";
layers = (
{
layerId = "15880153-BF49-4651-A558-57743A88E547";
shapes = (
{
closed = 1;
nodes = (
(417,355,o),
(486,432,o),
(585,546,cs),
(605,569,o),
(598,596,o),
(582,611,cs),
(558,631,o),
(527,626,o),
(495,594,cs),
(412,509,o),
(347,434,o),
(279,358,c),
(298,344,l),
(284,395,o),
(257,502,o),
(234,571,cs),
(220,614,o),
(208,626,o),
(184,626,cs),
(157,626,o),
(125,604,o),
(133,564,cs),
(155,460,o),
(196,344,o),
(221,246,c),
(311,245,l)
);
},
{
closed = 1;
nodes = (
(269,-15,o),
(272,42,o),
(295,136,cs),
(310,197,o),
(325,256,o),
(339,315,c),
(225,314,l),
(204,228,o),
(186,145,o),
(170,69,cs),
(159,9,o),
(188,-14,o),
(215,-15,cs)
);
},
{
closed = 1;
nodes = (
(49,270,o),
(61,258,o),
(83,258,cs),
(502,266,ls),
(519,266,o),
(544,280,o),
(546,300,cs),
(547,319,o),
(518,337,o),
(494,334,cs),
(425,327,o),
(217,330,o),
(86,331,cs),
(57,331,o),
(47,320,o),
(47,293,cs)
);
},
{
closed = 1;
nodes = (
(504,204,o),
(492,216,o),
(470,216,cs),
(51,208,ls),
(34,208,o),
(9,194,o),
(7,174,cs),
(6,155,o),
(35,137,o),
(59,140,cs),
(128,147,o),
(336,144,o),
(467,143,cs),
(496,143,o),
(506,154,o),
(506,181,cs)
);
}
);
width = 568;
}
);
unicode = 165;
},
{
color = 6;
glyphname = alephsymbol;
lastChange = "2025-10-29 14:39:49 +0000";
layers = (
{
associatedMasterId = "15880153-BF49-4651-A558-57743A88E547";
layerId = "9EAC427F-676B-42B9-AB08-10C69BFC3819";
shapes = (
{
closed = 1;
nodes = (
(685,477,l),
(372,658,l),
(59,477,l),
(372,297,l)
);
},
{
closed = 1;
nodes = (
(275,7,o),
(194,166,o),
(165,229,c),
(145,238,o),
(144,225,o),
(148,207,cs),
(154,180,o),
(173,133,o),
(184,103,c),
(184,97,o),
(177,82,o),
(177,82,c),
(132,108,ls),
(123,113,o),
(117,109,o),
(116,106,c),
(95,124,l),
(101,149,l),
(101,149,o),
(102,150,o),
(115,143,cs),
(131,134,l),
(132,137,l),
(125,159,o),
(114,196,o),
(113,211,cs),
(110,249,o),
(126,263,o),
(151,254,c),
(133,286,o),
(97,339,o),
(97,339,cs),
(97,339,o),
(116,363,o),
(138,350,c),
(148,330,o),
(188,227,o),
(229,156,c),
(251,167,o),
(245,213,o),
(243,245,c),
(216,269,l),
(216,300,l),
(244,289,l),
(248,274,o),
(257,258,o),
(269,251,cs),
(312,227,l),
(316,219,l),
(310,205,l),
(295,213,l),
(295,206,o),
(292,142,o),
(246,123,c),
(267,84,o),
(309,31,o),
(309,31,c),
(310,24,l),
(275,7,l)
);
},
{
closed = 1;
nodes = (
(362,279,l),
(49,460,l),
(50,100,l),
(362,-82,l)
);
},
{
closed = 1;
nodes = (
(437,40,l),
(437,40,o),
(438,44,o),
(451,51,cs),
(466,59,l),
(467,65,l),
(459,77,o),
(449,102,o),
(448,118,cs),
(446,153,o),
(460,185,o),
(486,206,c),
(468,217,o),
(433,232,o),
(433,232,cs),
(433,232,o),
(452,278,o),
(473,290,c),
(481,277,o),
(523,222,o),
(561,193,c),
(585,234,o),
(579,272,o),
(575,304,c),
(549,295,l),
(549,327,l),
(578,348,l),
(581,339,o),
(589,332,o),
(601,339,cs),
(643,362,l),
(647,359,l),
(642,339,l),
(628,331,l),
(628,322,o),
(624,253,o),
(580,180,c),
(600,166,o),
(641,159,o),
(641,159,c),
(641,154,l),
(607,97,l),
(607,97,o),
(528,165,o),
(500,196,c),
(480,182,o),
(479,167,o),
(482,153,cs),
(487,130,o),
(506,105,o),
(517,89,c),
(517,82,o),
(510,59,o),
(510,59,c),
(467,33,ls),
(457,27,o),
(454,18,o),
(452,13,c),
(431,7,l)
);
},
{
closed = 1;
nodes = (
(694,100,l),
(695,460,l),
(382,280,l),
(382,-82,l)
);
},
{
closed = 1;
nodes = (
(326,367,ls),
(326,367,o),
(344,470,o),
(354,509,c),
(334,519,o),
(321,511,o),
(310,503,cs),
(290,488,o),
(282,456,o),
(273,440,c),
(267,436,o),
(244,429,o),
(244,429,c),
(200,455,ls),
(190,461,o),
(181,459,o),
(175,458,c),
(160,473,l),
(190,483,l),
(190,483,o),
(193,484,o),
(207,477,cs),
(220,470,l),
(226,471,l),
(234,483,o),
(249,505,o),
(262,513,cs),
(292,532,o),
(327,537,o),
(356,526,c),
(357,547,o),
(353,585,o),
(353,585,cs),
(353,585,o),
(402,592,o),
(423,581,c),
(417,567,o),
(390,503,o),
(387,454,c),
(430,455,o),
(462,480,o),
(487,499,c),
(466,517,l),
(494,533,l),
(527,520,l),
(521,511,o),
(518,502,o),
(530,495,cs),
(573,471,l),
(571,466,l),
(551,459,l),
(537,468,l),
(529,464,o),
(469,431,o),
(383,432,c),
(382,409,o),
(396,370,o),
(396,370,c),
(391,366,l)
);
}
);
width = 744;
},
{
layerId = "15880153-BF49-4651-A558-57743A88E547";
shapes = (
{
closed = 1;
nodes = (
(715,477,l),
(402,658,l),
(89,477,l),
(402,297,l)
);
},
{
closed = 1;
nodes = (
(305,7,o),
(224,166,o),
(195,229,c),
(175,238,o),
(174,225,o),
(178,207,cs),
(184,180,o),
(203,133,o),
(214,103,c),
(214,97,o),
(207,82,o),
(207,82,c),
(162,108,ls),
(153,113,o),
(147,109,o),
(146,106,c),
(125,124,l),
(131,149,l),
(131,149,o),
(132,150,o),
(145,143,cs),
(161,134,l),
(162,137,l),
(155,159,o),
(144,196,o),
(143,211,cs),
(140,249,o),
(156,263,o),
(181,254,c),
(163,286,o),
(127,339,o),
(127,339,cs),
(127,339,o),
(146,363,o),
(168,350,c),
(178,330,o),
(218,227,o),
(259,156,c),
(281,167,o),
(275,213,o),
(273,245,c),
(246,269,l),
(246,300,l),
(274,289,l),
(278,274,o),
(287,258,o),
(299,251,cs),
(342,227,l),
(346,219,l),
(340,205,l),
(325,213,l),
(325,206,o),
(322,142,o),
(276,123,c),
(297,84,o),
(339,31,o),
(339,31,c),
(340,24,l),
(305,7,l)
);
},
{
closed = 1;
nodes = (
(392,279,l),
(79,460,l),
(80,100,l),
(392,-82,l)
);
},
{
closed = 1;
nodes = (
(467,40,l),
(467,40,o),
(468,44,o),
(481,51,cs),
(496,59,l),
(497,65,l),
(489,77,o),
(479,102,o),
(478,118,cs),
(476,153,o),
(490,185,o),
(516,206,c),
(498,217,o),
(463,232,o),
(463,232,cs),
(463,232,o),
(482,278,o),
(503,290,c),
(511,277,o),
(553,222,o),
(591,193,c),
(615,234,o),
(609,272,o),
(605,304,c),
(579,295,l),
(579,327,l),
(608,348,l),
(611,339,o),
(619,332,o),
(631,339,cs),
(673,362,l),
(677,359,l),
(672,339,l),
(658,331,l),
(658,322,o),
(654,253,o),
(610,180,c),
(630,166,o),
(671,159,o),
(671,159,c),
(671,154,l),
(637,97,l),
(637,97,o),
(558,165,o),
(530,196,c),
(510,182,o),
(509,167,o),
(512,153,cs),
(517,130,o),
(536,105,o),
(547,89,c),
(547,82,o),
(540,59,o),
(540,59,c),
(497,33,ls),
(487,27,o),
(484,18,o),
(482,13,c),
(461,7,l)
);
},
{
closed = 1;
nodes = (
(724,100,l),
(725,460,l),
(412,280,l),
(412,-82,l)
);
},
{
closed = 1;
nodes = (
(356,367,ls),
(356,367,o),
(374,470,o),
(384,509,c),
(364,519,o),
(351,511,o),
(340,503,cs),
(320,488,o),
(312,456,o),
(303,440,c),
(297,436,o),
(274,429,o),
(274,429,c),
(230,455,ls),
(220,461,o),
(211,459,o),
(205,458,c),
(190,473,l),
(220,483,l),
(220,483,o),
(223,484,o),
(237,477,cs),
(250,470,l),
(256,471,l),
(264,483,o),
(279,505,o),
(292,513,cs),
(322,532,o),
(357,537,o),
(386,526,c),
(387,547,o),
(383,585,o),
(383,585,cs),
(383,585,o),
(432,592,o),
(453,581,c),
(447,567,o),
(420,503,o),
(417,454,c),
(460,455,o),
(492,480,o),
(517,499,c),
(496,517,l),
(524,533,l),
(557,520,l),
(551,511,o),
(548,502,o),
(560,495,cs),
(603,471,l),
(601,466,l),
(581,459,l),
(567,468,l),
(559,464,o),
(499,431,o),
(413,432,c),
(412,409,o),
(426,370,o),
(426,370,c),
(421,366,l)
);
}
);
width = 788;
},
{
associatedMasterId = "15880153-BF49-4651-A558-57743A88E547";
layerId = "E5899A72-38E4-4D55-831F-7A011BA846D7";
shapes = (
{
closed = 1;
nodes = (
(685,477,l),
(372,658,l),
(59,477,l),
(372,297,l)
);
},
{
closed = 1;
nodes = (
(275,7,o),
(194,166,o),
(165,229,c),
(145,238,o),
(144,225,o),
(148,207,cs),
(154,180,o),
(173,133,o),
(184,103,c),
(184,97,o),
(177,82,o),
(177,82,c),
(132,108,ls),
(123,113,o),
(117,109,o),
(116,106,c),
(95,124,l),
(101,149,l),
(101,149,o),
(102,150,o),
(115,143,cs),
(131,134,l),
(132,137,l),
(125,159,o),
(114,196,o),
(113,211,cs),
(110,249,o),
(126,263,o),
(151,254,c),
(133,286,o),
(97,339,o),
(97,339,cs),
(97,339,o),
(116,363,o),
(138,350,c),
(148,330,o),
(188,227,o),
(229,156,c),
(251,167,o),
(245,213,o),
(243,245,c),
(216,269,l),
(216,300,l),
(244,289,l),
(248,274,o),
(257,258,o),
(269,251,cs),
(312,227,l),
(316,219,l),
(310,205,l),
(295,213,l),
(295,206,o),
(292,142,o),
(246,123,c),
(267,84,o),
(309,31,o),
(309,31,c),
(310,24,l),
(275,7,l)
);
},
{
closed = 1;
nodes = (
(362,279,l),
(49,460,l),
(50,100,l),
(362,-82,l)
);
},
{
closed = 1;
nodes = (
(437,40,l),
(437,40,o),
(438,44,o),
(451,51,cs),
(466,59,l),
(467,65,l),
(459,77,o),
(449,102,o),
(448,118,cs),
(446,153,o),
(460,185,o),
(486,206,c),
(468,217,o),
(433,232,o),
(433,232,cs),
(433,232,o),
(452,278,o),
(473,290,c),
(481,277,o),
(523,222,o),
(561,193,c),
(585,234,o),
(579,272,o),
(575,304,c),
(549,295,l),
(549,327,l),
(578,348,l),
(581,339,o),
(589,332,o),
(601,339,cs),
(643,362,l),
(647,359,l),
(642,339,l),
(628,331,l),
(628,322,o),
(624,253,o),
(580,180,c),
(600,166,o),
(641,159,o),
(641,159,c),
(641,154,l),
(607,97,l),
(607,97,o),
(528,165,o),
(500,196,c),
(480,182,o),
(479,167,o),
(482,153,cs),
(487,130,o),
(506,105,o),
(517,89,c),
(517,82,o),
(510,59,o),
(510,59,c),
(467,33,ls),
(457,27,o),
(454,18,o),
(452,13,c),
(431,7,l)
);
},
{
closed = 1;
nodes = (
(694,100,l),
(695,460,l),
(382,280,l),
(382,-82,l)
);
},
{
closed = 1;
nodes = (
(326,367,ls),
(326,367,o),
(344,470,o),
(354,509,c),
(334,519,o),
(321,511,o),
(310,503,cs),
(290,488,o),
(282,456,o),
(273,440,c),
(267,436,o),
(244,429,o),
(244,429,c),
(200,455,ls),
(190,461,o),
(181,459,o),
(175,458,c),
(160,473,l),
(190,483,l),
(190,483,o),
(193,484,o),
(207,477,cs),
(220,470,l),
(226,471,l),
(234,483,o),
(249,505,o),
(262,513,cs),
(292,532,o),
(327,537,o),
(356,526,c),
(357,547,o),
(353,585,o),
(353,585,cs),
(353,585,o),
(402,592,o),
(423,581,c),
(417,567,o),
(390,503,o),
(387,454,c),
(430,455,o),
(462,480,o),
(487,499,c),
(466,517,l),
(494,533,l),
(527,520,l),
(521,511,o),
(518,502,o),
(530,495,cs),
(573,471,l),
(571,466,l),
(551,459,l),
(537,468,l),
(529,464,o),
(469,431,o),
(383,432,c),
(382,409,o),
(396,370,o),
(396,370,c),
(391,366,l)
);
}
);
width = 744;
}
);
metricRight = "=|";
unicode = 8501;
},
{
color = 6;
glyphname = plus;
kernLeft = middle;
kernRight = middle;
lastChange = "2025-10-29 14:39:49 +0000";
layers = (
{
layerId = "15880153-BF49-4651-A558-57743A88E547";
shapes = (
{
closed = 1;
nodes = (
(187,62,o),
(206,71,o),
(219,99,cs),
(232,127,o),
(319,416,o),
(329,445,cs),
(337,473,o),
(314,498,o),
(298,501,cs),
(275,505,o),
(250,486,o),
(245,470,cs),
(234,436,o),
(134,137,o),
(130,115,cs),
(128,94,o),
(138,70,o),
(158,67,cs)
);
},
{
closed = 1;
nodes = (
(427,237,o),
(452,268,o),
(454,285,cs),
(458,309,o),
(437,327,o),
(421,327,cs),
(387,327,o),
(86,335,o),
(65,331,cs),
(43,327,o),
(20,309,o),
(17,289,cs),
(12,258,o),
(23,242,o),
(52,238,cs),
(80,234,o),
(369,237,o),
(399,237,cs)
);
}
);
width = 464;
}
);
metricLeft = hyphen;
metricRight = hyphen;
unicode = 43;
},
{
color = 6;
glyphname = minus;
kernLeft = middle;
kernRight = middle;
lastChange = "2025-10-29 14:39:49 +0000";
layers = (
{
layerId = "15880153-BF49-4651-A558-57743A88E547";
shapes = (
{
closed = 1;
nodes = (
(436,237,o),
(456,268,o),
(456,285,cs),
(456,309,o),
(433,327,o),
(417,327,cs),
(383,327,o),
(81,335,o),
(60,331,cs),
(39,327,o),
(18,309,o),
(18,289,cs),
(18,258,o),
(31,242,o),
(60,238,cs),
(89,234,o),
(378,237,o),
(408,237,cs)
);
}
);
width = 467;
}
);
metricLeft = hyphen;
metricRight = hyphen;
unicode = 8722;
},
{
color = 6;
glyphname = multiply;
lastChange = "2025-10-29 14:39:49 +0000";
layers = (
{
layerId = "15880153-BF49-4651-A558-57743A88E547";
shapes = (
{
closed = 1;
nodes = (
(103,149,o),
(360,355,o),
(375,373,cs),
(391,390,o),
(398,417,o),
(386,432,cs),
(368,454,o),
(347,456,o),
(321,438,cs),
(294,420,o),
(53,216,o),
(28,195,cs),
(6,175,o),
(7,139,o),
(17,127,cs),
(31,111,o),
(60,114,o),
(74,125,cs)
);
},
{
closed = 1;
nodes = (
(329,125,o),
(336,155,o),
(327,167,cs),
(311,195,o),
(174,440,o),
(161,454,cs),
(148,469,o),
(122,474,o),
(104,462,cs),
(76,444,o),
(67,425,o),
(77,400,cs),
(87,374,o),
(227,144,o),
(241,122,cs),
(255,99,o),
(292,101,o),
(307,111,cs)
);
}
);
width = 403;
}
);
unicode = 215;
},
{
color = 3;
glyphname = divide;
kernLeft = bottom;
kernRight = bottom;
lastChange = "2025-10-29 14:39:49 +0000";
layers = (
{
layerId = "15880153-BF49-4651-A558-57743A88E547";
shapes = (
{
closed = 1;
nodes = (
(438,245,o),
(458,276,o),
(458,293,cs),
(458,317,o),
(435,335,o),
(419,335,cs),
(385,335,o),
(83,343,o),
(62,339,cs),
(41,335,o),
(20,317,o),
(20,297,cs),
(20,266,o),
(33,250,o),
(62,246,cs),
(91,242,o),
(380,245,o),
(410,245,cs)
);
},
{
pos = (232,380);
ref = period;
scale = (0.9,0.9);
},
{
pos = (173,79);
ref = period;
scale = (0.9,0.9);
}
);
width = 466;
}
);
metricLeft = hyphen;
metricRight = hyphen;
unicode = 247;
},
{
color = 6;
glyphname = equal;
kernLeft = middle;
kernRight = middle;
lastChange = "2025-10-29 14:39:49 +0000";
layers = (
{
layerId = "15880153-BF49-4651-A558-57743A88E547";
shapes = (
{
closed = 1;
nodes = (
(405,161,o),
(425,192,o),
(425,209,cs),
(425,233,o),
(402,251,o),
(386,251,cs),
(352,251,o),
(70,259,o),
(49,255,cs),
(28,251,o),
(7,233,o),
(7,213,cs),
(7,182,o),
(20,166,o),
(49,162,cs),
(78,158,o),
(347,161,o),
(377,161,cs)
);
},
{
closed = 1;
nodes = (
(450,322,o),
(470,353,o),
(470,370,cs),
(470,394,o),
(447,412,o),
(431,412,cs),
(397,412,o),
(115,420,o),
(94,416,cs),
(73,412,o),
(52,394,o),
(52,374,cs),
(52,343,o),
(65,327,o),
(94,323,cs),
(123,319,o),
(392,322,o),
(422,322,cs)
);
}
);
width = 467;
}
);
unicode = 61;
},
{
color = 6;
glyphname = greater;
kernRight = middle;
lastChange = "2025-10-29 14:39:49 +0000";
layers = (
{
layerId = "15880153-BF49-4651-A558-57743A88E547";
shapes = (
{
closed = 1;
nodes = (
(157,139,o),
(326,198,o),
(385,247,cs),
(413,270,o),
(410,309,o),
(377,327,cs),
(297,370,o),
(218,415,o),
(137,458,cs),
(107,474,o),
(74,467,o),
(61,440,cs),
(48,413,o),
(72,395,o),
(100,377,cs),
(180,325,o),
(259,304,o),
(338,267,c),
(310,304,l),
(256,271,o),
(94,237,o),
(40,196,cs),
(15,177,o),
(4,153,o),
(18,125,cs),
(32,98,o),
(65,108,o),
(98,119,cs)
);
}
);
width = 440;
}
);
unicode = 62;
},
{
color = 6;
glyphname = asciitilde;
kernLeft = middle;
kernRight = middle;
lastChange = "2025-10-29 14:39:49 +0000";
layers = (
{
layerId = "15880153-BF49-4651-A558-57743A88E547";
shapes = (
{
closed = 1;
nodes = (
(96,190,o),
(115,208,o),
(116,246,cs),
(117,274,o),
(139,295,o),
(158,290,cs),
(205,278,o),
(215,203,o),
(310,198,cs),
(380,194,o),
(441,232,o),
(447,310,cs),
(449,335,o),
(446,367,o),
(421,368,cs),
(390,369,o),
(366,348,o),
(365,316,cs),
(364,291,o),
(338,275,o),
(322,277,cs),
(297,280,o),
(281,303,o),
(251,333,cs),
(231,353,o),
(204,382,o),
(164,385,cs),
(127,388,o),
(94,370,o),
(68,352,cs),
(37,330,o),
(25,297,o),
(23,254,cs),
(21,217,o),
(35,192,o),
(71,191,cs)
);
}
);
width = 470;
}
);
unicode = 126;
},
{
color = 6;
glyphname = asciicircum;
kernLeft = top;
kernRight = top;
lastChange = "2025-10-29 14:39:49 +0000";
layers = (
{
layerId = "15880153-BF49-4651-A558-57743A88E547";
shapes = (
{
closed = 1;
nodes = (
(351,398,o),
(372,433,o),
(363,455,cs),
(356,473,o),
(318,616,o),
(310,638,cs),
(306,650,o),
(285,675,o),
(265,677,cs),
(230,681,o),
(195,650,o),
(180,627,cs),
(165,603,o),
(77,503,o),
(52,465,cs),
(38,445,o),
(50,415,o),
(72,411,cs),
(94,407,o),
(131,430,o),
(152,457,cs),
(278,617,l),
(236,622,l),
(251,558,o),
(275,453,o),
(281,431,cs),
(287,410,o),
(307,393,o),
(322,395,cs)
);
}
);
width = 330;
}
);
unicode = 94;
},
{
color = 6;
glyphname = percent;
lastChange = "2025-10-29 14:39:49 +0000";
layers = (
{
layerId = "15880153-BF49-4651-A558-57743A88E547";
shapes = (
{
closed = 1;
nodes = (
(64,-7,o),
(100,-8,o),
(110,4,cs),
(187,96,o),
(493,405,o),
(565,505,cs),
(578,523,o),
(581,553,o),
(566,562,cs),
(542,577,o),
(513,566,o),
(495,546,cs),
(366,403,o),
(187,211,o),
(54,60,c),
(39,40,o),
(39,13,o),
(51,3,cs)
);
},
{
closed = 1;
nodes = (
(495,-13,o),
(552,73,o),
(557,149,cs),
(562,224,o),
(531,273,o),
(457,273,cs),
(382,273,o),
(311,192,o),
(306,112,cs),
(302,42,o),
(333,-13,o),
(406,-13,cs)
);
},
{
closed = 1;
nodes = (
(394,64,o),
(380,85,o),
(381,105,cs),
(382,126,o),
(392,147,o),
(394,147,cs),
(400,147,o),
(402,151,o),
(407,158,cs),
(411,164,o),
(410,171,o),
(412,173,cs),
(417,178,o),
(431,198,o),
(450,198,cs),
(480,198,o),
(485,169,o),
(484,147,cs),
(482,111,o),
(451,64,o),
(412,64,cs)
);
},
{
closed = 1;
nodes = (
(253,296,o),
(310,382,o),
(314,459,cs),
(318,533,o),
(289,582,o),
(215,582,cs),
(140,582,o),
(67,501,o),
(64,421,cs),
(61,352,o),
(91,296,o),
(164,296,cs)
);
},
{
closed = 1;
nodes = (
(148,377,o),
(142,410,o),
(146,439,cs),
(150,470,o),
(183,503,o),
(206,503,cs),
(235,503,o),
(239,476,o),
(238,457,cs),
(236,421,o),
(208,377,o),
(171,377,cs)
);
}
);
width = 620;
}
);
unicode = 37;
},
{
color = 6;
glyphname = at;
kernLeft = at;
kernRight = at;
lastChange = "2025-10-29 14:39:49 +0000";
layers = (
{
layerId = "15880153-BF49-4651-A558-57743A88E547";
shapes = (
{
closed = 1;
nodes = (
(431,-70,o),
(467,-37,o),
(464,-3,cs),
(461,23,o),
(418,32,o),
(325,24,cs),
(170,11,o),
(107,117,o),
(150,271,cs),
(194,426,o),
(322,532,o),
(475,532,cs),
(630,532,o),
(701,412,o),
(667,271,cs),
(640,155,o),
(564,111,o),
(555,207,cs),
(544,314,o),
(657,480,o),
(563,449,cs),
(535,439,o),
(492,349,o),
(488,330,cs),
(486,312,o),
(466,264,o),
(459,223,cs),
(447,163,o),
(481,88,o),
(532,67,cs),
(606,39,o),
(714,110,o),
(753,271,cs),
(802,465,o),
(685,635,o),
(491,635,cs),
(298,635,o),
(104,470,o),
(41,271,cs),
(-20,80,o),
(107,-90,o),
(302,-78,cs)
);
},
{
closed = 1;
nodes = (
(375,54,o),
(508,99,o),
(514,197,cs),
(515,215,o),
(525,242,o),
(505,249,cs),
(489,256,o),
(464,243,o),
(459,223,cs),
(443,164,o),
(379,167,o),
(360,178,cs),
(327,197,o),
(331,242,o),
(354,296,cs),
(389,377,o),
(438,397,o),
(468,392,cs),
(486,388,o),
(495,371,o),
(488,330,c),
(556,325,l),
(567,341,o),
(554,378,o),
(553,406,cs),
(549,446,o),
(540,484,o),
(494,489,cs),
(432,497,o),
(326,471,o),
(262,342,cs),
(202,223,o),
(225,128,o),
(296,93,cs)
);
}
);
width = 809;
},
{
associatedMasterId = "15880153-BF49-4651-A558-57743A88E547";
layerId = "9EAC427F-676B-42B9-AB08-10C69BFC3819";
width = 600;
},
{
associatedMasterId = "15880153-BF49-4651-A558-57743A88E547";
layerId = "E5899A72-38E4-4D55-831F-7A011BA846D7";
width = 600;
}
);
unicode = 64;
},
{
color = 6;
glyphname = ampersand;
lastChange = "2025-10-29 14:39:49 +0000";
layers = (
{
layerId = "15880153-BF49-4651-A558-57743A88E547";
shapes = (
{
closed = 1;
nodes = (
(109,-78,o),
(297,-21,o),
(442,215,cs),
(470,260,o),
(517,308,o),
(484,348,cs),
(460,377,o),
(419,346,o),
(407,321,cs),
(267,62,o),
(69,14,o),
(77,133,cs),
(79,166,o),
(119,223,o),
(177,261,cs),
(354,380,o),
(426,396,o),
(437,464,cs),
(453,558,o),
(395,619,o),
(320,636,cs),
(233,654,o),
(146,606,o),
(131,550,cs),
(122,517,o),
(103,494,o),
(141,432,cs),
(198,339,o),
(267,394,o),
(259,411,cs),
(222,492,o),
(223,540,o),
(270,548,cs),
(324,556,o),
(362,510,o),
(347,479,cs),
(325,428,o),
(273,448,o),
(92,308,cs),
(-66,187,o),
(-47,52,o),
(8,6,cs)
);
},
{
closed = 1;
nodes = (
(463,-27,o),
(471,7,o),
(457,35,cs),
(259,410,ls),
(251,427,o),
(133,449,o),
(141,432,cs),
(362,-12,ls),
(376,-41,o),
(405,-47,o),
(434,-37,cs)
);
}
);
width = 500;
},
{
associatedMasterId = "15880153-BF49-4651-A558-57743A88E547";
layerId = "9EAC427F-676B-42B9-AB08-10C69BFC3819";
width = 600;
},
{
associatedMasterId = "15880153-BF49-4651-A558-57743A88E547";
layerId = "E5899A72-38E4-4D55-831F-7A011BA846D7";
width = 600;
}
);
unicode = 38;
},
{
color = 6;
glyphname = copyright;
lastChange = "2025-10-29 14:39:49 +0000";
layers = (
{
layerId = "15880153-BF49-4651-A558-57743A88E547";
shapes = (
{
closed = 1;
nodes = (
(352,74,o),
(425,136,o),
(445,190,cs),
(451,206,o),
(443,230,o),
(425,237,cs),
(409,243,o),
(381,231,o),
(375,213,cs),
(367,190,o),
(335,166,o),
(317,176,cs),
(284,194,o),
(285,244,o),
(300,293,cs),
(326,377,o),
(377,402,o),
(405,396,cs),
(420,393,o),
(430,377,o),
(425,366,cs),
(416,346,o),
(422,323,o),
(440,316,cs),
(452,311,o),
(476,313,o),
(491,340,cs),
(499,354,o),
(504,368,o),
(500,393,cs),
(494,429,o),
(461,464,o),
(419,469,cs),
(361,476,o),
(268,452,o),
(222,335,cs),
(180,227,o),
(209,141,o),
(277,109,cs)
);
},
{
closed = 1;
nodes = (
(238,602,o),
(76,534,o),
(27,285,cs),
(-7,111,o),
(123,-45,o),
(299,-45,cs),
(474,-45,o),
(635,105,o),
(673,285,cs),
(710,459,o),
(579,602,o),
(403,602,cs)
);
},
{
closed = 1;
nodes = (
(549,152,o),
(438,51,o),
(306,51,cs),
(172,51,o),
(86,164,o),
(116,285,cs),
(160,461,o),
(267,517,o),
(390,517,cs),
(523,517,o),
(596,418,o),
(572,285,cs)
);
}
);
width = 692;
}
);
unicode = 169;
},
{
color = 6;
glyphname = registered;
kernLeft = top;
kernRight = top;
lastChange = "2025-10-29 14:39:49 +0000";
layers = (
{
layerId = "15880153-BF49-4651-A558-57743A88E547";
shapes = (
{
closed = 1;
nodes = (
(493,199,o),
(625,327,o),
(655,480,cs),
(690,637,o),
(569,764,o),
(408,764,cs),
(274,764,o),
(141,709,o),
(100,503,cs),
(68,344,o),
(191,199,o),
(348,199,cs)
);
},
{
closed = 1;
nodes = (
(242,291,o),
(165,395,o),
(190,502,cs),
(225,633,o),
(300,678,o),
(393,678,cs),
(515,678,o),
(579,593,o),
(559,481,cs),
(542,374,o),
(460,291,o),
(359,291,cs)
);
},
{
closed = 1;
nodes = (
(286,350,o),
(298,358,o),
(307,373,c),
(323,421,o),
(347,537,o),
(357,598,cs),
(363,633,o),
(341,648,o),
(325,647,cs),
(291,646,o),
(288,613,o),
(282,577,cs),
(278,560,o),
(271,522,o),
(263,482,cs),
(255,443,o),
(246,402,o),
(243,387,cs),
(239,371,o),
(251,350,o),
(275,350,cs)
);
},
{
closed = 1;
nodes = (
(501,366,o),
(496,389,o),
(477,411,c),
(481,405,o),
(458,430,o),
(380,519,c),
(317,491,l),
(332,474,o),
(348,456,o),
(365,436,cs),
(390,406,o),
(414,378,o),
(431,362,c),
(439,352,o),
(459,340,o),
(478,352,cs)
);
},
{
closed = 1;
nodes = (
(414,463,o),
(502,518,o),
(502,576,cs),
(502,621,o),
(455,645,o),
(415,647,cs),
(381,650,o),
(346,644,o),
(309,624,c),
(296,558,l),
(325,571,o),
(360,582,o),
(397,582,cs),
(420,582,o),
(426,573,o),
(426,567,cs),
(426,556,o),
(382,514,o),
(306,515,c),
(294,454,l)
);
}
);
width = 641;
}
);
unicode = 174;
},
{
color = 6;
glyphname = trademark;
kernLeft = top;
kernRight = top;
lastChange = "2025-10-29 14:39:49 +0000";
layers = (
{
layerId = "15880153-BF49-4651-A558-57743A88E547";
shapes = (
{
closed = 1;
nodes = (
(853,301,o),
(874,318,o),
(873,345,cs),
(869,419,o),
(875,592,o),
(864,682,cs),
(860,709,o),
(846,722,o),
(826,722,cs),
(810,722,o),
(795,711,o),
(784,693,cs),
(749,638,o),
(670,505,o),
(649,471,c),
(676,464,l),
(670,537,o),
(660,616,o),
(652,682,cs),
(648,709,o),
(635,722,o),
(614,722,cs),
(599,722,o),
(584,711,o),
(573,693,cs),
(503,583,o),
(451,467,o),
(397,355,cs),
(387,335,o),
(392,317,o),
(402,307,cs),
(419,291,o),
(450,290,o),
(465,320,cs),
(505,408,o),
(562,518,o),
(606,598,c),
(579,602,l),
(586,562,o),
(595,491,o),
(601,439,cs),
(605,410,o),
(603,368,o),
(632,357,cs),
(648,351,o),
(670,353,o),
(683,376,cs),
(712,423,o),
(789,550,o),
(817,598,c),
(792,604,l),
(792,583,o),
(795,383,o),
(799,341,cs),
(800,312,o),
(816,301,o),
(833,301,cs)
);
},
{
closed = 1;
nodes = (
(294,302,o),
(300,351,o),
(312,421,cs),
(330,512,o),
(343,602,o),
(352,680,cs),
(356,721,o),
(332,736,o),
(312,735,cs),
(280,732,o),
(275,702,o),
(269,662,cs),
(264,634,o),
(229,392,o),
(220,338,cs),
(216,316,o),
(230,295,o),
(257,296,cs)
);
},
{
closed = 1;
nodes = (
(246,621,o),
(354,626,o),
(430,634,cs),
(454,637,o),
(477,650,o),
(478,673,cs),
(478,703,o),
(451,708,o),
(429,708,cs),
(366,708,o),
(224,700,o),
(166,694,cs),
(145,693,o),
(123,683,o),
(120,657,cs),
(117,628,o),
(141,616,o),
(177,618,cs)
);
}
);
width = 909;
}
);
unicode = 8482;
},
{
color = 6;
glyphname = degree;
kernLeft = top;
kernRight = top;
lastChange = "2025-10-29 14:39:49 +0000";
layers = (
{
layerId = "15880153-BF49-4651-A558-57743A88E547";
shapes = (
{
closed = 1;
nodes = (
(336,406,o),
(398,461,o),
(414,550,cs),
(430,639,o),
(378,705,o),
(289,705,cs),
(200,705,o),
(126,659,o),
(110,570,cs),
(94,481,o),
(158,406,o),
(247,406,cs)
);
},
{
closed = 1;
nodes = (
(214,486,o),
(191,513,o),
(199,552,cs),
(207,591,o),
(239,618,o),
(277,618,cs),
(315,618,o),
(338,591,o),
(331,552,cs),
(324,513,o),
(292,486,o),
(254,486,cs)
);
}
);
width = 360;
}
);
unicode = 176;
},
{
color = 6;
glyphname = bar;
lastChange = "2025-10-29 14:39:49 +0000";
layers = (
{
layerId = "15880153-BF49-4651-A558-57743A88E547";
shapes = (
{
closed = 1;
nodes = (
(-31,-125,o),
(-12,-117,o),
(-4,-96,cs),
(267,655,ls),
(276,681,o),
(260,710,o),
(229,720,cs),
(205,728,o),
(183,718,o),
(176,696,cs),
(-70,-71,ls),
(-76,-91,o),
(-69,-111,o),
(-50,-118,cs)
);
}
);
width = 187;
}
);
unicode = 124;
},
{
color = 6;
glyphname = "sheva-hb";
lastChange = "2025-10-29 14:39:49 +0000";
layers = (
{
anchors = (
{
name = _bottom;
pos = (279,79);
}
);
layerId = "15880153-BF49-4651-A558-57743A88E547";
shapes = (
{
closed = 1;
nodes = (
(270.796,-83.538,o),
(296.064,-66.86,o),
(296.064,-46.14,cs),
(296.064,-25.925,o),
(284.441,-9.248,o),
(259.172,-9.248,cs),
(238.452,-9.248,o),
(221.774,-25.925,o),
(221.774,-46.14,cs),
(221.774,-66.86,o),
(227.839,-83.538,o),
(250.581,-83.538,cs)
);
},
{
closed = 1;
nodes = (
(246.796,-196.538,o),
(272.064,-179.86,o),
(272.064,-159.14,cs),
(272.064,-138.925,o),
(260.441,-122.248,o),
(235.172,-122.248,cs),
(214.452,-122.248,o),
(197.774,-138.925,o),
(197.774,-159.14,cs),
(197.774,-179.86,o),
(203.839,-196.538,o),
(226.581,-196.538,cs)
);
}
);
width = 600;
},
{
anchors = (
{
name = _bottom;
pos = (300,0);
}
);
associatedMasterId = "15880153-BF49-4651-A558-57743A88E547";
layerId = "53D8CED4-7490-41E1-AE18-6880BB113318";
name = "new Layer";
shapes = (
{
closed = 1;
nodes = (
(338,-171,o),
(352,-157,o),
(352,-119,cs),
(352,-81,o),
(338,-67,o),
(300,-67,cs),
(262,-67,o),
(248,-81,o),
(248,-119,cs),
(248,-157,o),
(262,-171,o),
(300,-171,cs)
);
},
{
closed = 1;
nodes = (
(338,-332,o),
(352,-318,o),
(352,-280,cs),
(352,-242,o),
(338,-228,o),
(300,-228,cs),
(262,-228,o),
(248,-242,o),
(248,-280,cs),
(248,-318,o),
(262,-332,o),
(300,-332,cs)
);
}
);
width = 600;
},
{
anchors = (
{
name = _bottom;
pos = (300,0);
}
);
associatedMasterId = "15880153-BF49-4651-A558-57743A88E547";
layerId = "8AC24B29-55F9-4874-9405-22E9B184E4B3";
name = "new Layer";
shapes = (
{
closed = 1;
nodes = (
(307,-92,o),
(310,-89,o),
(310,-82,cs),
(310,-75,o),
(307,-72,o),
(300,-72,cs),
(293,-72,o),
(290,-75,o),
(290,-82,cs),
(290,-89,o),
(293,-92,o),
(300,-92,cs)
);
},
{
closed = 1;
nodes = (
(307,-133,o),
(310,-130,o),
(310,-123,cs),
(310,-116,o),
(307,-113,o),
(300,-113,cs),
(293,-113,o),
(290,-116,o),
(290,-123,cs),
(290,-130,o),
(293,-133,o),
(300,-133,cs)
);
}
);
width = 600;
},
{
anchors = (
{
name = _bottom;
pos = (300,0);
}
);
associatedMasterId = "15880153-BF49-4651-A558-57743A88E547";
layerId = "CE52D7F9-3492-461B-8CFC-011AE10DF672";
name = "new Layer";
shapes = (
{
closed = 1;
nodes = (
(331,-154,o),
(343,-143,o),
(343,-111,cs),
(343,-80,o),
(331,-68,o),
(300,-68,cs),
(269,-68,o),
(257,-80,o),
(257,-111,cs),
(257,-143,o),
(269,-154,o),
(300,-154,cs)
);
},
{
closed = 1;
nodes = (
(331,-290,o),
(343,-278,o),
(343,-247,cs),
(343,-215,o),
(331,-204,o),
(300,-204,cs),
(269,-204,o),
(257,-215,o),
(257,-247,cs),
(257,-278,o),
(269,-290,o),
(300,-290,cs)
);
}
);
width = 600;
}
);
unicode = 1456;
},
{
color = 6;
glyphname = "hatafsegol-hb";
lastChange = "2025-10-29 14:39:49 +0000";
layers = (
{
anchors = (
{
name = _bottom;
pos = (306,77);
}
);
layerId = "15880153-BF49-4651-A558-57743A88E547";
shapes = (
{
closed = 1;
nodes = (
(266.796,-86.538,o),
(292.064,-69.86,o),
(292.064,-49.14,cs),
(292.064,-28.925,o),
(280.441,-12.248,o),
(255.172,-12.248,cs),
(234.452,-12.248,o),
(217.774,-28.925,o),
(217.774,-49.14,cs),
(217.774,-69.86,o),
(223.839,-86.538,o),
(246.581,-86.538,cs)
);
},
{
closed = 1;
nodes = (
(155.796,-79.538,o),
(181.064,-62.86,o),
(181.064,-42.14,cs),
(181.064,-21.925,o),
(169.441,-5.248,o),
(144.172,-5.248,cs),
(123.452,-5.248,o),
(106.774,-21.925,o),
(106.774,-42.14,cs),
(106.774,-62.86,o),
(112.839,-79.538,o),
(135.581,-79.538,cs)
);
},
{
closed = 1;
nodes = (
(188.796,-179.538,o),
(214.064,-162.86,o),
(214.064,-142.14,cs),
(214.064,-121.925,o),
(202.441,-105.248,o),
(177.172,-105.248,cs),
(156.452,-105.248,o),
(139.774,-121.925,o),
(139.774,-142.14,cs),
(139.774,-162.86,o),
(145.839,-179.538,o),
(168.581,-179.538,cs)
);
},
{
closed = 1;
nodes = (
(371.796,-90.538,o),
(397.064,-73.86,o),
(397.064,-53.14,cs),
(397.064,-32.925,o),
(385.441,-16.248,o),
(360.172,-16.248,cs),
(339.452,-16.248,o),
(322.774,-32.925,o),
(322.774,-53.14,cs),
(322.774,-73.86,o),
(328.839,-90.538,o),
(351.581,-90.538,cs)
);
},
{
closed = 1;
nodes = (
(349.796,-194.538,o),
(375.064,-177.86,o),
(375.064,-157.14,cs),
(375.064,-136.925,o),
(363.441,-120.248,o),
(338.172,-120.248,cs),
(317.452,-120.248,o),
(300.774,-136.925,o),
(300.774,-157.14,cs),
(300.774,-177.86,o),
(306.839,-194.538,o),
(329.581,-194.538,cs)
);
}
);
width = 600;
},
{
anchors = (
{
name = _bottom;
pos = (300,0);
}
);
associatedMasterId = "15880153-BF49-4651-A558-57743A88E547";
layerId = "53D8CED4-7490-41E1-AE18-6880BB113318";
name = "new Layer";
shapes = (
{
closed = 1;
nodes = (
(188,-171,o),
(202,-157,o),
(202,-119,cs),
(202,-81,o),
(188,-67,o),
(150,-67,cs),
(112,-67,o),
(98,-81,o),
(98,-119,cs),
(98,-157,o),
(112,-171,o),
(150,-171,cs)
);
},
{
closed = 1;
nodes = (
(338,-171,o),
(352,-157,o),
(352,-119,cs),
(352,-81,o),
(338,-67,o),
(300,-67,cs),
(262,-67,o),
(248,-81,o),
(248,-119,cs),
(248,-157,o),
(262,-171,o),
(300,-171,cs)
);
},
{
closed = 1;
nodes = (
(488,-171,o),
(502,-157,o),
(502,-119,cs),
(502,-81,o),
(488,-67,o),
(450,-67,cs),
(412,-67,o),
(398,-81,o),
(398,-119,cs),
(398,-157,o),
(412,-171,o),
(450,-171,cs)
);
},
{
closed = 1;
nodes = (
(488,-332,o),
(502,-318,o),
(502,-280,cs),
(502,-242,o),
(488,-228,o),
(450,-228,cs),
(412,-228,o),
(398,-242,o),
(398,-280,cs),
(398,-318,o),
(412,-332,o),
(450,-332,cs)
);
},
{
closed = 1;
nodes = (
(263,-322,o),
(277,-308,o),
(277,-270,cs),
(277,-232,o),
(263,-218,o),
(225,-218,cs),
(187,-218,o),
(173,-232,o),
(173,-270,cs),
(173,-308,o),
(187,-322,o),
(225,-322,cs)
);
}
);
width = 600;
},
{
anchors = (
{
name = _bottom;
pos = (300,0);
}
);
associatedMasterId = "15880153-BF49-4651-A558-57743A88E547";
layerId = "8AC24B29-55F9-4874-9405-22E9B184E4B3";
name = "new Layer";
shapes = (
{
closed = 1;
nodes = (
(264,-92,o),
(267,-89,o),
(267,-82,cs),
(267,-75,o),
(264,-72,o),
(257,-72,cs),
(250,-72,o),
(247,-75,o),
(247,-82,cs),
(247,-89,o),
(250,-92,o),
(257,-92,cs)
);
},
{
closed = 1;
nodes = (
(306,-92,o),
(309,-89,o),
(309,-82,cs),
(309,-75,o),
(306,-72,o),
(299,-72,cs),
(292,-72,o),
(289,-75,o),
(289,-82,cs),
(289,-89,o),
(292,-92,o),
(299,-92,cs)
);
},
{
closed = 1;
nodes = (
(348,-92,o),
(351,-89,o),
(351,-82,cs),
(351,-75,o),
(348,-72,o),
(341,-72,cs),
(334,-72,o),
(331,-75,o),
(331,-82,cs),
(331,-89,o),
(334,-92,o),
(341,-92,cs)
);
},
{
closed = 1;
nodes = (
(348,-133,o),
(351,-130,o),
(351,-123,cs),
(351,-116,o),
(348,-113,o),
(341,-113,cs),
(334,-113,o),
(331,-116,o),
(331,-123,cs),
(331,-130,o),
(334,-133,o),
(341,-133,cs)
);
},
{
closed = 1;
nodes = (
(285,-129,o),
(288,-126,o),
(288,-119,cs),
(288,-112,o),
(285,-109,o),
(278,-109,cs),
(271,-109,o),
(268,-112,o),
(268,-119,cs),
(268,-126,o),
(271,-129,o),
(278,-129,cs)
);
}
);
width = 600;
},
{
anchors = (
{
name = _bottom;
pos = (300,0);
}
);
associatedMasterId = "15880153-BF49-4651-A558-57743A88E547";
layerId = "CE52D7F9-3492-461B-8CFC-011AE10DF672";
name = "new Layer";
shapes = (
{
closed = 1;
nodes = (
(204,-154,o),
(216,-143,o),
(216,-111,cs),
(216,-80,o),
(204,-68,o),
(173,-68,cs),
(141,-68,o),
(130,-80,o),
(130,-111,cs),
(130,-143,o),
(141,-154,o),
(173,-154,cs)
);
},
{
closed = 1;
nodes = (
(331,-154,o),
(343,-143,o),
(343,-111,cs),
(343,-80,o),
(331,-68,o),
(300,-68,cs),
(268,-68,o),
(257,-80,o),
(257,-111,cs),
(257,-143,o),
(268,-154,o),
(300,-154,cs)
);
},
{
closed = 1;
nodes = (
(458,-154,o),
(470,-143,o),
(470,-111,cs),
(470,-80,o),
(458,-68,o),
(427,-68,cs),
(395,-68,o),
(384,-80,o),
(384,-111,cs),
(384,-143,o),
(395,-154,o),
(427,-154,cs)
);
},
{
closed = 1;
nodes = (
(458,-290,o),
(470,-278,o),
(470,-247,cs),
(470,-215,o),
(458,-204,o),
(427,-204,cs),
(395,-204,o),
(384,-215,o),
(384,-247,cs),
(384,-278,o),
(395,-290,o),
(427,-290,cs)
);
},
{
closed = 1;
nodes = (
(268,-281,o),
(279,-269,o),
(279,-238,cs),
(279,-206,o),
(268,-195,o),
(236,-195,cs),
(205,-195,o),
(193,-206,o),
(193,-238,cs),
(193,-269,o),
(205,-281,o),
(236,-281,cs)
);
}
);
width = 600;
}
);
unicode = 1457;
},
{
color = 3;
glyphname = "hatafpatah-hb";
lastChange = "2025-10-29 14:39:49 +0000";
layers = (
{
anchors = (
{
name = _bottom;
pos = (322,79);
}
);
layerId = "15880153-BF49-4651-A558-57743A88E547";
shapes = (
{
closed = 1;
nodes = (
(273,-83,o),
(291,-71,o),
(291,-50,cs),
(291,-33,o),
(278,-18,o),
(259,-18,cs),
(244,-18,o),
(130,-25,o),
(119,-25,cs),
(100,-25,o),
(88,-35,o),
(88,-49,cs),
(88,-63,o),
(102,-74,o),
(119,-75,cs),
(188,-79,o),
(243,-83,o),
(259,-83,cs)
);
},
{
closed = 1;
nodes = (
(378.796,-87.538,o),
(404.064,-70.86,o),
(404.064,-50.14,cs),
(404.064,-29.925,o),
(392.441,-13.248,o),
(367.172,-13.248,cs),
(346.452,-13.248,o),
(329.774,-29.925,o),
(329.774,-50.14,cs),
(329.774,-70.86,o),
(335.839,-87.538,o),
(358.581,-87.538,cs)
);
},
{
closed = 1;
nodes = (
(349.796,-191.538,o),
(375.064,-174.86,o),
(375.064,-154.14,cs),
(375.064,-133.925,o),
(363.441,-117.248,o),
(338.172,-117.248,cs),
(317.452,-117.248,o),
(300.774,-133.925,o),
(300.774,-154.14,cs),
(300.774,-174.86,o),
(306.839,-191.538,o),
(329.581,-191.538,cs)
);
}
);
width = 600;
},
{
anchors = (
{
name = _bottom;
pos = (300,0);
}
);
associatedMasterId = "15880153-BF49-4651-A558-57743A88E547";
layerId = "53D8CED4-7490-41E1-AE18-6880BB113318";
name = "new Layer";
shapes = (
{
closed = 1;
nodes = (
(481,-171,o),
(495,-157,o),
(495,-119,cs),
(495,-81,o),
(481,-67,o),
(443,-67,cs),
(405,-67,o),
(391,-81,o),
(391,-119,cs),
(391,-157,o),
(405,-171,o),
(443,-171,cs)
);
},
{
closed = 1;
nodes = (
(481,-332,o),
(495,-318,o),
(495,-280,cs),
(495,-242,o),
(481,-228,o),
(443,-228,cs),
(405,-228,o),
(391,-242,o),
(391,-280,cs),
(391,-318,o),
(405,-332,o),
(443,-332,cs)
);
},
{
pos = (-87,0);
ref = "patah-hb";
}
);
width = 600;
},
{
anchors = (
{
name = _bottom;
pos = (300,0);
}
);
associatedMasterId = "15880153-BF49-4651-A558-57743A88E547";
layerId = "8AC24B29-55F9-4874-9405-22E9B184E4B3";
name = "new Layer";
shapes = (
{
closed = 1;
nodes = (
(362,-92,o),
(365,-89,o),
(365,-82,cs),
(365,-75,o),
(362,-72,o),
(355,-72,cs),
(348,-72,o),
(345,-75,o),
(345,-82,cs),
(345,-89,o),
(348,-92,o),
(355,-92,cs)
);
},
{
closed = 1;
nodes = (
(362,-133,o),
(365,-130,o),
(365,-123,cs),
(365,-116,o),
(362,-113,o),
(355,-113,cs),
(348,-113,o),
(345,-116,o),
(345,-123,cs),
(345,-130,o),
(348,-133,o),
(355,-133,cs)
);
},
{
pos = (-35,-5);
ref = "patah-hb";
}
);
width = 600;
},
{
anchors = (
{
name = _bottom;
pos = (300,0);
}
);
associatedMasterId = "15880153-BF49-4651-A558-57743A88E547";
layerId = "CE52D7F9-3492-461B-8CFC-011AE10DF672";
name = "new Layer";
shapes = (
{
closed = 1;
nodes = (
(456,-154,o),
(467,-143,o),
(467,-111,cs),
(467,-80,o),
(456,-68,o),
(424,-68,cs),
(393,-68,o),
(381,-80,o),
(381,-111,cs),
(381,-143,o),
(393,-154,o),
(424,-154,cs)
);
},
{
closed = 1;
nodes = (
(456,-290,o),
(467,-278,o),
(467,-247,cs),
(467,-215,o),
(456,-204,o),
(424,-204,cs),
(393,-204,o),
(381,-215,o),
(381,-247,cs),
(381,-278,o),
(393,-290,o),
(424,-290,cs)
);
},
{
pos = (-76,-1);
ref = "patah-hb";
}
);
width = 600;
}
);
unicode = 1458;
},
{
color = 3;
glyphname = "hatafqamats-hb";
lastChange = "2025-10-29 14:39:49 +0000";
layers = (
{
anchors = (
{
name = _bottom;
pos = (322,79);
}
);
layerId = "15880153-BF49-4651-A558-57743A88E547";
shapes = (
{
closed = 1;
nodes = (
(283,-79,o),
(301,-68,o),
(301,-47,cs),
(301,-29,o),
(288,-15,o),
(269,-15,cs),
(254,-15,o),
(140,-21,o),
(129,-21,cs),
(110,-21,o),
(99,-31,o),
(99,-45,cs),
(99,-60,o),
(112,-69,o),
(129,-71,cs),
(198,-79,o),
(253,-79,o),
(269,-79,cs)
);
},
{
closed = 1;
nodes = (
(211,-187,o),
(222,-178,o),
(222,-150,cs),
(222,-144,o),
(222,-82,o),
(222,-66,c),
(176,-61,l),
(156,-146,ls),
(151,-168,o),
(167,-187,o),
(188,-187,cs)
);
},
{
closed = 1;
nodes = (
(378.796,-87.538,o),
(404.064,-70.86,o),
(404.064,-50.14,cs),
(404.064,-29.925,o),
(392.441,-13.248,o),
(367.172,-13.248,cs),
(346.452,-13.248,o),
(329.774,-29.925,o),
(329.774,-50.14,cs),
(329.774,-70.86,o),
(335.839,-87.538,o),
(358.581,-87.538,cs)
);
},
{
closed = 1;
nodes = (
(356.796,-191.538,o),
(382.064,-174.86,o),
(382.064,-154.14,cs),
(382.064,-133.925,o),
(370.441,-117.248,o),
(345.172,-117.248,cs),
(324.452,-117.248,o),
(307.774,-133.925,o),
(307.774,-154.14,cs),
(307.774,-174.86,o),
(313.839,-191.538,o),
(336.581,-191.538,cs)
);
}
);
width = 600;
},
{
anchors = (
{
name = _bottom;
pos = (300,0);
}
);
associatedMasterId = "15880153-BF49-4651-A558-57743A88E547";
layerId = "53D8CED4-7490-41E1-AE18-6880BB113318";
name = "new Layer";
shapes = (
{
closed = 1;
nodes = (
(482,-171,o),
(496,-157,o),
(496,-119,cs),
(496,-81,o),
(482,-67,o),
(444,-67,cs),
(406,-67,o),
(392,-81,o),
(392,-119,cs),
(392,-157,o),
(406,-171,o),
(444,-171,cs)
);
},
{
closed = 1;
nodes = (
(482,-332,o),
(496,-318,o),
(496,-280,cs),
(496,-242,o),
(482,-228,o),
(444,-228,cs),
(406,-228,o),
(392,-242,o),
(392,-280,cs),
(392,-318,o),
(406,-332,o),
(444,-332,cs)
);
},
{
pos = (-83,0);
ref = "qamats-hb";
}
);
width = 600;
},
{
anchors = (
{
name = _bottom;
pos = (300,0);
}
);
associatedMasterId = "15880153-BF49-4651-A558-57743A88E547";
layerId = "8AC24B29-55F9-4874-9405-22E9B184E4B3";
name = "new Layer";
shapes = (
{
closed = 1;
nodes = (
(352,-92,o),
(355,-89,o),
(355,-82,cs),
(355,-75,o),
(352,-72,o),
(345,-72,cs),
(338,-72,o),
(335,-75,o),
(335,-82,cs),
(335,-89,o),
(338,-92,o),
(345,-92,cs)
);
},
{
closed = 1;
nodes = (
(352,-133,o),
(355,-130,o),
(355,-123,cs),
(355,-116,o),
(352,-113,o),
(345,-113,cs),
(338,-113,o),
(335,-116,o),
(335,-123,cs),
(335,-130,o),
(338,-133,o),
(345,-133,cs)
);
},
{
pos = (-23,0);
ref = "qamats-hb";
}
);
width = 600;
},
{
anchors = (
{
name = _bottom;
pos = (300,0);
}
);
associatedMasterId = "15880153-BF49-4651-A558-57743A88E547";
layerId = "CE52D7F9-3492-461B-8CFC-011AE10DF672";
name = "new Layer";
shapes = (
{
closed = 1;
nodes = (
(454,-154,o),
(466,-143,o),
(466,-111,cs),
(466,-80,o),
(454,-68,o),
(423,-68,cs),
(392,-68,o),
(380,-80,o),
(380,-111,cs),
(380,-143,o),
(392,-154,o),
(423,-154,cs)
);
},
{
closed = 1;
nodes = (
(454,-290,o),
(466,-278,o),
(466,-247,cs),
(466,-215,o),
(454,-204,o),
(423,-204,cs),
(392,-204,o),
(380,-215,o),
(380,-247,cs),
(380,-278,o),
(392,-290,o),
(423,-290,cs)
);
},
{
pos = (-70,0);
ref = "qamats-hb";
}
);
width = 600;
}
);
unicode = 1459;
},
{
color = 6;
glyphname = "hiriq-hb";
lastChange = "2025-10-29 14:39:49 +0000";
layers = (
{
anchors = (
{
name = _bottom;
pos = (295,56);
}
);
layerId = "15880153-BF49-4651-A558-57743A88E547";
shapes = (
{
closed = 1;
nodes = (
(267.339,-116.116,o),
(296.738,-96.712,o),
(296.738,-72.605,cs),
(296.738,-49.086,o),
(283.215,-29.682,o),
(253.815,-29.682,cs),
(229.708,-29.682,o),
(210.305,-49.086,o),
(210.305,-72.605,cs),
(210.305,-96.712,o),
(217.361,-116.116,o),
(243.82,-116.116,cs)
);
}
);
width = 600;
},
{
anchors = (
{
name = _bottom;
pos = (300,0);
}
);
associatedMasterId = "15880153-BF49-4651-A558-57743A88E547";
layerId = "53D8CED4-7490-41E1-AE18-6880BB113318";
name = "new Layer";
shapes = (
{
closed = 1;
nodes = (
(340,-178,o),
(355,-163,o),
(355,-123,cs),
(355,-82,o),
(340,-67,o),
(300,-67,cs),
(259,-67,o),
(244,-82,o),
(244,-123,cs),
(244,-163,o),
(259,-178,o),
(300,-178,cs)
);
}
);
width = 600;
},
{
anchors = (
{
name = _bottom;
pos = (300,0);
}
);
associatedMasterId = "15880153-BF49-4651-A558-57743A88E547";
layerId = "8AC24B29-55F9-4874-9405-22E9B184E4B3";
name = "new Layer";
shapes = (
{
closed = 1;
nodes = (
(308,-93,o),
(311,-90,o),
(311,-82,cs),
(311,-74,o),
(308,-71,o),
(300,-71,cs),
(292,-71,o),
(289,-74,o),
(289,-82,cs),
(289,-90,o),
(292,-93,o),
(300,-93,cs)
);
}
);
width = 600;
},
{
anchors = (
{
name = _bottom;
pos = (300,0);
}
);
associatedMasterId = "15880153-BF49-4651-A558-57743A88E547";
layerId = "CE52D7F9-3492-461B-8CFC-011AE10DF672";
name = "new Layer";
shapes = (
{
closed = 1;
nodes = (
(333,-160,o),
(346,-147,o),
(346,-114,cs),
(346,-80,o),
(333,-68,o),
(300,-68,cs),
(266,-68,o),
(254,-80,o),
(254,-114,cs),
(254,-147,o),
(266,-160,o),
(300,-160,cs)
);
}
);
width = 600;
}
);
unicode = 1460;
},
{
color = 6;
glyphname = "tsere-hb";
lastChange = "2025-10-29 14:39:49 +0000";
layers = (
{
anchors = (
{
name = _bottom;
pos = (276,56);
}
);
layerId = "15880153-BF49-4651-A558-57743A88E547";
shapes = (
{
closed = 1;
nodes = (
(324.796,-109.538,o),
(350.064,-92.86,o),
(350.064,-72.14,cs),
(350.064,-51.925,o),
(338.441,-35.248,o),
(313.172,-35.248,cs),
(292.452,-35.248,o),
(275.774,-51.925,o),
(275.774,-72.14,cs),
(275.774,-92.86,o),
(281.839,-109.538,o),
(304.581,-109.538,cs)
);
},
{
closed = 1;
nodes = (
(223.796,-109.538,o),
(249.064,-92.86,o),
(249.064,-72.14,cs),
(249.064,-51.925,o),
(237.441,-35.248,o),
(212.172,-35.248,cs),
(191.452,-35.248,o),
(174.774,-51.925,o),
(174.774,-72.14,cs),
(174.774,-92.86,o),
(180.839,-109.538,o),
(203.581,-109.538,cs)
);
}
);
width = 600;
},
{
anchors = (
{
name = _bottom;
pos = (300,0);
}
);
associatedMasterId = "15880153-BF49-4651-A558-57743A88E547";
layerId = "53D8CED4-7490-41E1-AE18-6880BB113318";
name = "new Layer";
shapes = (
{
closed = 1;
nodes = (
(413,-171,o),
(427,-157,o),
(427,-119,cs),
(427,-81,o),
(413,-67,o),
(375,-67,cs),
(337,-67,o),
(323,-81,o),
(323,-119,cs),
(323,-157,o),
(337,-171,o),
(375,-171,cs)
);
},
{
closed = 1;
nodes = (
(263,-171,o),
(277,-157,o),
(277,-119,cs),
(277,-81,o),
(263,-67,o),
(225,-67,cs),
(187,-67,o),
(173,-81,o),
(173,-119,cs),
(173,-157,o),
(187,-171,o),
(225,-171,cs)
);
}
);
width = 600;
},
{
anchors = (
{
name = _bottom;
pos = (300,0);
}
);
associatedMasterId = "15880153-BF49-4651-A558-57743A88E547";
layerId = "8AC24B29-55F9-4874-9405-22E9B184E4B3";
name = "new Layer";
shapes = (
{
closed = 1;
nodes = (
(328,-92,o),
(331,-89,o),
(331,-82,cs),
(331,-75,o),
(328,-72,o),
(321,-72,cs),
(314,-72,o),
(311,-75,o),
(311,-82,cs),
(311,-89,o),
(314,-92,o),
(321,-92,cs)
);
},
{
closed = 1;
nodes = (
(286,-92,o),
(289,-89,o),
(289,-82,cs),
(289,-75,o),
(286,-72,o),
(279,-72,cs),
(272,-72,o),
(269,-75,o),
(269,-82,cs),
(269,-89,o),
(272,-92,o),
(279,-92,cs)
);
}
);
width = 600;
},
{
anchors = (
{
name = _bottom;
pos = (300,0);
}
);
associatedMasterId = "15880153-BF49-4651-A558-57743A88E547";
layerId = "CE52D7F9-3492-461B-8CFC-011AE10DF672";
name = "new Layer";
shapes = (
{
closed = 1;
nodes = (
(395,-154,o),
(407,-143,o),
(407,-111,cs),
(407,-80,o),
(395,-68,o),
(364,-68,cs),
(332,-68,o),
(320,-80,o),
(320,-111,cs),
(320,-143,o),
(332,-154,o),
(364,-154,cs)
);
},
{
closed = 1;
nodes = (
(268,-154,o),
(280,-143,o),
(280,-111,cs),
(280,-80,o),
(268,-68,o),
(236,-68,cs),
(205,-68,o),
(193,-80,o),
(193,-111,cs),
(193,-143,o),
(205,-154,o),
(236,-154,cs)
);
}
);
width = 600;
}
);
unicode = 1461;
},
{
color = 6;
glyphname = "segol-hb";
lastChange = "2025-10-29 14:39:49 +0000";
layers = (
{
anchors = (
{
name = _bottom;
pos = (293,74);
}
);
layerId = "15880153-BF49-4651-A558-57743A88E547";
shapes = (
{
closed = 1;
nodes = (
(324.796,-88.538,o),
(350.064,-71.86,o),
(350.064,-51.14,cs),
(350.064,-30.925,o),
(338.441,-14.248,o),
(313.172,-14.248,cs),
(292.452,-14.248,o),
(275.774,-30.925,o),
(275.774,-51.14,cs),
(275.774,-71.86,o),
(281.839,-88.538,o),
(304.581,-88.538,cs)
);
},
{
closed = 1;
nodes = (
(213.796,-82.538,o),
(239.064,-65.86,o),
(239.064,-45.14,cs),
(239.064,-24.925,o),
(227.441,-8.248,o),
(202.172,-8.248,cs),
(181.452,-8.248,o),
(164.774,-24.925,o),
(164.774,-45.14,cs),
(164.774,-65.86,o),
(170.839,-82.538,o),
(193.581,-82.538,cs)
);
},
{
closed = 1;
nodes = (
(247.796,-183.538,o),
(273.064,-166.86,o),
(273.064,-146.14,cs),
(273.064,-125.925,o),
(261.441,-109.248,o),
(236.172,-109.248,cs),
(215.452,-109.248,o),
(198.774,-125.925,o),
(198.774,-146.14,cs),
(198.774,-166.86,o),
(204.839,-183.538,o),
(227.581,-183.538,cs)
);
}
);
width = 600;
},
{
anchors = (
{
name = _bottom;
pos = (300,0);
}
);
associatedMasterId = "15880153-BF49-4651-A558-57743A88E547";
layerId = "53D8CED4-7490-41E1-AE18-6880BB113318";
name = "new Layer";
shapes = (
{
closed = 1;
nodes = (
(263,-171,o),
(277,-157,o),
(277,-119,cs),
(277,-81,o),
(263,-67,o),
(225,-67,cs),
(187,-67,o),
(173,-81,o),
(173,-119,cs),
(173,-157,o),
(187,-171,o),
(225,-171,cs)
);
},
{
closed = 1;
nodes = (
(413,-171,o),
(427,-157,o),
(427,-119,cs),
(427,-81,o),
(413,-67,o),
(375,-67,cs),
(337,-67,o),
(323,-81,o),
(323,-119,cs),
(323,-157,o),
(337,-171,o),
(375,-171,cs)
);
},
{
closed = 1;
nodes = (
(338,-312,o),
(352,-298,o),
(352,-260,cs),
(352,-222,o),
(338,-208,o),
(300,-208,cs),
(262,-208,o),
(248,-222,o),
(248,-260,cs),
(248,-298,o),
(262,-312,o),
(300,-312,cs)
);
}
);
width = 600;
},
{
anchors = (
{
name = _bottom;
pos = (300,0);
}
);
associatedMasterId = "15880153-BF49-4651-A558-57743A88E547";
layerId = "8AC24B29-55F9-4874-9405-22E9B184E4B3";
name = "new Layer";
shapes = (
{
closed = 1;
nodes = (
(286,-92,o),
(289,-89,o),
(289,-82,cs),
(289,-75,o),
(286,-72,o),
(279,-72,cs),
(272,-72,o),
(269,-75,o),
(269,-82,cs),
(269,-89,o),
(272,-92,o),
(279,-92,cs)
);
},
{
closed = 1;
nodes = (
(328,-92,o),
(331,-89,o),
(331,-82,cs),
(331,-75,o),
(328,-72,o),
(321,-72,cs),
(314,-72,o),
(311,-75,o),
(311,-82,cs),
(311,-89,o),
(314,-92,o),
(321,-92,cs)
);
},
{
closed = 1;
nodes = (
(307,-129,o),
(310,-126,o),
(310,-119,cs),
(310,-112,o),
(307,-109,o),
(300,-109,cs),
(293,-109,o),
(290,-112,o),
(290,-119,cs),
(290,-126,o),
(293,-129,o),
(300,-129,cs)
);
}
);
width = 600;
},
{
anchors = (
{
name = _bottom;
pos = (300,0);
}
);
associatedMasterId = "15880153-BF49-4651-A558-57743A88E547";
layerId = "CE52D7F9-3492-461B-8CFC-011AE10DF672";
name = "new Layer";
shapes = (
{
closed = 1;
nodes = (
(268,-154,o),
(280,-143,o),
(280,-111,cs),
(280,-80,o),
(268,-68,o),
(236,-68,cs),
(205,-68,o),
(193,-80,o),
(193,-111,cs),
(193,-143,o),
(205,-154,o),
(236,-154,cs)
);
},
{
closed = 1;
nodes = (
(395,-154,o),
(407,-143,o),
(407,-111,cs),
(407,-80,o),
(395,-68,o),
(364,-68,cs),
(332,-68,o),
(320,-80,o),
(320,-111,cs),
(320,-143,o),
(332,-154,o),
(364,-154,cs)
);
},
{
closed = 1;
nodes = (
(331,-273,o),
(343,-261,o),
(343,-230,cs),
(343,-199,o),
(331,-187,o),
(300,-187,cs),
(269,-187,o),
(257,-199,o),
(257,-230,cs),
(257,-261,o),
(269,-273,o),
(300,-273,cs)
);
}
);
width = 600;
}
);
unicode = 1462;
},
{
color = 6;
glyphname = "patah-hb";
lastChange = "2025-10-29 14:39:49 +0000";
layers = (
{
anchors = (
{
name = _bottom;
pos = (331,69);
}
);
layerId = "15880153-BF49-4651-A558-57743A88E547";
shapes = (
{
closed = 1;
nodes = (
(387,-124,o),
(405,-112,o),
(405,-90,cs),
(405,-71,o),
(392,-56,o),
(371,-56,cs),
(356,-56,o),
(237,-63,o),
(225,-63,cs),
(205,-63,o),
(193,-73,o),
(193,-88,cs),
(193,-103,o),
(206,-114,o),
(225,-115,cs),
(297,-122,o),
(355,-124,o),
(371,-124,cs)
);
}
);
width = 600;
},
{
anchors = (
{
name = _bottom;
pos = (300,0);
}
);
associatedMasterId = "15880153-BF49-4651-A558-57743A88E547";
layerId = "53D8CED4-7490-41E1-AE18-6880BB113318";
name = "new Layer";
shapes = (
{
closed = 1;
nodes = (
(167,-155,l),
(433,-155,l),
(433,-76,l),
(167,-76,l)
);
}
);
width = 600;
},
{
anchors = (
{
name = _bottom;
pos = (300,0);
}
);
associatedMasterId = "15880153-BF49-4651-A558-57743A88E547";
layerId = "8AC24B29-55F9-4874-9405-22E9B184E4B3";
name = "new Layer";
shapes = (
{
closed = 1;
nodes = (
(253,-84,l),
(347,-84,l),
(347,-74,l),
(253,-74,l)
);
}
);
width = 600;
},
{
anchors = (
{
name = _bottom;
pos = (300,0);
}
);
associatedMasterId = "15880153-BF49-4651-A558-57743A88E547";
layerId = "CE52D7F9-3492-461B-8CFC-011AE10DF672";
name = "new Layer";
shapes = (
{
closed = 1;
nodes = (
(185,-140,l),
(415,-140,l),
(415,-76,l),
(185,-76,l)
);
}
);
width = 600;
}
);
unicode = 1463;
},
{
color = 6;
glyphname = "qamats-hb";
lastChange = "2025-10-29 14:39:49 +0000";
layers = (
{
anchors = (
{
name = _bottom;
pos = (329,72);
}
);
layerId = "15880153-BF49-4651-A558-57743A88E547";
shapes = (
{
closed = 1;
nodes = (
(393,-95,o),
(412,-83,o),
(412,-60,cs),
(412,-40,o),
(398,-24,o),
(377,-24,cs),
(361,-24,o),
(236,-31,o),
(223,-31,cs),
(202,-31,o),
(190,-42,o),
(190,-58,cs),
(190,-74,o),
(204,-84,o),
(223,-86,cs),
(299,-93,o),
(359,-95,o),
(377,-95,cs)
);
},
{
closed = 1;
nodes = (
(324,-201,o),
(326,-187,o),
(326,-152,cs),
(326,-145,o),
(320,-99,o),
(320,-81,c),
(284,-76,l),
(254,-146,ls),
(242,-174,o),
(256,-201,o),
(289,-201,cs)
);
}
);
width = 600;
},
{
anchors = (
{
name = _bottom;
pos = (300,0);
}
);
associatedMasterId = "15880153-BF49-4651-A558-57743A88E547";
layerId = "53D8CED4-7490-41E1-AE18-6880BB113318";
name = "new Layer";
shapes = (
{
closed = 1;
nodes = (
(337,-328,o),
(350,-318,o),
(350,-289,cs),
(350,-258,o),
(331,-110,o),
(300,-110,cs),
(275,-110,o),
(250,-258,o),
(250,-289,cs),
(250,-318,o),
(263,-328,o),
(300,-328,cs)
);
},
{
closed = 1;
nodes = (
(167,-150,l),
(433,-150,l),
(433,-77,l),
(167,-77,l)
);
}
);
width = 600;
},
{
anchors = (
{
name = _bottom;
pos = (300,0);
}
);
associatedMasterId = "15880153-BF49-4651-A558-57743A88E547";
layerId = "8AC24B29-55F9-4874-9405-22E9B184E4B3";
name = "new Layer";
shapes = (
{
closed = 1;
nodes = (
(305,-128,o),
(308,-127,o),
(308,-121,cs),
(308,-115,o),
(305,-79,o),
(300,-79,cs),
(296,-79,o),
(292,-115,o),
(292,-121,cs),
(292,-127,o),
(297,-128,o),
(300,-128,cs)
);
},
{
closed = 1;
nodes = (
(266,-84,l),
(334,-84,l),
(334,-74,l),
(266,-74,l)
);
}
);
width = 600;
},
{
anchors = (
{
name = _bottom;
pos = (300,0);
}
);
associatedMasterId = "15880153-BF49-4651-A558-57743A88E547";
layerId = "CE52D7F9-3492-461B-8CFC-011AE10DF672";
name = "new Layer";
shapes = (
{
closed = 1;
nodes = (
(330,-285,o),
(341,-277,o),
(341,-253,cs),
(341,-228,o),
(325,-103,o),
(300,-103,cs),
(279,-103,o),
(259,-228,o),
(259,-253,cs),
(259,-277,o),
(270,-285,o),
(300,-285,cs)
);
},
{
closed = 1;
nodes = (
(188,-136,l),
(412,-136,l),
(412,-76,l),
(188,-76,l)
);
}
);
width = 600;
}
);
unicode = 1464;
},
{
color = 6;
glyphname = "holam-hb";
lastChange = "2025-10-29 14:39:49 +0000";
layers = (
{
anchors = (
{
name = _topleft;
pos = (338,411);
}
);
layerId = "15880153-BF49-4651-A558-57743A88E547";
shapes = (
{
closed = 1;
nodes = (
(411.339,531.884,o),
(440.738,551.288,o),
(440.738,575.395,cs),
(440.738,598.914,o),
(427.215,618.318,o),
(397.815,618.318,cs),
(373.708,618.318,o),
(354.305,598.914,o),
(354.305,575.395,cs),
(354.305,551.288,o),
(361.361,531.884,o),
(387.82,531.884,cs)
);
}
);
width = 600;
},
{
anchors = (
{
name = _topleft;
pos = (300,600);
}
);
associatedMasterId = "15880153-BF49-4651-A558-57743A88E547";
layerId = "53D8CED4-7490-41E1-AE18-6880BB113318";
name = "new Layer";
shapes = (
{
closed = 1;
nodes = (
(341,661,o),
(356,676,o),
(356,716,cs),
(356,757,o),
(341,772,o),
(300,772,cs),
(258,772,o),
(243,757,o),
(243,716,cs),
(243,676,o),
(258,661,o),
(300,661,cs)
);
}
);
width = 600;
},
{
anchors = (
{
name = _topleft;
pos = (300,600);
}
);
associatedMasterId = "15880153-BF49-4651-A558-57743A88E547";
layerId = "8AC24B29-55F9-4874-9405-22E9B184E4B3";
name = "new Layer";
shapes = (
{
closed = 1;
nodes = (
(308,679,o),
(311,682,o),
(311,690,cs),
(311,698,o),
(308,701,o),
(300,701,cs),
(292,701,o),
(289,698,o),
(289,690,cs),
(289,682,o),
(292,679,o),
(300,679,cs)
);
}
);
width = 600;
},
{
anchors = (
{
name = _topleft;
pos = (300,600);
}
);
associatedMasterId = "15880153-BF49-4651-A558-57743A88E547";
layerId = "CE52D7F9-3492-461B-8CFC-011AE10DF672";
name = "new Layer";
shapes = (
{
closed = 1;
nodes = (
(334,665,o),
(346,677,o),
(346,710,cs),
(346,744,o),
(334,757,o),
(300,757,cs),
(265,757,o),
(253,744,o),
(253,710,cs),
(253,677,o),
(265,665,o),
(300,665,cs)
);
}
);
width = 600;
}
);
unicode = 1465;
},
{
color = 6;
glyphname = "qubuts-hb";
lastChange = "2025-10-29 14:39:49 +0000";
layers = (
{
anchors = (
{
name = _bottom;
pos = (190,84);
}
);
layerId = "15880153-BF49-4651-A558-57743A88E547";
shapes = (
{
closed = 1;
nodes = (
(250.796,-154.538,o),
(276.064,-137.86,o),
(276.064,-117.14,cs),
(276.064,-96.925,o),
(264.441,-80.248,o),
(239.172,-80.248,cs),
(218.452,-80.248,o),
(201.774,-96.925,o),
(201.774,-117.14,cs),
(201.774,-137.86,o),
(207.839,-154.538,o),
(230.581,-154.538,cs)
);
},
{
closed = 1;
nodes = (
(190.796,-79.538,o),
(216.064,-62.86,o),
(216.064,-42.14,cs),
(216.064,-21.925,o),
(204.441,-5.248,o),
(179.172,-5.248,cs),
(158.452,-5.248,o),
(141.774,-21.925,o),
(141.774,-42.14,cs),
(141.774,-62.86,o),
(147.839,-79.538,o),
(170.581,-79.538,cs)
);
},
{
closed = 1;
nodes = (
(310.796,-234.538,o),
(336.064,-217.86,o),
(336.064,-197.14,cs),
(336.064,-176.925,o),
(324.441,-160.248,o),
(299.172,-160.248,cs),
(278.452,-160.248,o),
(261.774,-176.925,o),
(261.774,-197.14,cs),
(261.774,-217.86,o),
(267.839,-234.538,o),
(290.581,-234.538,cs)
);
}
);
width = 600;
},
{
anchors = (
{
name = _bottom;
pos = (300,0);
}
);
associatedMasterId = "15880153-BF49-4651-A558-57743A88E547";
layerId = "53D8CED4-7490-41E1-AE18-6880BB113318";
name = "new Layer";
shapes = (
{
closed = 1;
nodes = (
(337,-171,o),
(351,-157,o),
(351,-119,cs),
(351,-81,o),
(337,-67,o),
(299,-67,cs),
(261,-67,o),
(247,-81,o),
(247,-119,cs),
(247,-157,o),
(261,-171,o),
(299,-171,cs)
);
},
{
closed = 1;
nodes = (
(450,-263,o),
(464,-249,o),
(464,-211,cs),
(464,-173,o),
(450,-159,o),
(412,-159,cs),
(374,-159,o),
(360,-173,o),
(360,-211,cs),
(360,-249,o),
(374,-263,o),
(412,-263,cs)
);
},
{
closed = 1;
nodes = (
(563,-355,o),
(577,-341,o),
(577,-303,cs),
(577,-265,o),
(563,-251,o),
(525,-251,cs),
(487,-251,o),
(473,-265,o),
(473,-303,cs),
(473,-341,o),
(487,-355,o),
(525,-355,cs)
);
}
);
width = 600;
},
{
anchors = (
{
name = _bottom;
pos = (300,0);
}
);
associatedMasterId = "15880153-BF49-4651-A558-57743A88E547";
layerId = "8AC24B29-55F9-4874-9405-22E9B184E4B3";
name = "new Layer";
shapes = (
{
closed = 1;
nodes = (
(304,-92,o),
(307,-89,o),
(307,-82,cs),
(307,-75,o),
(304,-72,o),
(297,-72,cs),
(290,-72,o),
(287,-75,o),
(287,-82,cs),
(287,-89,o),
(290,-92,o),
(297,-92,cs)
);
},
{
closed = 1;
nodes = (
(334,-120,o),
(337,-117,o),
(337,-110,cs),
(337,-103,o),
(334,-100,o),
(327,-100,cs),
(320,-100,o),
(317,-103,o),
(317,-110,cs),
(317,-117,o),
(320,-120,o),
(327,-120,cs)
);
},
{
closed = 1;
nodes = (
(364,-148,o),
(367,-145,o),
(367,-138,cs),
(367,-131,o),
(364,-128,o),
(357,-128,cs),
(350,-128,o),
(347,-131,o),
(347,-138,cs),
(347,-145,o),
(350,-148,o),
(357,-148,cs)
);
}
);
width = 600;
},
{
anchors = (
{
name = _bottom;
pos = (300,0);
}
);
associatedMasterId = "15880153-BF49-4651-A558-57743A88E547";
layerId = "CE52D7F9-3492-461B-8CFC-011AE10DF672";
name = "new Layer";
shapes = (
{
closed = 1;
nodes = (
(330,-154,o),
(342,-143,o),
(342,-111,cs),
(342,-80,o),
(330,-68,o),
(299,-68,cs),
(267,-68,o),
(256,-80,o),
(256,-111,cs),
(256,-143,o),
(267,-154,o),
(299,-154,cs)
);
},
{
closed = 1;
nodes = (
(425,-233,o),
(437,-221,o),
(437,-190,cs),
(437,-158,o),
(425,-146,o),
(394,-146,cs),
(363,-146,o),
(351,-158,o),
(351,-190,cs),
(351,-221,o),
(363,-233,o),
(394,-233,cs)
);
},
{
closed = 1;
nodes = (
(521,-311,o),
(532,-299,o),
(532,-268,cs),
(532,-236,o),
(521,-225,o),
(489,-225,cs),
(458,-225,o),
(446,-236,o),
(446,-268,cs),
(446,-299,o),
(458,-311,o),
(489,-311,cs)
);
}
);
width = 600;
}
);
unicode = 1467;
},
{
color = 6;
glyphname = "dagesh-hb";
lastChange = "2025-10-29 14:39:49 +0000";
layers = (
{
anchors = (
{
name = _center;
pos = (258,334);
}
);
layerId = "15880153-BF49-4651-A558-57743A88E547";
shapes = (
{
closed = 1;
nodes = (
(270.796,296.462,o),
(296.064,313.14,o),
(296.064,333.86,cs),
(296.064,354.075,o),
(284.441,370.752,o),
(259.172,370.752,cs),
(238.452,370.752,o),
(221.774,354.075,o),
(221.774,333.86,cs),
(221.774,313.14,o),
(227.839,296.462,o),
(250.581,296.462,cs)
);
}
);
width = 600;
},
{
anchors = (
{
name = _center;
pos = (300,296);
}
);
associatedMasterId = "15880153-BF49-4651-A558-57743A88E547";
layerId = "53D8CED4-7490-41E1-AE18-6880BB113318";
name = "new Layer";
shapes = (
{
closed = 1;
nodes = (
(340,241,o),
(355,256,o),
(355,296,cs),
(355,336,o),
(340,351,o),
(300,351,cs),
(260,351,o),
(245,336,o),
(245,296,cs),
(245,256,o),
(260,241,o),
(300,241,cs)
);
}
);
width = 600;
},
{
anchors = (
{
name = _center;
pos = (300,296);
}
);
associatedMasterId = "15880153-BF49-4651-A558-57743A88E547";
layerId = "8AC24B29-55F9-4874-9405-22E9B184E4B3";
name = "new Layer";
shapes = (
{
closed = 1;
nodes = (
(308,285,o),
(311,288,o),
(311,296,cs),
(311,304,o),
(308,307,o),
(300,307,cs),
(292,307,o),
(288,304,o),
(288,296,cs),
(288,288,o),
(292,285,o),
(300,285,cs)
);
}
);
width = 600;
},
{
anchors = (
{
name = _center;
pos = (300,296);
}
);
associatedMasterId = "15880153-BF49-4651-A558-57743A88E547";
layerId = "CE52D7F9-3492-461B-8CFC-011AE10DF672";
name = "new Layer";
shapes = (
{
closed = 1;
nodes = (
(320,269,o),
(327,277,o),
(327,296,cs),
(327,315,o),
(320,323,o),
(300,323,cs),
(281,323,o),
(274,315,o),
(274,296,cs),
(274,277,o),
(281,269,o),
(300,269,cs)
);
}
);
width = 600;
}
);
unicode = 1468;
},
{
color = 6;
glyphname = "rafe-hb";
lastChange = "2025-10-29 14:39:49 +0000";
layers = (
{
anchors = (
{
name = _top;
pos = (301,483);
}
);
layerId = "15880153-BF49-4651-A558-57743A88E547";
shapes = (
{
closed = 1;
nodes = (
(437,547,o),
(454,558,o),
(454,578,cs),
(454,594,o),
(442,609,o),
(423,609,cs),
(410,609,o),
(253,602,o),
(243,602,cs),
(225,602,o),
(214,593,o),
(214,580,cs),
(214,566,o),
(226,557,o),
(243,555,cs),
(307,547,o),
(409,547,o),
(423,547,cs)
);
}
);
width = 600;
},
{
anchors = (
{
name = _top;
pos = (300,600);
}
);
associatedMasterId = "15880153-BF49-4651-A558-57743A88E547";
layerId = "53D8CED4-7490-41E1-AE18-6880BB113318";
name = "new Layer";
shapes = (
{
closed = 1;
nodes = (
(177,671,l),
(423,671,l),
(423,750,l),
(177,750,l)
);
}
);
width = 600;
},
{
anchors = (
{
name = _top;
pos = (300,600);
}
);
associatedMasterId = "15880153-BF49-4651-A558-57743A88E547";
layerId = "8AC24B29-55F9-4874-9405-22E9B184E4B3";
name = "new Layer";
shapes = (
{
closed = 1;
nodes = (
(237,690,l),
(363,690,l),
(363,700,l),
(237,700,l)
);
}
);
width = 600;
},
{
anchors = (
{
name = _top;
pos = (300,600);
}
);
associatedMasterId = "15880153-BF49-4651-A558-57743A88E547";
layerId = "CE52D7F9-3492-461B-8CFC-011AE10DF672";
name = "new Layer";
shapes = (
{
closed = 1;
nodes = (
(190,675,l),
(410,675,l),
(410,739,l),
(190,739,l)
);
}
);
width = 600;
}
);
unicode = 1471;
},
{
color = 6;
glyphname = "judeospanishvarika-hb";
lastChange = "2025-10-29 14:39:49 +0000";
layers = (
{
layerId = "15880153-BF49-4651-A558-57743A88E547";
shapes = (
{
closed = 1;
nodes = (
(127,637,o),
(183,514,o),
(283,490,cs),
(343,475,o),
(429,510,o),
(497,576,cs),
(523,602,o),
(529,631,o),
(502,659,cs),
(483,676,o),
(442,670,o),
(418,643,cs),
(410,633,o),
(351,558,o),
(296,560,cs),
(250,562,o),
(207,637,o),
(197,651,cs),
(173,682,o),
(150,684,o),
(143,670,cs)
);
}
);
width = 439;
}
);
unicode = 64286;
},
{
color = 6;
glyphname = grave;
lastChange = "2025-10-29 14:39:49 +0000";
layers = (
{
anchors = (
{
name = _top;
pos = (363,510);
}
);
layerId = "15880153-BF49-4651-A558-57743A88E547";
shapes = (
{
closed = 1;
nodes = (
(516,633,o),
(496,606,cs),
(488,595,o),
(470,589,o),
(450,601,cs),
(430,615,o),
(355,722,o),
(340,744,cs),
(323,766,o),
(325,788,o),
(340,800,cs),
(356,813,o),
(377,812,o),
(395,790,cs),
(418,762,o),
(448,726,o),
(479,690,cs),
(505,656,o)
);
}
);
width = 600;
}
);
unicode = 96;
},
{
color = 6;
glyphname = circumflex;
lastChange = "2025-10-29 14:39:49 +0000";
layers = (
{
anchors = (
{
name = _top;
pos = (363,510);
}
);
layerId = "15880153-BF49-4651-A558-57743A88E547";
shapes = (
{
closed = 1;
nodes = (
(336,610,o),
(375,668,o),
(404,709,c),
(424,670,o),
(450,625,o),
(463,613,cs),
(482,595,o),
(500,595,o),
(513,607,cs),
(536,628,o),
(527,656,o),
(507,690,cs),
(469,746,o),
(480,734,o),
(443,791,cs),
(433,811,o),
(399,808,o),
(383,786,cs),
(361,760,o),
(337,732,o),
(307,691,cs),
(279,653,o),
(261,633,o),
(276,606,cs),
(282,595,o),
(299,589,o),
(322,601,cs)
);
}
);
width = 600;
}
);
unicode = 710;
},
{
color = 6;
glyphname = tilde;
lastChange = "2025-10-29 14:39:49 +0000";
layers = (
{
anchors = (
{
name = _top;
pos = (363,510);
}
);
layerId = "15880153-BF49-4651-A558-57743A88E547";
shapes = (
{
closed = 1;
nodes = (
(323,685,o),
(309,671,o),
(297,651,cs),
(288,636,o),
(274,629,o),
(265,631,cs),
(254,635,o),
(246,649,o),
(249,668,cs),
(263,738,o),
(310,763,o),
(350,763,cs),
(387,763,o),
(417,714,o),
(445,714,cs),
(471,714,o),
(488,736,o),
(506,764,cs),
(513,774,o),
(523,780,o),
(541,775,cs),
(554,771,o),
(561,752,o),
(553,734,cs),
(525,668,o),
(486,639,o),
(445,639,cs),
(408,639,o),
(377,685,o),
(348,685,cs)
);
}
);
width = 600;
}
);
unicode = 732;
},
{
color = 6;
glyphname = spacer;
lastChange = "2025-10-29 14:39:49 +0000";
layers = (
{
layerId = "15880153-BF49-4651-A558-57743A88E547";
shapes = (
{
closed = 1;
nodes = (
(28,-28,o),
(57,-4,o),
(77,45,cs),
(103,108,o),
(196,405,o),
(216,473,cs),
(232,528,o),
(227,564,o),
(190,577,cs),
(154,590,o),
(121,553,o),
(101,484,cs),
(80,411,o),
(-7,125,o),
(-24,74,cs),
(-42,21,o),
(-31,-12,o),
(-6,-19,cs)
);
}
